<?xml version="1.0" encoding="utf-8" standalone="no"?>
<!DOCTYPE svg PUBLIC "-//W3C//DTD SVG 1.1//EN"
  "http://www.w3.org/Graphics/SVG/1.1/DTD/svg11.dtd">
<svg xmlns:xlink="http://www.w3.org/1999/xlink" width="460.8pt" height="345.6pt" viewBox="0 0 460.8 345.6" xmlns="http://www.w3.org/2000/svg" version="1.1">
 <metadata>
  <rdf:RDF xmlns:dc="http://purl.org/dc/elements/1.1/" xmlns:cc="http://creativecommons.org/ns#" xmlns:rdf="http://www.w3.org/1999/02/22-rdf-syntax-ns#">
   <cc:Work>
    <dc:type rdf:resource="http://purl.org/dc/dcmitype/StillImage"/>
    <dc:date>2023-02-15T21:56:52.285552</dc:date>
    <dc:format>image/svg+xml</dc:format>
    <dc:creator>
     <cc:Agent>
      <dc:title>Matplotlib v3.6.2, https://matplotlib.org/</dc:title>
     </cc:Agent>
    </dc:creator>
   </cc:Work>
  </rdf:RDF>
 </metadata>
 <defs>
  <style type="text/css">*{stroke-linejoin: round; stroke-linecap: butt}</style>
 </defs>
 <g id="figure_1">
  <g id="patch_1">
   <path d="M 0 345.6 
L 460.8 345.6 
L 460.8 0 
L 0 0 
z
" style="fill: #ffffff"/>
  </g>
  <g id="axes_1">
   <g id="patch_2">
    <path d="M 57.6 307.584 
L 414.72 307.584 
L 414.72 41.472 
L 57.6 41.472 
z
" style="fill: #ffffff"/>
   </g>
   <g id="matplotlib.axis_1">
    <g id="xtick_1">
     <g id="line2d_1">
      <defs>
       <path id="mad6cec4760" d="M 0 0 
L 0 3.5 
" style="stroke: #000000; stroke-width: 0.8"/>
      </defs>
      <g>
       <use xlink:href="#mad6cec4760" x="73.832727" y="307.584" style="stroke: #000000; stroke-width: 0.8"/>
      </g>
     </g>
     <g id="text_1">
      <!-- 0 -->
      <g transform="translate(70.651477 322.182437) scale(0.1 -0.1)">
       <defs>
        <path id="DejaVuSans-30" d="M 2034 4250 
Q 1547 4250 1301 3770 
Q 1056 3291 1056 2328 
Q 1056 1369 1301 889 
Q 1547 409 2034 409 
Q 2525 409 2770 889 
Q 3016 1369 3016 2328 
Q 3016 3291 2770 3770 
Q 2525 4250 2034 4250 
z
M 2034 4750 
Q 2819 4750 3233 4129 
Q 3647 3509 3647 2328 
Q 3647 1150 3233 529 
Q 2819 -91 2034 -91 
Q 1250 -91 836 529 
Q 422 1150 422 2328 
Q 422 3509 836 4129 
Q 1250 4750 2034 4750 
z
" transform="scale(0.015625)"/>
       </defs>
       <use xlink:href="#DejaVuSans-30"/>
      </g>
     </g>
    </g>
    <g id="xtick_2">
     <g id="line2d_2">
      <g>
       <use xlink:href="#mad6cec4760" x="122.28863" y="307.584" style="stroke: #000000; stroke-width: 0.8"/>
      </g>
     </g>
     <g id="text_2">
      <!-- 50 -->
      <g transform="translate(115.92613 322.182437) scale(0.1 -0.1)">
       <defs>
        <path id="DejaVuSans-35" d="M 691 4666 
L 3169 4666 
L 3169 4134 
L 1269 4134 
L 1269 2991 
Q 1406 3038 1543 3061 
Q 1681 3084 1819 3084 
Q 2600 3084 3056 2656 
Q 3513 2228 3513 1497 
Q 3513 744 3044 326 
Q 2575 -91 1722 -91 
Q 1428 -91 1123 -41 
Q 819 9 494 109 
L 494 744 
Q 775 591 1075 516 
Q 1375 441 1709 441 
Q 2250 441 2565 725 
Q 2881 1009 2881 1497 
Q 2881 1984 2565 2268 
Q 2250 2553 1709 2553 
Q 1456 2553 1204 2497 
Q 953 2441 691 2322 
L 691 4666 
z
" transform="scale(0.015625)"/>
       </defs>
       <use xlink:href="#DejaVuSans-35"/>
       <use xlink:href="#DejaVuSans-30" x="63.623047"/>
      </g>
     </g>
    </g>
    <g id="xtick_3">
     <g id="line2d_3">
      <g>
       <use xlink:href="#mad6cec4760" x="170.744532" y="307.584" style="stroke: #000000; stroke-width: 0.8"/>
      </g>
     </g>
     <g id="text_3">
      <!-- 100 -->
      <g transform="translate(161.200782 322.182437) scale(0.1 -0.1)">
       <defs>
        <path id="DejaVuSans-31" d="M 794 531 
L 1825 531 
L 1825 4091 
L 703 3866 
L 703 4441 
L 1819 4666 
L 2450 4666 
L 2450 531 
L 3481 531 
L 3481 0 
L 794 0 
L 794 531 
z
" transform="scale(0.015625)"/>
       </defs>
       <use xlink:href="#DejaVuSans-31"/>
       <use xlink:href="#DejaVuSans-30" x="63.623047"/>
       <use xlink:href="#DejaVuSans-30" x="127.246094"/>
      </g>
     </g>
    </g>
    <g id="xtick_4">
     <g id="line2d_4">
      <g>
       <use xlink:href="#mad6cec4760" x="219.200434" y="307.584" style="stroke: #000000; stroke-width: 0.8"/>
      </g>
     </g>
     <g id="text_4">
      <!-- 150 -->
      <g transform="translate(209.656684 322.182437) scale(0.1 -0.1)">
       <use xlink:href="#DejaVuSans-31"/>
       <use xlink:href="#DejaVuSans-35" x="63.623047"/>
       <use xlink:href="#DejaVuSans-30" x="127.246094"/>
      </g>
     </g>
    </g>
    <g id="xtick_5">
     <g id="line2d_5">
      <g>
       <use xlink:href="#mad6cec4760" x="267.656336" y="307.584" style="stroke: #000000; stroke-width: 0.8"/>
      </g>
     </g>
     <g id="text_5">
      <!-- 200 -->
      <g transform="translate(258.112586 322.182437) scale(0.1 -0.1)">
       <defs>
        <path id="DejaVuSans-32" d="M 1228 531 
L 3431 531 
L 3431 0 
L 469 0 
L 469 531 
Q 828 903 1448 1529 
Q 2069 2156 2228 2338 
Q 2531 2678 2651 2914 
Q 2772 3150 2772 3378 
Q 2772 3750 2511 3984 
Q 2250 4219 1831 4219 
Q 1534 4219 1204 4116 
Q 875 4013 500 3803 
L 500 4441 
Q 881 4594 1212 4672 
Q 1544 4750 1819 4750 
Q 2544 4750 2975 4387 
Q 3406 4025 3406 3419 
Q 3406 3131 3298 2873 
Q 3191 2616 2906 2266 
Q 2828 2175 2409 1742 
Q 1991 1309 1228 531 
z
" transform="scale(0.015625)"/>
       </defs>
       <use xlink:href="#DejaVuSans-32"/>
       <use xlink:href="#DejaVuSans-30" x="63.623047"/>
       <use xlink:href="#DejaVuSans-30" x="127.246094"/>
      </g>
     </g>
    </g>
    <g id="xtick_6">
     <g id="line2d_6">
      <g>
       <use xlink:href="#mad6cec4760" x="316.112239" y="307.584" style="stroke: #000000; stroke-width: 0.8"/>
      </g>
     </g>
     <g id="text_6">
      <!-- 250 -->
      <g transform="translate(306.568489 322.182437) scale(0.1 -0.1)">
       <use xlink:href="#DejaVuSans-32"/>
       <use xlink:href="#DejaVuSans-35" x="63.623047"/>
       <use xlink:href="#DejaVuSans-30" x="127.246094"/>
      </g>
     </g>
    </g>
    <g id="xtick_7">
     <g id="line2d_7">
      <g>
       <use xlink:href="#mad6cec4760" x="364.568141" y="307.584" style="stroke: #000000; stroke-width: 0.8"/>
      </g>
     </g>
     <g id="text_7">
      <!-- 300 -->
      <g transform="translate(355.024391 322.182437) scale(0.1 -0.1)">
       <defs>
        <path id="DejaVuSans-33" d="M 2597 2516 
Q 3050 2419 3304 2112 
Q 3559 1806 3559 1356 
Q 3559 666 3084 287 
Q 2609 -91 1734 -91 
Q 1441 -91 1130 -33 
Q 819 25 488 141 
L 488 750 
Q 750 597 1062 519 
Q 1375 441 1716 441 
Q 2309 441 2620 675 
Q 2931 909 2931 1356 
Q 2931 1769 2642 2001 
Q 2353 2234 1838 2234 
L 1294 2234 
L 1294 2753 
L 1863 2753 
Q 2328 2753 2575 2939 
Q 2822 3125 2822 3475 
Q 2822 3834 2567 4026 
Q 2313 4219 1838 4219 
Q 1578 4219 1281 4162 
Q 984 4106 628 3988 
L 628 4550 
Q 988 4650 1302 4700 
Q 1616 4750 1894 4750 
Q 2613 4750 3031 4423 
Q 3450 4097 3450 3541 
Q 3450 3153 3228 2886 
Q 3006 2619 2597 2516 
z
" transform="scale(0.015625)"/>
       </defs>
       <use xlink:href="#DejaVuSans-33"/>
       <use xlink:href="#DejaVuSans-30" x="63.623047"/>
       <use xlink:href="#DejaVuSans-30" x="127.246094"/>
      </g>
     </g>
    </g>
    <g id="xtick_8">
     <g id="line2d_8">
      <g>
       <use xlink:href="#mad6cec4760" x="413.024043" y="307.584" style="stroke: #000000; stroke-width: 0.8"/>
      </g>
     </g>
     <g id="text_8">
      <!-- 350 -->
      <g transform="translate(403.480293 322.182437) scale(0.1 -0.1)">
       <use xlink:href="#DejaVuSans-33"/>
       <use xlink:href="#DejaVuSans-35" x="63.623047"/>
       <use xlink:href="#DejaVuSans-30" x="127.246094"/>
      </g>
     </g>
    </g>
    <g id="text_9">
     <!-- Sample number in given week -->
     <g transform="translate(160.077969 335.860562) scale(0.1 -0.1)">
      <defs>
       <path id="DejaVuSans-53" d="M 3425 4513 
L 3425 3897 
Q 3066 4069 2747 4153 
Q 2428 4238 2131 4238 
Q 1616 4238 1336 4038 
Q 1056 3838 1056 3469 
Q 1056 3159 1242 3001 
Q 1428 2844 1947 2747 
L 2328 2669 
Q 3034 2534 3370 2195 
Q 3706 1856 3706 1288 
Q 3706 609 3251 259 
Q 2797 -91 1919 -91 
Q 1588 -91 1214 -16 
Q 841 59 441 206 
L 441 856 
Q 825 641 1194 531 
Q 1563 422 1919 422 
Q 2459 422 2753 634 
Q 3047 847 3047 1241 
Q 3047 1584 2836 1778 
Q 2625 1972 2144 2069 
L 1759 2144 
Q 1053 2284 737 2584 
Q 422 2884 422 3419 
Q 422 4038 858 4394 
Q 1294 4750 2059 4750 
Q 2388 4750 2728 4690 
Q 3069 4631 3425 4513 
z
" transform="scale(0.015625)"/>
       <path id="DejaVuSans-61" d="M 2194 1759 
Q 1497 1759 1228 1600 
Q 959 1441 959 1056 
Q 959 750 1161 570 
Q 1363 391 1709 391 
Q 2188 391 2477 730 
Q 2766 1069 2766 1631 
L 2766 1759 
L 2194 1759 
z
M 3341 1997 
L 3341 0 
L 2766 0 
L 2766 531 
Q 2569 213 2275 61 
Q 1981 -91 1556 -91 
Q 1019 -91 701 211 
Q 384 513 384 1019 
Q 384 1609 779 1909 
Q 1175 2209 1959 2209 
L 2766 2209 
L 2766 2266 
Q 2766 2663 2505 2880 
Q 2244 3097 1772 3097 
Q 1472 3097 1187 3025 
Q 903 2953 641 2809 
L 641 3341 
Q 956 3463 1253 3523 
Q 1550 3584 1831 3584 
Q 2591 3584 2966 3190 
Q 3341 2797 3341 1997 
z
" transform="scale(0.015625)"/>
       <path id="DejaVuSans-6d" d="M 3328 2828 
Q 3544 3216 3844 3400 
Q 4144 3584 4550 3584 
Q 5097 3584 5394 3201 
Q 5691 2819 5691 2113 
L 5691 0 
L 5113 0 
L 5113 2094 
Q 5113 2597 4934 2840 
Q 4756 3084 4391 3084 
Q 3944 3084 3684 2787 
Q 3425 2491 3425 1978 
L 3425 0 
L 2847 0 
L 2847 2094 
Q 2847 2600 2669 2842 
Q 2491 3084 2119 3084 
Q 1678 3084 1418 2786 
Q 1159 2488 1159 1978 
L 1159 0 
L 581 0 
L 581 3500 
L 1159 3500 
L 1159 2956 
Q 1356 3278 1631 3431 
Q 1906 3584 2284 3584 
Q 2666 3584 2933 3390 
Q 3200 3197 3328 2828 
z
" transform="scale(0.015625)"/>
       <path id="DejaVuSans-70" d="M 1159 525 
L 1159 -1331 
L 581 -1331 
L 581 3500 
L 1159 3500 
L 1159 2969 
Q 1341 3281 1617 3432 
Q 1894 3584 2278 3584 
Q 2916 3584 3314 3078 
Q 3713 2572 3713 1747 
Q 3713 922 3314 415 
Q 2916 -91 2278 -91 
Q 1894 -91 1617 61 
Q 1341 213 1159 525 
z
M 3116 1747 
Q 3116 2381 2855 2742 
Q 2594 3103 2138 3103 
Q 1681 3103 1420 2742 
Q 1159 2381 1159 1747 
Q 1159 1113 1420 752 
Q 1681 391 2138 391 
Q 2594 391 2855 752 
Q 3116 1113 3116 1747 
z
" transform="scale(0.015625)"/>
       <path id="DejaVuSans-6c" d="M 603 4863 
L 1178 4863 
L 1178 0 
L 603 0 
L 603 4863 
z
" transform="scale(0.015625)"/>
       <path id="DejaVuSans-65" d="M 3597 1894 
L 3597 1613 
L 953 1613 
Q 991 1019 1311 708 
Q 1631 397 2203 397 
Q 2534 397 2845 478 
Q 3156 559 3463 722 
L 3463 178 
Q 3153 47 2828 -22 
Q 2503 -91 2169 -91 
Q 1331 -91 842 396 
Q 353 884 353 1716 
Q 353 2575 817 3079 
Q 1281 3584 2069 3584 
Q 2775 3584 3186 3129 
Q 3597 2675 3597 1894 
z
M 3022 2063 
Q 3016 2534 2758 2815 
Q 2500 3097 2075 3097 
Q 1594 3097 1305 2825 
Q 1016 2553 972 2059 
L 3022 2063 
z
" transform="scale(0.015625)"/>
       <path id="DejaVuSans-20" transform="scale(0.015625)"/>
       <path id="DejaVuSans-6e" d="M 3513 2113 
L 3513 0 
L 2938 0 
L 2938 2094 
Q 2938 2591 2744 2837 
Q 2550 3084 2163 3084 
Q 1697 3084 1428 2787 
Q 1159 2491 1159 1978 
L 1159 0 
L 581 0 
L 581 3500 
L 1159 3500 
L 1159 2956 
Q 1366 3272 1645 3428 
Q 1925 3584 2291 3584 
Q 2894 3584 3203 3211 
Q 3513 2838 3513 2113 
z
" transform="scale(0.015625)"/>
       <path id="DejaVuSans-75" d="M 544 1381 
L 544 3500 
L 1119 3500 
L 1119 1403 
Q 1119 906 1312 657 
Q 1506 409 1894 409 
Q 2359 409 2629 706 
Q 2900 1003 2900 1516 
L 2900 3500 
L 3475 3500 
L 3475 0 
L 2900 0 
L 2900 538 
Q 2691 219 2414 64 
Q 2138 -91 1772 -91 
Q 1169 -91 856 284 
Q 544 659 544 1381 
z
M 1991 3584 
L 1991 3584 
z
" transform="scale(0.015625)"/>
       <path id="DejaVuSans-62" d="M 3116 1747 
Q 3116 2381 2855 2742 
Q 2594 3103 2138 3103 
Q 1681 3103 1420 2742 
Q 1159 2381 1159 1747 
Q 1159 1113 1420 752 
Q 1681 391 2138 391 
Q 2594 391 2855 752 
Q 3116 1113 3116 1747 
z
M 1159 2969 
Q 1341 3281 1617 3432 
Q 1894 3584 2278 3584 
Q 2916 3584 3314 3078 
Q 3713 2572 3713 1747 
Q 3713 922 3314 415 
Q 2916 -91 2278 -91 
Q 1894 -91 1617 61 
Q 1341 213 1159 525 
L 1159 0 
L 581 0 
L 581 4863 
L 1159 4863 
L 1159 2969 
z
" transform="scale(0.015625)"/>
       <path id="DejaVuSans-72" d="M 2631 2963 
Q 2534 3019 2420 3045 
Q 2306 3072 2169 3072 
Q 1681 3072 1420 2755 
Q 1159 2438 1159 1844 
L 1159 0 
L 581 0 
L 581 3500 
L 1159 3500 
L 1159 2956 
Q 1341 3275 1631 3429 
Q 1922 3584 2338 3584 
Q 2397 3584 2469 3576 
Q 2541 3569 2628 3553 
L 2631 2963 
z
" transform="scale(0.015625)"/>
       <path id="DejaVuSans-69" d="M 603 3500 
L 1178 3500 
L 1178 0 
L 603 0 
L 603 3500 
z
M 603 4863 
L 1178 4863 
L 1178 4134 
L 603 4134 
L 603 4863 
z
" transform="scale(0.015625)"/>
       <path id="DejaVuSans-67" d="M 2906 1791 
Q 2906 2416 2648 2759 
Q 2391 3103 1925 3103 
Q 1463 3103 1205 2759 
Q 947 2416 947 1791 
Q 947 1169 1205 825 
Q 1463 481 1925 481 
Q 2391 481 2648 825 
Q 2906 1169 2906 1791 
z
M 3481 434 
Q 3481 -459 3084 -895 
Q 2688 -1331 1869 -1331 
Q 1566 -1331 1297 -1286 
Q 1028 -1241 775 -1147 
L 775 -588 
Q 1028 -725 1275 -790 
Q 1522 -856 1778 -856 
Q 2344 -856 2625 -561 
Q 2906 -266 2906 331 
L 2906 616 
Q 2728 306 2450 153 
Q 2172 0 1784 0 
Q 1141 0 747 490 
Q 353 981 353 1791 
Q 353 2603 747 3093 
Q 1141 3584 1784 3584 
Q 2172 3584 2450 3431 
Q 2728 3278 2906 2969 
L 2906 3500 
L 3481 3500 
L 3481 434 
z
" transform="scale(0.015625)"/>
       <path id="DejaVuSans-76" d="M 191 3500 
L 800 3500 
L 1894 563 
L 2988 3500 
L 3597 3500 
L 2284 0 
L 1503 0 
L 191 3500 
z
" transform="scale(0.015625)"/>
       <path id="DejaVuSans-77" d="M 269 3500 
L 844 3500 
L 1563 769 
L 2278 3500 
L 2956 3500 
L 3675 769 
L 4391 3500 
L 4966 3500 
L 4050 0 
L 3372 0 
L 2619 2869 
L 1863 0 
L 1184 0 
L 269 3500 
z
" transform="scale(0.015625)"/>
       <path id="DejaVuSans-6b" d="M 581 4863 
L 1159 4863 
L 1159 1991 
L 2875 3500 
L 3609 3500 
L 1753 1863 
L 3688 0 
L 2938 0 
L 1159 1709 
L 1159 0 
L 581 0 
L 581 4863 
z
" transform="scale(0.015625)"/>
      </defs>
      <use xlink:href="#DejaVuSans-53"/>
      <use xlink:href="#DejaVuSans-61" x="63.476562"/>
      <use xlink:href="#DejaVuSans-6d" x="124.755859"/>
      <use xlink:href="#DejaVuSans-70" x="222.167969"/>
      <use xlink:href="#DejaVuSans-6c" x="285.644531"/>
      <use xlink:href="#DejaVuSans-65" x="313.427734"/>
      <use xlink:href="#DejaVuSans-20" x="374.951172"/>
      <use xlink:href="#DejaVuSans-6e" x="406.738281"/>
      <use xlink:href="#DejaVuSans-75" x="470.117188"/>
      <use xlink:href="#DejaVuSans-6d" x="533.496094"/>
      <use xlink:href="#DejaVuSans-62" x="630.908203"/>
      <use xlink:href="#DejaVuSans-65" x="694.384766"/>
      <use xlink:href="#DejaVuSans-72" x="755.908203"/>
      <use xlink:href="#DejaVuSans-20" x="797.021484"/>
      <use xlink:href="#DejaVuSans-69" x="828.808594"/>
      <use xlink:href="#DejaVuSans-6e" x="856.591797"/>
      <use xlink:href="#DejaVuSans-20" x="919.970703"/>
      <use xlink:href="#DejaVuSans-67" x="951.757812"/>
      <use xlink:href="#DejaVuSans-69" x="1015.234375"/>
      <use xlink:href="#DejaVuSans-76" x="1043.017578"/>
      <use xlink:href="#DejaVuSans-65" x="1102.197266"/>
      <use xlink:href="#DejaVuSans-6e" x="1163.720703"/>
      <use xlink:href="#DejaVuSans-20" x="1227.099609"/>
      <use xlink:href="#DejaVuSans-77" x="1258.886719"/>
      <use xlink:href="#DejaVuSans-65" x="1340.673828"/>
      <use xlink:href="#DejaVuSans-65" x="1402.197266"/>
      <use xlink:href="#DejaVuSans-6b" x="1463.720703"/>
     </g>
    </g>
   </g>
   <g id="matplotlib.axis_2">
    <g id="ytick_1">
     <g id="line2d_9">
      <defs>
       <path id="m4afece71ee" d="M 0 0 
L -3.5 0 
" style="stroke: #000000; stroke-width: 0.8"/>
      </defs>
      <g>
       <use xlink:href="#m4afece71ee" x="57.6" y="268.608956" style="stroke: #000000; stroke-width: 0.8"/>
      </g>
     </g>
     <g id="text_10">
      <!-- 5000 -->
      <g transform="translate(25.15 272.408175) scale(0.1 -0.1)">
       <use xlink:href="#DejaVuSans-35"/>
       <use xlink:href="#DejaVuSans-30" x="63.623047"/>
       <use xlink:href="#DejaVuSans-30" x="127.246094"/>
       <use xlink:href="#DejaVuSans-30" x="190.869141"/>
      </g>
     </g>
    </g>
    <g id="ytick_2">
     <g id="line2d_10">
      <g>
       <use xlink:href="#m4afece71ee" x="57.6" y="225.574945" style="stroke: #000000; stroke-width: 0.8"/>
      </g>
     </g>
     <g id="text_11">
      <!-- 10000 -->
      <g transform="translate(18.7875 229.374163) scale(0.1 -0.1)">
       <use xlink:href="#DejaVuSans-31"/>
       <use xlink:href="#DejaVuSans-30" x="63.623047"/>
       <use xlink:href="#DejaVuSans-30" x="127.246094"/>
       <use xlink:href="#DejaVuSans-30" x="190.869141"/>
       <use xlink:href="#DejaVuSans-30" x="254.492188"/>
      </g>
     </g>
    </g>
    <g id="ytick_3">
     <g id="line2d_11">
      <g>
       <use xlink:href="#m4afece71ee" x="57.6" y="182.540933" style="stroke: #000000; stroke-width: 0.8"/>
      </g>
     </g>
     <g id="text_12">
      <!-- 15000 -->
      <g transform="translate(18.7875 186.340152) scale(0.1 -0.1)">
       <use xlink:href="#DejaVuSans-31"/>
       <use xlink:href="#DejaVuSans-35" x="63.623047"/>
       <use xlink:href="#DejaVuSans-30" x="127.246094"/>
       <use xlink:href="#DejaVuSans-30" x="190.869141"/>
       <use xlink:href="#DejaVuSans-30" x="254.492188"/>
      </g>
     </g>
    </g>
    <g id="ytick_4">
     <g id="line2d_12">
      <g>
       <use xlink:href="#m4afece71ee" x="57.6" y="139.506921" style="stroke: #000000; stroke-width: 0.8"/>
      </g>
     </g>
     <g id="text_13">
      <!-- 20000 -->
      <g transform="translate(18.7875 143.30614) scale(0.1 -0.1)">
       <use xlink:href="#DejaVuSans-32"/>
       <use xlink:href="#DejaVuSans-30" x="63.623047"/>
       <use xlink:href="#DejaVuSans-30" x="127.246094"/>
       <use xlink:href="#DejaVuSans-30" x="190.869141"/>
       <use xlink:href="#DejaVuSans-30" x="254.492188"/>
      </g>
     </g>
    </g>
    <g id="ytick_5">
     <g id="line2d_13">
      <g>
       <use xlink:href="#m4afece71ee" x="57.6" y="96.47291" style="stroke: #000000; stroke-width: 0.8"/>
      </g>
     </g>
     <g id="text_14">
      <!-- 25000 -->
      <g transform="translate(18.7875 100.272128) scale(0.1 -0.1)">
       <use xlink:href="#DejaVuSans-32"/>
       <use xlink:href="#DejaVuSans-35" x="63.623047"/>
       <use xlink:href="#DejaVuSans-30" x="127.246094"/>
       <use xlink:href="#DejaVuSans-30" x="190.869141"/>
       <use xlink:href="#DejaVuSans-30" x="254.492188"/>
      </g>
     </g>
    </g>
    <g id="ytick_6">
     <g id="line2d_14">
      <g>
       <use xlink:href="#m4afece71ee" x="57.6" y="53.438898" style="stroke: #000000; stroke-width: 0.8"/>
      </g>
     </g>
     <g id="text_15">
      <!-- 30000 -->
      <g transform="translate(18.7875 57.238117) scale(0.1 -0.1)">
       <use xlink:href="#DejaVuSans-33"/>
       <use xlink:href="#DejaVuSans-30" x="63.623047"/>
       <use xlink:href="#DejaVuSans-30" x="127.246094"/>
       <use xlink:href="#DejaVuSans-30" x="190.869141"/>
       <use xlink:href="#DejaVuSans-30" x="254.492188"/>
      </g>
     </g>
    </g>
    <g id="text_16">
     <!-- Number of passengers in the 30min bucket -->
     <g transform="translate(12.707812 282.968625) rotate(-90) scale(0.1 -0.1)">
      <defs>
       <path id="DejaVuSans-4e" d="M 628 4666 
L 1478 4666 
L 3547 763 
L 3547 4666 
L 4159 4666 
L 4159 0 
L 3309 0 
L 1241 3903 
L 1241 0 
L 628 0 
L 628 4666 
z
" transform="scale(0.015625)"/>
       <path id="DejaVuSans-6f" d="M 1959 3097 
Q 1497 3097 1228 2736 
Q 959 2375 959 1747 
Q 959 1119 1226 758 
Q 1494 397 1959 397 
Q 2419 397 2687 759 
Q 2956 1122 2956 1747 
Q 2956 2369 2687 2733 
Q 2419 3097 1959 3097 
z
M 1959 3584 
Q 2709 3584 3137 3096 
Q 3566 2609 3566 1747 
Q 3566 888 3137 398 
Q 2709 -91 1959 -91 
Q 1206 -91 779 398 
Q 353 888 353 1747 
Q 353 2609 779 3096 
Q 1206 3584 1959 3584 
z
" transform="scale(0.015625)"/>
       <path id="DejaVuSans-66" d="M 2375 4863 
L 2375 4384 
L 1825 4384 
Q 1516 4384 1395 4259 
Q 1275 4134 1275 3809 
L 1275 3500 
L 2222 3500 
L 2222 3053 
L 1275 3053 
L 1275 0 
L 697 0 
L 697 3053 
L 147 3053 
L 147 3500 
L 697 3500 
L 697 3744 
Q 697 4328 969 4595 
Q 1241 4863 1831 4863 
L 2375 4863 
z
" transform="scale(0.015625)"/>
       <path id="DejaVuSans-73" d="M 2834 3397 
L 2834 2853 
Q 2591 2978 2328 3040 
Q 2066 3103 1784 3103 
Q 1356 3103 1142 2972 
Q 928 2841 928 2578 
Q 928 2378 1081 2264 
Q 1234 2150 1697 2047 
L 1894 2003 
Q 2506 1872 2764 1633 
Q 3022 1394 3022 966 
Q 3022 478 2636 193 
Q 2250 -91 1575 -91 
Q 1294 -91 989 -36 
Q 684 19 347 128 
L 347 722 
Q 666 556 975 473 
Q 1284 391 1588 391 
Q 1994 391 2212 530 
Q 2431 669 2431 922 
Q 2431 1156 2273 1281 
Q 2116 1406 1581 1522 
L 1381 1569 
Q 847 1681 609 1914 
Q 372 2147 372 2553 
Q 372 3047 722 3315 
Q 1072 3584 1716 3584 
Q 2034 3584 2315 3537 
Q 2597 3491 2834 3397 
z
" transform="scale(0.015625)"/>
       <path id="DejaVuSans-74" d="M 1172 4494 
L 1172 3500 
L 2356 3500 
L 2356 3053 
L 1172 3053 
L 1172 1153 
Q 1172 725 1289 603 
Q 1406 481 1766 481 
L 2356 481 
L 2356 0 
L 1766 0 
Q 1100 0 847 248 
Q 594 497 594 1153 
L 594 3053 
L 172 3053 
L 172 3500 
L 594 3500 
L 594 4494 
L 1172 4494 
z
" transform="scale(0.015625)"/>
       <path id="DejaVuSans-68" d="M 3513 2113 
L 3513 0 
L 2938 0 
L 2938 2094 
Q 2938 2591 2744 2837 
Q 2550 3084 2163 3084 
Q 1697 3084 1428 2787 
Q 1159 2491 1159 1978 
L 1159 0 
L 581 0 
L 581 4863 
L 1159 4863 
L 1159 2956 
Q 1366 3272 1645 3428 
Q 1925 3584 2291 3584 
Q 2894 3584 3203 3211 
Q 3513 2838 3513 2113 
z
" transform="scale(0.015625)"/>
       <path id="DejaVuSans-63" d="M 3122 3366 
L 3122 2828 
Q 2878 2963 2633 3030 
Q 2388 3097 2138 3097 
Q 1578 3097 1268 2742 
Q 959 2388 959 1747 
Q 959 1106 1268 751 
Q 1578 397 2138 397 
Q 2388 397 2633 464 
Q 2878 531 3122 666 
L 3122 134 
Q 2881 22 2623 -34 
Q 2366 -91 2075 -91 
Q 1284 -91 818 406 
Q 353 903 353 1747 
Q 353 2603 823 3093 
Q 1294 3584 2113 3584 
Q 2378 3584 2631 3529 
Q 2884 3475 3122 3366 
z
" transform="scale(0.015625)"/>
      </defs>
      <use xlink:href="#DejaVuSans-4e"/>
      <use xlink:href="#DejaVuSans-75" x="74.804688"/>
      <use xlink:href="#DejaVuSans-6d" x="138.183594"/>
      <use xlink:href="#DejaVuSans-62" x="235.595703"/>
      <use xlink:href="#DejaVuSans-65" x="299.072266"/>
      <use xlink:href="#DejaVuSans-72" x="360.595703"/>
      <use xlink:href="#DejaVuSans-20" x="401.708984"/>
      <use xlink:href="#DejaVuSans-6f" x="433.496094"/>
      <use xlink:href="#DejaVuSans-66" x="494.677734"/>
      <use xlink:href="#DejaVuSans-20" x="529.882812"/>
      <use xlink:href="#DejaVuSans-70" x="561.669922"/>
      <use xlink:href="#DejaVuSans-61" x="625.146484"/>
      <use xlink:href="#DejaVuSans-73" x="686.425781"/>
      <use xlink:href="#DejaVuSans-73" x="738.525391"/>
      <use xlink:href="#DejaVuSans-65" x="790.625"/>
      <use xlink:href="#DejaVuSans-6e" x="852.148438"/>
      <use xlink:href="#DejaVuSans-67" x="915.527344"/>
      <use xlink:href="#DejaVuSans-65" x="979.003906"/>
      <use xlink:href="#DejaVuSans-72" x="1040.527344"/>
      <use xlink:href="#DejaVuSans-73" x="1081.640625"/>
      <use xlink:href="#DejaVuSans-20" x="1133.740234"/>
      <use xlink:href="#DejaVuSans-69" x="1165.527344"/>
      <use xlink:href="#DejaVuSans-6e" x="1193.310547"/>
      <use xlink:href="#DejaVuSans-20" x="1256.689453"/>
      <use xlink:href="#DejaVuSans-74" x="1288.476562"/>
      <use xlink:href="#DejaVuSans-68" x="1327.685547"/>
      <use xlink:href="#DejaVuSans-65" x="1391.064453"/>
      <use xlink:href="#DejaVuSans-20" x="1452.587891"/>
      <use xlink:href="#DejaVuSans-33" x="1484.375"/>
      <use xlink:href="#DejaVuSans-30" x="1547.998047"/>
      <use xlink:href="#DejaVuSans-6d" x="1611.621094"/>
      <use xlink:href="#DejaVuSans-69" x="1709.033203"/>
      <use xlink:href="#DejaVuSans-6e" x="1736.816406"/>
      <use xlink:href="#DejaVuSans-20" x="1800.195312"/>
      <use xlink:href="#DejaVuSans-62" x="1831.982422"/>
      <use xlink:href="#DejaVuSans-75" x="1895.458984"/>
      <use xlink:href="#DejaVuSans-63" x="1958.837891"/>
      <use xlink:href="#DejaVuSans-6b" x="2013.818359"/>
      <use xlink:href="#DejaVuSans-65" x="2068.103516"/>
      <use xlink:href="#DejaVuSans-74" x="2129.626953"/>
     </g>
    </g>
   </g>
   <g id="line2d_15">
    <path d="M 73.832727 218.310803 
L 74.801845 241.695485 
L 75.770963 258.194725 
L 76.740081 271.569696 
L 77.709199 278.764983 
L 78.678318 286.915625 
L 79.647436 291.253453 
L 80.616554 293.878528 
L 81.585672 292.52726 
L 82.55479 293.069489 
L 83.523908 289.99686 
L 84.493026 274.082883 
L 85.462144 255.474976 
L 86.431262 216.632477 
L 87.40038 192.378508 
L 89.338616 157.40907 
L 90.307734 136.528968 
L 91.276852 143.474657 
L 92.24597 138.585993 
L 93.215088 148.251432 
L 94.184206 159.130431 
L 95.153324 163.184235 
L 96.122442 152.735576 
L 97.09156 148.905549 
L 98.060678 149.094899 
L 99.029796 155.188515 
L 99.998915 144.163201 
L 100.968033 143.41441 
L 101.937151 134.420301 
L 102.906269 144.843139 
L 103.875387 152.038426 
L 104.844505 171.97178 
L 105.813623 182.429045 
L 107.751859 143.595152 
L 108.720977 113.979146 
L 109.690095 74.112437 
L 110.659213 80.748282 
L 112.597449 114.762365 
L 113.566567 136.115841 
L 114.535685 110.235187 
L 115.504803 101.301326 
L 116.473921 110.949551 
L 118.412157 138.611814 
L 119.381275 172.978776 
L 120.350393 196.570021 
L 121.319512 226.048319 
L 122.28863 246.480868 
L 123.257748 260.716519 
L 125.195984 280.365848 
L 126.165102 285.882809 
L 127.13422 289.824724 
L 128.103338 289.523486 
L 129.072456 290.255064 
L 130.041574 286.958659 
L 131.010692 273.06728 
L 131.97981 253.219994 
L 132.948928 216.296812 
L 133.918046 193.480179 
L 134.887164 167.909369 
L 135.856282 146.771062 
L 136.8254 139.911441 
L 137.794518 143.793109 
L 138.763636 148.165364 
L 139.732754 162.650613 
L 140.701872 157.546779 
L 141.670991 164.182624 
L 142.640109 151.651119 
L 143.609227 146.960412 
L 144.578345 145.884562 
L 145.547463 150.979789 
L 146.516581 147.442393 
L 147.485699 152.021212 
L 148.454817 151.616692 
L 149.423935 157.00455 
L 150.393053 168.563486 
L 151.362171 185.691023 
L 152.331289 192.111697 
L 153.300407 161.626403 
L 154.269525 122.990468 
L 155.238643 108.238408 
L 156.207761 100.673029 
L 157.176879 97.445478 
L 158.145997 80.360976 
L 159.115115 122.215855 
L 160.084233 154.491364 
L 161.053351 132.24278 
L 162.022469 117.335798 
L 162.991588 118.841989 
L 163.960706 147.631743 
L 164.929824 160.869005 
L 165.898942 179.898645 
L 166.86806 202.801346 
L 168.806296 239.20812 
L 172.682768 283.498724 
L 173.651886 286.270115 
L 174.621004 284.565968 
L 176.55924 285.822561 
L 177.528358 272.120532 
L 178.497476 255.819248 
L 179.466594 224.602376 
L 181.40483 186.207431 
L 183.343066 148.888336 
L 184.312185 153.708145 
L 186.250421 173.099271 
L 187.219539 170.413948 
L 188.188657 174.855058 
L 190.126893 160.12882 
L 191.096011 150.997002 
L 192.065129 147.726418 
L 193.034247 145.867348 
L 194.003365 144.989454 
L 194.972483 147.442393 
L 195.941601 155.059413 
L 196.910719 168.468811 
L 197.879837 185.854552 
L 198.848955 193.221975 
L 199.818073 165.258474 
L 200.787191 142.992676 
L 201.756309 128.077088 
L 202.725427 116.60422 
L 203.694545 53.568 
L 204.663664 126.588111 
L 205.632782 116.406264 
L 206.6019 120.675238 
L 207.571018 116.587007 
L 208.540136 143.182026 
L 209.509254 164.156803 
L 210.478372 168.718408 
L 211.44749 172.505401 
L 212.416608 173.761995 
L 213.385726 177.454313 
L 214.354844 187.748048 
L 215.323962 203.756701 
L 216.29308 214.033223 
L 217.262198 225.747081 
L 218.231316 239.311401 
L 219.200434 249.673991 
L 220.169552 255.027422 
L 221.13867 262.954287 
L 222.107788 273.136134 
L 223.076906 281.872039 
L 224.046024 283.447084 
L 225.015142 280.701514 
L 226.953379 270.089326 
L 227.922497 269.24586 
L 228.891615 267.188834 
L 229.860733 261.930078 
L 230.829851 248.486252 
L 231.798969 244.174244 
L 232.768087 237.426511 
L 233.737205 227.890174 
L 234.706323 216.761579 
L 235.675441 197.766366 
L 236.644559 194.478568 
L 237.613677 193.411324 
L 238.582795 177.600628 
L 239.551913 189.202598 
L 240.521031 152.589261 
L 241.490149 154.439723 
L 242.459267 168.985219 
L 243.428385 170.345094 
L 244.397503 185.097153 
L 246.335739 207.457626 
L 247.304858 211.149944 
L 248.273976 178.34942 
L 249.243094 181.878209 
L 250.212212 182.54954 
L 251.18133 186.956223 
L 252.150448 187.575912 
L 253.119566 192.903523 
L 254.088684 190.83789 
L 255.057802 190.966992 
L 256.02692 177.437099 
L 256.996038 168.864724 
L 257.965156 156.858235 
L 258.934274 156.419288 
L 259.903392 160.36981 
L 260.87251 172.307445 
L 264.748982 232.88212 
L 265.7181 242.702481 
L 266.687218 250.569099 
L 267.656336 256.499185 
L 268.625455 273.592295 
L 269.594573 284.738104 
L 270.563691 290.005467 
L 271.532809 289.695622 
L 272.501927 284.548754 
L 273.471045 280.159285 
L 274.440163 274.246412 
L 275.409281 271.345919 
L 276.378399 257.867667 
L 277.347517 247.487863 
L 278.316635 234.095679 
L 280.254871 212.768023 
L 281.223989 211.847095 
L 282.193107 198.911071 
L 283.162225 202.999302 
L 284.131343 199.487727 
L 285.100461 197.490949 
L 286.069579 196.750764 
L 287.038697 192.679746 
L 288.007815 193.592067 
L 288.976934 191.844886 
L 289.946052 189.400554 
L 290.91517 198.21392 
L 291.884288 193.660922 
L 292.853406 192.034236 
L 293.822524 184.778702 
L 294.791642 186.198824 
L 295.76076 173.202552 
L 296.729878 155.154088 
L 297.698996 166.523674 
L 298.668114 189.942783 
L 299.637232 187.042291 
L 300.60635 180.01914 
L 301.575468 178.607624 
L 302.544586 173.521004 
L 303.513704 161.221884 
L 304.482822 170.568871 
L 305.45194 165.275687 
L 306.421058 178.865828 
L 307.390176 185.854552 
L 308.359294 198.687294 
L 309.328412 206.45063 
L 310.297531 215.814831 
L 311.266649 232.933761 
L 312.235767 237.417905 
L 314.174003 249.958016 
L 315.143121 270.287283 
L 316.112239 284.93606 
L 317.081357 288.654199 
L 318.050475 290.039894 
L 319.019593 286.536926 
L 319.988711 284.195875 
L 320.957829 276.294831 
L 321.926947 276.165729 
L 322.896065 262.980108 
L 323.865183 256.903705 
L 324.834301 239.294188 
L 325.803419 230.980017 
L 326.772537 216.391487 
L 327.741655 211.847095 
L 328.710773 200.537757 
L 329.679891 193.600674 
L 330.649009 194.17733 
L 331.618128 188.600122 
L 332.587246 184.279507 
L 333.556364 178.469915 
L 334.525482 173.658713 
L 335.4946 185.458639 
L 336.463718 183.952449 
L 337.432836 193.729776 
L 339.371072 179.167066 
L 340.34019 166.48064 
L 341.309308 166.248256 
L 342.278426 166.385965 
L 343.247544 165.112158 
L 344.216662 174.93252 
L 345.18578 186.956223 
L 346.154898 189.779254 
L 347.124016 172.772212 
L 348.093134 172.514008 
L 349.062252 190.932565 
L 350.03137 191.405939 
L 351.000488 198.050391 
L 351.969607 213.912727 
L 352.938725 236.978958 
L 353.907843 249.846127 
L 354.876961 267.076945 
L 355.846079 280.159285 
L 356.815197 284.26473 
L 357.784315 290.969429 
L 358.753433 294.911344 
L 359.722551 295.488 
L 360.691669 292.217415 
L 361.660787 292.019459 
L 362.629905 289.480452 
L 363.599023 275.718175 
L 364.568141 257.0242 
L 365.537259 220.462504 
L 367.475495 183.461861 
L 368.444613 169.888934 
L 369.413731 148.130937 
L 370.382849 158.510741 
L 371.351967 170.525837 
L 372.321085 190.046065 
L 373.290204 189.76204 
L 374.259322 189.822288 
L 375.22844 181.90403 
L 376.197558 180.922854 
L 377.166676 178.383847 
L 378.135794 179.631834 
L 379.104912 171.851284 
L 381.043148 166.317111 
L 382.012266 166.842126 
L 384.91962 181.404835 
L 385.888738 161.023927 
L 386.857856 146.676388 
L 387.826974 127.474612 
L 388.796092 119.005518 
L 389.76521 119.96948 
L 391.703446 149.628521 
L 392.672564 157.503745 
L 393.641682 142.028714 
L 394.610801 147.545675 
L 396.549037 168.916365 
L 397.518155 182.928239 
L 398.487273 209.660967 
L 398.487273 209.660967 
" clip-path="url(#p6e61bf5b66)" style="fill: none; stroke: #1f77b4; stroke-width: 1.5; stroke-linecap: square"/>
   </g>
   <g id="patch_3">
    <path d="M 57.6 307.584 
L 57.6 41.472 
" style="fill: none; stroke: #000000; stroke-width: 0.8; stroke-linejoin: miter; stroke-linecap: square"/>
   </g>
   <g id="patch_4">
    <path d="M 414.72 307.584 
L 414.72 41.472 
" style="fill: none; stroke: #000000; stroke-width: 0.8; stroke-linejoin: miter; stroke-linecap: square"/>
   </g>
   <g id="patch_5">
    <path d="M 57.6 307.584 
L 414.72 307.584 
" style="fill: none; stroke: #000000; stroke-width: 0.8; stroke-linejoin: miter; stroke-linecap: square"/>
   </g>
   <g id="patch_6">
    <path d="M 57.6 41.472 
L 414.72 41.472 
" style="fill: none; stroke: #000000; stroke-width: 0.8; stroke-linejoin: miter; stroke-linecap: square"/>
   </g>
   <g id="legend_1">
    <g id="patch_7">
     <path d="M 403.72 54.472 
L 407.72 54.472 
Q 409.72 54.472 409.72 52.472 
L 409.72 48.472 
Q 409.72 46.472 407.72 46.472 
L 403.72 46.472 
Q 401.72 46.472 401.72 48.472 
L 401.72 52.472 
Q 401.72 54.472 403.72 54.472 
z
" style="fill: #ffffff; opacity: 0.8; stroke: #cccccc; stroke-linejoin: miter"/>
    </g>
   </g>
  </g>
 </g>
 <defs>
  <clipPath id="p6e61bf5b66">
   <rect x="57.6" y="41.472" width="357.12" height="266.112"/>
  </clipPath>
 </defs>
</svg>
