<?xml version="1.0" encoding="utf-8" standalone="no"?>
<!DOCTYPE svg PUBLIC "-//W3C//DTD SVG 1.1//EN"
  "http://www.w3.org/Graphics/SVG/1.1/DTD/svg11.dtd">
<svg xmlns:xlink="http://www.w3.org/1999/xlink" width="460.8pt" height="345.6pt" viewBox="0 0 460.8 345.6" xmlns="http://www.w3.org/2000/svg" version="1.1">
 <metadata>
  <rdf:RDF xmlns:dc="http://purl.org/dc/elements/1.1/" xmlns:cc="http://creativecommons.org/ns#" xmlns:rdf="http://www.w3.org/1999/02/22-rdf-syntax-ns#">
   <cc:Work>
    <dc:type rdf:resource="http://purl.org/dc/dcmitype/StillImage"/>
    <dc:date>2023-02-15T18:57:49.947578</dc:date>
    <dc:format>image/svg+xml</dc:format>
    <dc:creator>
     <cc:Agent>
      <dc:title>Matplotlib v3.6.2, https://matplotlib.org/</dc:title>
     </cc:Agent>
    </dc:creator>
   </cc:Work>
  </rdf:RDF>
 </metadata>
 <defs>
  <style type="text/css">*{stroke-linejoin: round; stroke-linecap: butt}</style>
 </defs>
 <g id="figure_1">
  <g id="patch_1">
   <path d="M 0 345.6 
L 460.8 345.6 
L 460.8 0 
L 0 0 
z
" style="fill: #ffffff"/>
  </g>
  <g id="axes_1">
   <g id="patch_2">
    <path d="M 57.6 307.584 
L 414.72 307.584 
L 414.72 41.472 
L 57.6 41.472 
z
" style="fill: #ffffff"/>
   </g>
   <g id="matplotlib.axis_1">
    <g id="xtick_1">
     <g id="line2d_1">
      <defs>
       <path id="m1f9d59e496" d="M 0 0 
L 0 3.5 
" style="stroke: #000000; stroke-width: 0.8"/>
      </defs>
      <g>
       <use xlink:href="#m1f9d59e496" x="87.40038" y="307.584" style="stroke: #000000; stroke-width: 0.8"/>
      </g>
     </g>
     <g id="text_1">
      <!-- 9950 -->
      <g transform="translate(74.67538 322.182437) scale(0.1 -0.1)">
       <defs>
        <path id="DejaVuSans-39" d="M 703 97 
L 703 672 
Q 941 559 1184 500 
Q 1428 441 1663 441 
Q 2288 441 2617 861 
Q 2947 1281 2994 2138 
Q 2813 1869 2534 1725 
Q 2256 1581 1919 1581 
Q 1219 1581 811 2004 
Q 403 2428 403 3163 
Q 403 3881 828 4315 
Q 1253 4750 1959 4750 
Q 2769 4750 3195 4129 
Q 3622 3509 3622 2328 
Q 3622 1225 3098 567 
Q 2575 -91 1691 -91 
Q 1453 -91 1209 -44 
Q 966 3 703 97 
z
M 1959 2075 
Q 2384 2075 2632 2365 
Q 2881 2656 2881 3163 
Q 2881 3666 2632 3958 
Q 2384 4250 1959 4250 
Q 1534 4250 1286 3958 
Q 1038 3666 1038 3163 
Q 1038 2656 1286 2365 
Q 1534 2075 1959 2075 
z
" transform="scale(0.015625)"/>
        <path id="DejaVuSans-35" d="M 691 4666 
L 3169 4666 
L 3169 4134 
L 1269 4134 
L 1269 2991 
Q 1406 3038 1543 3061 
Q 1681 3084 1819 3084 
Q 2600 3084 3056 2656 
Q 3513 2228 3513 1497 
Q 3513 744 3044 326 
Q 2575 -91 1722 -91 
Q 1428 -91 1123 -41 
Q 819 9 494 109 
L 494 744 
Q 775 591 1075 516 
Q 1375 441 1709 441 
Q 2250 441 2565 725 
Q 2881 1009 2881 1497 
Q 2881 1984 2565 2268 
Q 2250 2553 1709 2553 
Q 1456 2553 1204 2497 
Q 953 2441 691 2322 
L 691 4666 
z
" transform="scale(0.015625)"/>
        <path id="DejaVuSans-30" d="M 2034 4250 
Q 1547 4250 1301 3770 
Q 1056 3291 1056 2328 
Q 1056 1369 1301 889 
Q 1547 409 2034 409 
Q 2525 409 2770 889 
Q 3016 1369 3016 2328 
Q 3016 3291 2770 3770 
Q 2525 4250 2034 4250 
z
M 2034 4750 
Q 2819 4750 3233 4129 
Q 3647 3509 3647 2328 
Q 3647 1150 3233 529 
Q 2819 -91 2034 -91 
Q 1250 -91 836 529 
Q 422 1150 422 2328 
Q 422 3509 836 4129 
Q 1250 4750 2034 4750 
z
" transform="scale(0.015625)"/>
       </defs>
       <use xlink:href="#DejaVuSans-39"/>
       <use xlink:href="#DejaVuSans-39" x="63.623047"/>
       <use xlink:href="#DejaVuSans-35" x="127.246094"/>
       <use xlink:href="#DejaVuSans-30" x="190.869141"/>
      </g>
     </g>
    </g>
    <g id="xtick_2">
     <g id="line2d_2">
      <g>
       <use xlink:href="#m1f9d59e496" x="135.856282" y="307.584" style="stroke: #000000; stroke-width: 0.8"/>
      </g>
     </g>
     <g id="text_2">
      <!-- 10000 -->
      <g transform="translate(119.950032 322.182437) scale(0.1 -0.1)">
       <defs>
        <path id="DejaVuSans-31" d="M 794 531 
L 1825 531 
L 1825 4091 
L 703 3866 
L 703 4441 
L 1819 4666 
L 2450 4666 
L 2450 531 
L 3481 531 
L 3481 0 
L 794 0 
L 794 531 
z
" transform="scale(0.015625)"/>
       </defs>
       <use xlink:href="#DejaVuSans-31"/>
       <use xlink:href="#DejaVuSans-30" x="63.623047"/>
       <use xlink:href="#DejaVuSans-30" x="127.246094"/>
       <use xlink:href="#DejaVuSans-30" x="190.869141"/>
       <use xlink:href="#DejaVuSans-30" x="254.492188"/>
      </g>
     </g>
    </g>
    <g id="xtick_3">
     <g id="line2d_3">
      <g>
       <use xlink:href="#m1f9d59e496" x="184.312185" y="307.584" style="stroke: #000000; stroke-width: 0.8"/>
      </g>
     </g>
     <g id="text_3">
      <!-- 10050 -->
      <g transform="translate(168.405935 322.182437) scale(0.1 -0.1)">
       <use xlink:href="#DejaVuSans-31"/>
       <use xlink:href="#DejaVuSans-30" x="63.623047"/>
       <use xlink:href="#DejaVuSans-30" x="127.246094"/>
       <use xlink:href="#DejaVuSans-35" x="190.869141"/>
       <use xlink:href="#DejaVuSans-30" x="254.492188"/>
      </g>
     </g>
    </g>
    <g id="xtick_4">
     <g id="line2d_4">
      <g>
       <use xlink:href="#m1f9d59e496" x="232.768087" y="307.584" style="stroke: #000000; stroke-width: 0.8"/>
      </g>
     </g>
     <g id="text_4">
      <!-- 10100 -->
      <g transform="translate(216.861837 322.182437) scale(0.1 -0.1)">
       <use xlink:href="#DejaVuSans-31"/>
       <use xlink:href="#DejaVuSans-30" x="63.623047"/>
       <use xlink:href="#DejaVuSans-31" x="127.246094"/>
       <use xlink:href="#DejaVuSans-30" x="190.869141"/>
       <use xlink:href="#DejaVuSans-30" x="254.492188"/>
      </g>
     </g>
    </g>
    <g id="xtick_5">
     <g id="line2d_5">
      <g>
       <use xlink:href="#m1f9d59e496" x="281.223989" y="307.584" style="stroke: #000000; stroke-width: 0.8"/>
      </g>
     </g>
     <g id="text_5">
      <!-- 10150 -->
      <g transform="translate(265.317739 322.182437) scale(0.1 -0.1)">
       <use xlink:href="#DejaVuSans-31"/>
       <use xlink:href="#DejaVuSans-30" x="63.623047"/>
       <use xlink:href="#DejaVuSans-31" x="127.246094"/>
       <use xlink:href="#DejaVuSans-35" x="190.869141"/>
       <use xlink:href="#DejaVuSans-30" x="254.492188"/>
      </g>
     </g>
    </g>
    <g id="xtick_6">
     <g id="line2d_6">
      <g>
       <use xlink:href="#m1f9d59e496" x="329.679891" y="307.584" style="stroke: #000000; stroke-width: 0.8"/>
      </g>
     </g>
     <g id="text_6">
      <!-- 10200 -->
      <g transform="translate(313.773641 322.182437) scale(0.1 -0.1)">
       <defs>
        <path id="DejaVuSans-32" d="M 1228 531 
L 3431 531 
L 3431 0 
L 469 0 
L 469 531 
Q 828 903 1448 1529 
Q 2069 2156 2228 2338 
Q 2531 2678 2651 2914 
Q 2772 3150 2772 3378 
Q 2772 3750 2511 3984 
Q 2250 4219 1831 4219 
Q 1534 4219 1204 4116 
Q 875 4013 500 3803 
L 500 4441 
Q 881 4594 1212 4672 
Q 1544 4750 1819 4750 
Q 2544 4750 2975 4387 
Q 3406 4025 3406 3419 
Q 3406 3131 3298 2873 
Q 3191 2616 2906 2266 
Q 2828 2175 2409 1742 
Q 1991 1309 1228 531 
z
" transform="scale(0.015625)"/>
       </defs>
       <use xlink:href="#DejaVuSans-31"/>
       <use xlink:href="#DejaVuSans-30" x="63.623047"/>
       <use xlink:href="#DejaVuSans-32" x="127.246094"/>
       <use xlink:href="#DejaVuSans-30" x="190.869141"/>
       <use xlink:href="#DejaVuSans-30" x="254.492188"/>
      </g>
     </g>
    </g>
    <g id="xtick_7">
     <g id="line2d_7">
      <g>
       <use xlink:href="#m1f9d59e496" x="378.135794" y="307.584" style="stroke: #000000; stroke-width: 0.8"/>
      </g>
     </g>
     <g id="text_7">
      <!-- 10250 -->
      <g transform="translate(362.229544 322.182437) scale(0.1 -0.1)">
       <use xlink:href="#DejaVuSans-31"/>
       <use xlink:href="#DejaVuSans-30" x="63.623047"/>
       <use xlink:href="#DejaVuSans-32" x="127.246094"/>
       <use xlink:href="#DejaVuSans-35" x="190.869141"/>
       <use xlink:href="#DejaVuSans-30" x="254.492188"/>
      </g>
     </g>
    </g>
    <g id="text_8">
     <!-- Anomaly on date: 2015-01-27 00:00:00 -->
     <g transform="translate(137.170937 335.860562) scale(0.1 -0.1)">
      <defs>
       <path id="DejaVuSans-41" d="M 2188 4044 
L 1331 1722 
L 3047 1722 
L 2188 4044 
z
M 1831 4666 
L 2547 4666 
L 4325 0 
L 3669 0 
L 3244 1197 
L 1141 1197 
L 716 0 
L 50 0 
L 1831 4666 
z
" transform="scale(0.015625)"/>
       <path id="DejaVuSans-6e" d="M 3513 2113 
L 3513 0 
L 2938 0 
L 2938 2094 
Q 2938 2591 2744 2837 
Q 2550 3084 2163 3084 
Q 1697 3084 1428 2787 
Q 1159 2491 1159 1978 
L 1159 0 
L 581 0 
L 581 3500 
L 1159 3500 
L 1159 2956 
Q 1366 3272 1645 3428 
Q 1925 3584 2291 3584 
Q 2894 3584 3203 3211 
Q 3513 2838 3513 2113 
z
" transform="scale(0.015625)"/>
       <path id="DejaVuSans-6f" d="M 1959 3097 
Q 1497 3097 1228 2736 
Q 959 2375 959 1747 
Q 959 1119 1226 758 
Q 1494 397 1959 397 
Q 2419 397 2687 759 
Q 2956 1122 2956 1747 
Q 2956 2369 2687 2733 
Q 2419 3097 1959 3097 
z
M 1959 3584 
Q 2709 3584 3137 3096 
Q 3566 2609 3566 1747 
Q 3566 888 3137 398 
Q 2709 -91 1959 -91 
Q 1206 -91 779 398 
Q 353 888 353 1747 
Q 353 2609 779 3096 
Q 1206 3584 1959 3584 
z
" transform="scale(0.015625)"/>
       <path id="DejaVuSans-6d" d="M 3328 2828 
Q 3544 3216 3844 3400 
Q 4144 3584 4550 3584 
Q 5097 3584 5394 3201 
Q 5691 2819 5691 2113 
L 5691 0 
L 5113 0 
L 5113 2094 
Q 5113 2597 4934 2840 
Q 4756 3084 4391 3084 
Q 3944 3084 3684 2787 
Q 3425 2491 3425 1978 
L 3425 0 
L 2847 0 
L 2847 2094 
Q 2847 2600 2669 2842 
Q 2491 3084 2119 3084 
Q 1678 3084 1418 2786 
Q 1159 2488 1159 1978 
L 1159 0 
L 581 0 
L 581 3500 
L 1159 3500 
L 1159 2956 
Q 1356 3278 1631 3431 
Q 1906 3584 2284 3584 
Q 2666 3584 2933 3390 
Q 3200 3197 3328 2828 
z
" transform="scale(0.015625)"/>
       <path id="DejaVuSans-61" d="M 2194 1759 
Q 1497 1759 1228 1600 
Q 959 1441 959 1056 
Q 959 750 1161 570 
Q 1363 391 1709 391 
Q 2188 391 2477 730 
Q 2766 1069 2766 1631 
L 2766 1759 
L 2194 1759 
z
M 3341 1997 
L 3341 0 
L 2766 0 
L 2766 531 
Q 2569 213 2275 61 
Q 1981 -91 1556 -91 
Q 1019 -91 701 211 
Q 384 513 384 1019 
Q 384 1609 779 1909 
Q 1175 2209 1959 2209 
L 2766 2209 
L 2766 2266 
Q 2766 2663 2505 2880 
Q 2244 3097 1772 3097 
Q 1472 3097 1187 3025 
Q 903 2953 641 2809 
L 641 3341 
Q 956 3463 1253 3523 
Q 1550 3584 1831 3584 
Q 2591 3584 2966 3190 
Q 3341 2797 3341 1997 
z
" transform="scale(0.015625)"/>
       <path id="DejaVuSans-6c" d="M 603 4863 
L 1178 4863 
L 1178 0 
L 603 0 
L 603 4863 
z
" transform="scale(0.015625)"/>
       <path id="DejaVuSans-79" d="M 2059 -325 
Q 1816 -950 1584 -1140 
Q 1353 -1331 966 -1331 
L 506 -1331 
L 506 -850 
L 844 -850 
Q 1081 -850 1212 -737 
Q 1344 -625 1503 -206 
L 1606 56 
L 191 3500 
L 800 3500 
L 1894 763 
L 2988 3500 
L 3597 3500 
L 2059 -325 
z
" transform="scale(0.015625)"/>
       <path id="DejaVuSans-20" transform="scale(0.015625)"/>
       <path id="DejaVuSans-64" d="M 2906 2969 
L 2906 4863 
L 3481 4863 
L 3481 0 
L 2906 0 
L 2906 525 
Q 2725 213 2448 61 
Q 2172 -91 1784 -91 
Q 1150 -91 751 415 
Q 353 922 353 1747 
Q 353 2572 751 3078 
Q 1150 3584 1784 3584 
Q 2172 3584 2448 3432 
Q 2725 3281 2906 2969 
z
M 947 1747 
Q 947 1113 1208 752 
Q 1469 391 1925 391 
Q 2381 391 2643 752 
Q 2906 1113 2906 1747 
Q 2906 2381 2643 2742 
Q 2381 3103 1925 3103 
Q 1469 3103 1208 2742 
Q 947 2381 947 1747 
z
" transform="scale(0.015625)"/>
       <path id="DejaVuSans-74" d="M 1172 4494 
L 1172 3500 
L 2356 3500 
L 2356 3053 
L 1172 3053 
L 1172 1153 
Q 1172 725 1289 603 
Q 1406 481 1766 481 
L 2356 481 
L 2356 0 
L 1766 0 
Q 1100 0 847 248 
Q 594 497 594 1153 
L 594 3053 
L 172 3053 
L 172 3500 
L 594 3500 
L 594 4494 
L 1172 4494 
z
" transform="scale(0.015625)"/>
       <path id="DejaVuSans-65" d="M 3597 1894 
L 3597 1613 
L 953 1613 
Q 991 1019 1311 708 
Q 1631 397 2203 397 
Q 2534 397 2845 478 
Q 3156 559 3463 722 
L 3463 178 
Q 3153 47 2828 -22 
Q 2503 -91 2169 -91 
Q 1331 -91 842 396 
Q 353 884 353 1716 
Q 353 2575 817 3079 
Q 1281 3584 2069 3584 
Q 2775 3584 3186 3129 
Q 3597 2675 3597 1894 
z
M 3022 2063 
Q 3016 2534 2758 2815 
Q 2500 3097 2075 3097 
Q 1594 3097 1305 2825 
Q 1016 2553 972 2059 
L 3022 2063 
z
" transform="scale(0.015625)"/>
       <path id="DejaVuSans-3a" d="M 750 794 
L 1409 794 
L 1409 0 
L 750 0 
L 750 794 
z
M 750 3309 
L 1409 3309 
L 1409 2516 
L 750 2516 
L 750 3309 
z
" transform="scale(0.015625)"/>
       <path id="DejaVuSans-2d" d="M 313 2009 
L 1997 2009 
L 1997 1497 
L 313 1497 
L 313 2009 
z
" transform="scale(0.015625)"/>
       <path id="DejaVuSans-37" d="M 525 4666 
L 3525 4666 
L 3525 4397 
L 1831 0 
L 1172 0 
L 2766 4134 
L 525 4134 
L 525 4666 
z
" transform="scale(0.015625)"/>
      </defs>
      <use xlink:href="#DejaVuSans-41"/>
      <use xlink:href="#DejaVuSans-6e" x="68.408203"/>
      <use xlink:href="#DejaVuSans-6f" x="131.787109"/>
      <use xlink:href="#DejaVuSans-6d" x="192.96875"/>
      <use xlink:href="#DejaVuSans-61" x="290.380859"/>
      <use xlink:href="#DejaVuSans-6c" x="351.660156"/>
      <use xlink:href="#DejaVuSans-79" x="379.443359"/>
      <use xlink:href="#DejaVuSans-20" x="438.623047"/>
      <use xlink:href="#DejaVuSans-6f" x="470.410156"/>
      <use xlink:href="#DejaVuSans-6e" x="531.591797"/>
      <use xlink:href="#DejaVuSans-20" x="594.970703"/>
      <use xlink:href="#DejaVuSans-64" x="626.757812"/>
      <use xlink:href="#DejaVuSans-61" x="690.234375"/>
      <use xlink:href="#DejaVuSans-74" x="751.513672"/>
      <use xlink:href="#DejaVuSans-65" x="790.722656"/>
      <use xlink:href="#DejaVuSans-3a" x="852.246094"/>
      <use xlink:href="#DejaVuSans-20" x="885.9375"/>
      <use xlink:href="#DejaVuSans-32" x="917.724609"/>
      <use xlink:href="#DejaVuSans-30" x="981.347656"/>
      <use xlink:href="#DejaVuSans-31" x="1044.970703"/>
      <use xlink:href="#DejaVuSans-35" x="1108.59375"/>
      <use xlink:href="#DejaVuSans-2d" x="1172.216797"/>
      <use xlink:href="#DejaVuSans-30" x="1208.300781"/>
      <use xlink:href="#DejaVuSans-31" x="1271.923828"/>
      <use xlink:href="#DejaVuSans-2d" x="1335.546875"/>
      <use xlink:href="#DejaVuSans-32" x="1371.630859"/>
      <use xlink:href="#DejaVuSans-37" x="1435.253906"/>
      <use xlink:href="#DejaVuSans-20" x="1498.876953"/>
      <use xlink:href="#DejaVuSans-30" x="1530.664062"/>
      <use xlink:href="#DejaVuSans-30" x="1594.287109"/>
      <use xlink:href="#DejaVuSans-3a" x="1657.910156"/>
      <use xlink:href="#DejaVuSans-30" x="1691.601562"/>
      <use xlink:href="#DejaVuSans-30" x="1755.224609"/>
      <use xlink:href="#DejaVuSans-3a" x="1818.847656"/>
      <use xlink:href="#DejaVuSans-30" x="1852.539062"/>
      <use xlink:href="#DejaVuSans-30" x="1916.162109"/>
     </g>
    </g>
   </g>
   <g id="matplotlib.axis_2">
    <g id="ytick_1">
     <g id="line2d_8">
      <defs>
       <path id="m9a045d3f91" d="M 0 0 
L -3.5 0 
" style="stroke: #000000; stroke-width: 0.8"/>
      </defs>
      <g>
       <use xlink:href="#m9a045d3f91" x="57.6" y="295.488" style="stroke: #000000; stroke-width: 0.8"/>
      </g>
     </g>
     <g id="text_9">
      <!-- 0.0 -->
      <g transform="translate(34.696875 299.287219) scale(0.1 -0.1)">
       <defs>
        <path id="DejaVuSans-2e" d="M 684 794 
L 1344 794 
L 1344 0 
L 684 0 
L 684 794 
z
" transform="scale(0.015625)"/>
       </defs>
       <use xlink:href="#DejaVuSans-30"/>
       <use xlink:href="#DejaVuSans-2e" x="63.623047"/>
       <use xlink:href="#DejaVuSans-30" x="95.410156"/>
      </g>
     </g>
    </g>
    <g id="ytick_2">
     <g id="line2d_9">
      <g>
       <use xlink:href="#m9a045d3f91" x="57.6" y="261.747999" style="stroke: #000000; stroke-width: 0.8"/>
      </g>
     </g>
     <g id="text_10">
      <!-- 0.1 -->
      <g transform="translate(34.696875 265.547218) scale(0.1 -0.1)">
       <use xlink:href="#DejaVuSans-30"/>
       <use xlink:href="#DejaVuSans-2e" x="63.623047"/>
       <use xlink:href="#DejaVuSans-31" x="95.410156"/>
      </g>
     </g>
    </g>
    <g id="ytick_3">
     <g id="line2d_10">
      <g>
       <use xlink:href="#m9a045d3f91" x="57.6" y="228.007998" style="stroke: #000000; stroke-width: 0.8"/>
      </g>
     </g>
     <g id="text_11">
      <!-- 0.2 -->
      <g transform="translate(34.696875 231.807217) scale(0.1 -0.1)">
       <use xlink:href="#DejaVuSans-30"/>
       <use xlink:href="#DejaVuSans-2e" x="63.623047"/>
       <use xlink:href="#DejaVuSans-32" x="95.410156"/>
      </g>
     </g>
    </g>
    <g id="ytick_4">
     <g id="line2d_11">
      <g>
       <use xlink:href="#m9a045d3f91" x="57.6" y="194.267997" style="stroke: #000000; stroke-width: 0.8"/>
      </g>
     </g>
     <g id="text_12">
      <!-- 0.3 -->
      <g transform="translate(34.696875 198.067216) scale(0.1 -0.1)">
       <defs>
        <path id="DejaVuSans-33" d="M 2597 2516 
Q 3050 2419 3304 2112 
Q 3559 1806 3559 1356 
Q 3559 666 3084 287 
Q 2609 -91 1734 -91 
Q 1441 -91 1130 -33 
Q 819 25 488 141 
L 488 750 
Q 750 597 1062 519 
Q 1375 441 1716 441 
Q 2309 441 2620 675 
Q 2931 909 2931 1356 
Q 2931 1769 2642 2001 
Q 2353 2234 1838 2234 
L 1294 2234 
L 1294 2753 
L 1863 2753 
Q 2328 2753 2575 2939 
Q 2822 3125 2822 3475 
Q 2822 3834 2567 4026 
Q 2313 4219 1838 4219 
Q 1578 4219 1281 4162 
Q 984 4106 628 3988 
L 628 4550 
Q 988 4650 1302 4700 
Q 1616 4750 1894 4750 
Q 2613 4750 3031 4423 
Q 3450 4097 3450 3541 
Q 3450 3153 3228 2886 
Q 3006 2619 2597 2516 
z
" transform="scale(0.015625)"/>
       </defs>
       <use xlink:href="#DejaVuSans-30"/>
       <use xlink:href="#DejaVuSans-2e" x="63.623047"/>
       <use xlink:href="#DejaVuSans-33" x="95.410156"/>
      </g>
     </g>
    </g>
    <g id="ytick_5">
     <g id="line2d_12">
      <g>
       <use xlink:href="#m9a045d3f91" x="57.6" y="160.527996" style="stroke: #000000; stroke-width: 0.8"/>
      </g>
     </g>
     <g id="text_13">
      <!-- 0.4 -->
      <g transform="translate(34.696875 164.327215) scale(0.1 -0.1)">
       <defs>
        <path id="DejaVuSans-34" d="M 2419 4116 
L 825 1625 
L 2419 1625 
L 2419 4116 
z
M 2253 4666 
L 3047 4666 
L 3047 1625 
L 3713 1625 
L 3713 1100 
L 3047 1100 
L 3047 0 
L 2419 0 
L 2419 1100 
L 313 1100 
L 313 1709 
L 2253 4666 
z
" transform="scale(0.015625)"/>
       </defs>
       <use xlink:href="#DejaVuSans-30"/>
       <use xlink:href="#DejaVuSans-2e" x="63.623047"/>
       <use xlink:href="#DejaVuSans-34" x="95.410156"/>
      </g>
     </g>
    </g>
    <g id="ytick_6">
     <g id="line2d_13">
      <g>
       <use xlink:href="#m9a045d3f91" x="57.6" y="126.787995" style="stroke: #000000; stroke-width: 0.8"/>
      </g>
     </g>
     <g id="text_14">
      <!-- 0.5 -->
      <g transform="translate(34.696875 130.587214) scale(0.1 -0.1)">
       <use xlink:href="#DejaVuSans-30"/>
       <use xlink:href="#DejaVuSans-2e" x="63.623047"/>
       <use xlink:href="#DejaVuSans-35" x="95.410156"/>
      </g>
     </g>
    </g>
    <g id="ytick_7">
     <g id="line2d_14">
      <g>
       <use xlink:href="#m9a045d3f91" x="57.6" y="93.047994" style="stroke: #000000; stroke-width: 0.8"/>
      </g>
     </g>
     <g id="text_15">
      <!-- 0.6 -->
      <g transform="translate(34.696875 96.847213) scale(0.1 -0.1)">
       <defs>
        <path id="DejaVuSans-36" d="M 2113 2584 
Q 1688 2584 1439 2293 
Q 1191 2003 1191 1497 
Q 1191 994 1439 701 
Q 1688 409 2113 409 
Q 2538 409 2786 701 
Q 3034 994 3034 1497 
Q 3034 2003 2786 2293 
Q 2538 2584 2113 2584 
z
M 3366 4563 
L 3366 3988 
Q 3128 4100 2886 4159 
Q 2644 4219 2406 4219 
Q 1781 4219 1451 3797 
Q 1122 3375 1075 2522 
Q 1259 2794 1537 2939 
Q 1816 3084 2150 3084 
Q 2853 3084 3261 2657 
Q 3669 2231 3669 1497 
Q 3669 778 3244 343 
Q 2819 -91 2113 -91 
Q 1303 -91 875 529 
Q 447 1150 447 2328 
Q 447 3434 972 4092 
Q 1497 4750 2381 4750 
Q 2619 4750 2861 4703 
Q 3103 4656 3366 4563 
z
" transform="scale(0.015625)"/>
       </defs>
       <use xlink:href="#DejaVuSans-30"/>
       <use xlink:href="#DejaVuSans-2e" x="63.623047"/>
       <use xlink:href="#DejaVuSans-36" x="95.410156"/>
      </g>
     </g>
    </g>
    <g id="ytick_8">
     <g id="line2d_15">
      <g>
       <use xlink:href="#m9a045d3f91" x="57.6" y="59.307993" style="stroke: #000000; stroke-width: 0.8"/>
      </g>
     </g>
     <g id="text_16">
      <!-- 0.7 -->
      <g transform="translate(34.696875 63.107212) scale(0.1 -0.1)">
       <use xlink:href="#DejaVuSans-30"/>
       <use xlink:href="#DejaVuSans-2e" x="63.623047"/>
       <use xlink:href="#DejaVuSans-37" x="95.410156"/>
      </g>
     </g>
    </g>
   </g>
   <g id="line2d_16">
    <path d="M 73.832727 87.007527 
L 74.801845 108.204262 
L 75.770963 120.300692 
L 76.740081 138.682101 
L 77.709199 172.750126 
L 78.678318 193.516383 
L 79.647436 207.351944 
L 81.585672 229.831503 
L 82.55479 254.041583 
L 83.523908 265.242619 
L 84.493026 269.977877 
L 85.462144 267.791049 
L 86.431262 258.329143 
L 87.40038 252.956778 
L 88.369498 240.447089 
L 89.338616 230.66663 
L 90.307734 208.729473 
L 91.276852 197.227102 
L 92.24597 165.871088 
L 93.215088 166.998941 
L 94.184206 153.395837 
L 95.153324 150.115595 
L 96.122442 123.839221 
L 97.09156 124.64852 
L 98.060678 120.051015 
L 99.029796 120.602027 
L 99.998915 127.128073 
L 100.968033 134.626999 
L 101.937151 131.837501 
L 102.906269 129.805645 
L 103.875387 129.177148 
L 104.844505 130.778526 
L 105.813623 131.183175 
L 106.782741 124.218042 
L 108.720977 97.562847 
L 109.690095 87.119452 
L 110.659213 70.201668 
L 111.628331 80.877521 
L 112.597449 112.664013 
L 113.566567 121.592126 
L 114.535685 121.747098 
L 115.504803 109.693716 
L 116.473921 85.853846 
L 118.412157 74.799173 
L 119.381275 72.328229 
L 120.350393 80.094051 
L 121.319512 90.881829 
L 122.28863 100.404001 
L 123.257748 115.927036 
L 124.226866 127.687694 
L 126.165102 164.157786 
L 127.13422 185.983018 
L 128.103338 203.589567 
L 129.072456 245.586996 
L 130.041574 263.426002 
L 131.010692 269.297721 
L 131.97981 271.510378 
L 132.948928 263.787604 
L 133.918046 261.041154 
L 134.887164 252.388547 
L 135.856282 249.461297 
L 136.8254 229.314929 
L 137.794518 215.505196 
L 138.763636 191.932224 
L 139.732754 179.69804 
L 140.701872 151.122914 
L 141.670991 150.589121 
L 142.640109 134.721704 
L 143.609227 128.686403 
L 144.578345 124.734615 
L 145.547463 126.051878 
L 146.516581 124.226651 
L 147.485699 125.371723 
L 148.454817 130.993765 
L 149.423935 139.345037 
L 150.393053 137.631735 
L 151.362171 141.62657 
L 152.331289 141.359674 
L 153.300407 141.721275 
L 154.269525 131.295099 
L 155.238643 126.060487 
L 156.207761 130.020884 
L 157.176879 141.936514 
L 158.145997 155.815123 
L 159.115115 167.231399 
L 160.084233 169.874533 
L 161.053351 178.888742 
L 162.022469 175.59989 
L 162.991588 189.022193 
L 163.960706 204.080311 
L 164.929824 209.77123 
L 165.898942 225.044588 
L 167.837178 251.209038 
L 168.806296 260.326561 
L 169.775414 267.946021 
L 171.71365 278.389416 
L 172.682768 278.449683 
L 173.651886 279.0954 
L 174.621004 276.994667 
L 175.590122 276.831086 
L 176.55924 271.820322 
L 178.497476 237.743687 
L 179.466594 195.884011 
L 180.435712 175.419089 
L 181.40483 143.021319 
L 182.373948 134.678656 
L 183.343066 132.63819 
L 184.312185 146.387656 
L 185.281303 158.441039 
L 186.250421 176.874105 
L 187.219539 175.840958 
L 188.188657 178.682112 
L 189.157775 174.213751 
L 190.126893 170.821585 
L 191.096011 171.338158 
L 192.065129 171.562007 
L 193.034247 168.591709 
L 194.003365 175.754862 
L 194.972483 197.132397 
L 195.941601 212.397146 
L 196.910719 229.426853 
L 197.879837 241.686865 
L 198.848955 248.03211 
L 199.818073 251.140161 
L 200.787191 250.072576 
L 201.756309 245.440633 
L 202.725427 247.46388 
L 203.694545 254.842272 
L 204.663664 257.657597 
L 206.6019 266.422129 
L 207.571018 267.980459 
L 208.540136 273.077318 
L 210.478372 288.100998 
L 211.44749 292.999837 
L 212.416608 293.92967 
L 213.385726 294.618435 
L 215.323962 295.212494 
L 218.231316 295.281371 
L 219.200434 295.488 
L 223.076906 295.376076 
L 224.046024 295.238323 
L 225.984261 294.635654 
L 227.922497 292.698503 
L 228.891615 290.649428 
L 229.860733 286.525449 
L 230.829851 281.876287 
L 232.768087 270.201725 
L 233.737205 265.044599 
L 234.706323 262.186226 
L 235.675441 256.512526 
L 236.644559 253.172017 
L 237.613677 251.15738 
L 238.582795 250.158672 
L 239.551913 247.481099 
L 240.521031 245.853892 
L 241.490149 239.000683 
L 243.428385 231.846139 
L 244.397503 227.007567 
L 245.366621 220.137139 
L 247.304858 202.031236 
L 248.273976 186.327401 
L 249.243094 187.584396 
L 250.212212 192.526283 
L 251.18133 202.461714 
L 252.150448 205.853881 
L 253.119566 208.324824 
L 254.088684 204.588275 
L 255.057802 200.223229 
L 256.02692 204.648542 
L 256.996038 217.029088 
L 257.965156 220.653713 
L 258.934274 236.288672 
L 260.87251 261.110031 
L 261.841628 269.392426 
L 262.810746 274.627038 
L 263.779864 278.294711 
L 265.7181 284.36445 
L 266.687218 284.54525 
L 267.656336 283.443227 
L 268.625455 283.908143 
L 269.594573 279.310639 
L 270.563691 263.580974 
L 271.532809 243.73594 
L 272.501927 199.060939 
L 273.471045 174.480647 
L 274.440163 144.269705 
L 275.409281 134.162082 
L 276.378399 137.166818 
L 277.347517 145.492262 
L 278.316635 157.82976 
L 279.285753 175.884006 
L 280.254871 173.83493 
L 281.223989 180.524558 
L 282.193107 173.679958 
L 283.162225 174.377333 
L 284.131343 175.99593 
L 285.100461 178.52714 
L 286.069579 174.222361 
L 288.007815 163.210735 
L 288.976934 155.909829 
L 290.91517 174.532305 
L 291.884288 176.727742 
L 292.853406 158.139704 
L 293.822524 136.951579 
L 294.791642 112.431555 
L 295.76076 103.890873 
L 296.729878 99.379464 
L 297.698996 104.691562 
L 299.637232 122.332548 
L 300.60635 119.680804 
L 301.575468 120.705342 
L 302.544586 122.857731 
L 303.513704 131.501729 
L 304.482822 162.272293 
L 305.45194 187.636054 
L 307.390176 230.399734 
L 308.359294 247.179764 
L 309.328412 258.174171 
L 311.266649 271.260701 
L 312.235767 275.074735 
L 313.204885 277.296002 
L 314.174003 277.218516 
L 315.143121 278.613264 
L 316.112239 275.419118 
L 317.081357 258.484115 
L 318.050475 238.949026 
L 319.019593 193.137562 
L 319.988711 166.155204 
L 320.957829 134.670046 
L 321.926947 125.862467 
L 322.896065 126.938662 
L 325.803419 155.729028 
L 326.772537 158.62184 
L 327.741655 169.082454 
L 328.710773 156.056191 
L 329.679891 151.682535 
L 330.649009 157.692007 
L 331.618128 160.17156 
L 333.556364 147.558556 
L 334.525482 144.278314 
L 335.4946 139.000655 
L 337.432836 168.359251 
L 338.401954 176.744961 
L 339.371072 158.053609 
L 340.34019 128.669184 
L 341.309308 109.168532 
L 342.278426 96.658843 
L 343.247544 93.542183 
L 344.216662 94.583939 
L 345.18578 95.840935 
L 346.154898 96.503871 
L 347.124016 95.74623 
L 348.093134 95.918421 
L 349.062252 100.653678 
L 350.03137 110.442747 
L 351.000488 117.175422 
L 351.969607 141.643789 
L 353.907843 199.835799 
L 354.876961 220.369597 
L 355.846079 235.686003 
L 356.815197 244.777697 
L 357.784315 256.460869 
L 359.722551 268.497032 
L 360.691669 267.188379 
L 361.660787 272.724326 
L 362.629905 273.679987 
L 364.568141 238.509938 
L 365.537259 193.499163 
L 367.475495 127.033367 
L 368.444613 115.634311 
L 369.413731 115.970084 
L 371.351967 136.323082 
L 372.321085 148.367855 
L 373.290204 152.973969 
L 374.259322 153.53359 
L 375.22844 146.525409 
L 376.197558 146.146589 
L 377.166676 155.178016 
L 378.135794 151.906384 
L 379.104912 139.921877 
L 380.07403 137.356229 
L 381.043148 135.134963 
L 382.012266 137.13238 
L 382.981384 148.514217 
L 383.950502 161.402727 
L 384.91962 168.832777 
L 385.888738 144.295533 
L 386.857856 114.644212 
L 387.826974 91.544765 
L 388.796092 73.791854 
L 389.76521 60.610619 
L 390.734328 53.568 
L 392.672564 66.800892 
L 393.641682 72.267962 
L 394.610801 67.989011 
L 395.579919 65.345877 
L 396.549037 64.183586 
L 397.518155 63.71867 
L 398.487273 71.708341 
L 398.487273 71.708341 
" clip-path="url(#pd9c23bf865)" style="fill: none; stroke: #0000ff; stroke-width: 1.5; stroke-linecap: square"/>
   </g>
   <g id="line2d_17">
    <path d="M 213.385726 294.618435 
L 214.354844 294.868112 
L 215.323962 295.212494 
L 216.29308 295.221104 
L 217.262198 295.333028 
L 218.231316 295.281371 
L 219.200434 295.488 
L 220.169552 295.462171 
L 221.13867 295.47939 
L 222.107788 295.384685 
L 223.076906 295.376076 
L 224.046024 295.238323 
L 225.015142 294.962817 
L 225.984261 294.635654 
L 226.953379 293.697212 
L 227.922497 292.698503 
L 228.891615 290.649428 
L 229.860733 286.525449 
L 230.829851 281.876287 
L 231.798969 275.884034 
L 232.768087 270.201725 
L 233.737205 265.044599 
L 234.706323 262.186226 
L 235.675441 256.512526 
L 236.644559 253.172017 
L 237.613677 251.15738 
L 238.582795 250.158672 
L 239.551913 247.481099 
L 240.521031 245.853892 
L 241.490149 239.000683 
L 242.459267 235.229696 
L 243.428385 231.846139 
L 244.397503 227.007567 
L 245.366621 220.137139 
L 246.335739 211.389827 
L 247.304858 202.031236 
L 248.273976 186.327401 
L 249.243094 187.584396 
L 250.212212 192.526283 
L 251.18133 202.461714 
L 252.150448 205.853881 
L 253.119566 208.324824 
L 254.088684 204.588275 
L 255.057802 200.223229 
L 256.02692 204.648542 
L 256.996038 217.029088 
L 257.965156 220.653713 
L 258.934274 236.288672 
" clip-path="url(#pd9c23bf865)" style="fill: none; stroke: #ff0000; stroke-width: 1.5; stroke-linecap: square"/>
   </g>
   <g id="line2d_18">
    <path d="M 213.385726 255.022069 
L 214.354844 282.799265 
L 215.323962 286.794628 
L 216.29308 286.186711 
L 217.262198 287.96052 
L 218.231316 289.764754 
L 219.200434 290.361339 
L 220.169552 290.055402 
L 221.13867 287.911003 
L 222.107788 279.847449 
L 223.076906 266.81337 
L 224.046024 249.541621 
L 225.015142 249.171782 
L 225.984261 252.407916 
L 226.953379 255.521837 
L 227.922497 248.308343 
L 228.891615 242.177881 
L 229.860733 243.625166 
L 230.829851 243.956297 
L 231.798969 244.877071 
L 232.768087 241.102808 
L 233.737205 236.497162 
L 234.706323 231.277896 
L 235.675441 224.901718 
L 236.644559 221.086248 
L 237.613677 220.329088 
L 238.582795 222.97573 
L 239.551913 217.627434 
L 240.521031 213.398515 
L 241.490149 208.12023 
L 242.459267 200.864715 
L 243.428385 194.455444 
L 244.397503 187.314781 
L 245.366621 181.559617 
L 246.335739 184.253252 
L 247.304858 195.530306 
L 248.273976 204.020431 
L 249.243094 219.206977 
L 250.212212 231.90946 
L 251.18133 236.332728 
L 252.150448 238.202145 
L 253.119566 238.10851 
L 254.088684 238.348957 
L 255.057802 237.513276 
L 256.02692 248.045659 
L 256.996038 261.541749 
L 257.965156 267.325575 
L 258.934274 254.245234 
" clip-path="url(#pd9c23bf865)" style="fill: none; stroke: #1f77b4; stroke-width: 1.5; stroke-linecap: square"/>
   </g>
   <g id="patch_3">
    <path d="M 57.6 307.584 
L 57.6 41.472 
" style="fill: none; stroke: #000000; stroke-width: 0.8; stroke-linejoin: miter; stroke-linecap: square"/>
   </g>
   <g id="patch_4">
    <path d="M 414.72 307.584 
L 414.72 41.472 
" style="fill: none; stroke: #000000; stroke-width: 0.8; stroke-linejoin: miter; stroke-linecap: square"/>
   </g>
   <g id="patch_5">
    <path d="M 57.6 307.584 
L 414.72 307.584 
" style="fill: none; stroke: #000000; stroke-width: 0.8; stroke-linejoin: miter; stroke-linecap: square"/>
   </g>
   <g id="patch_6">
    <path d="M 57.6 41.472 
L 414.72 41.472 
" style="fill: none; stroke: #000000; stroke-width: 0.8; stroke-linejoin: miter; stroke-linecap: square"/>
   </g>
   <g id="legend_1">
    <g id="patch_7">
     <path d="M 173.71625 93.506375 
L 298.60375 93.506375 
Q 300.60375 93.506375 300.60375 91.506375 
L 300.60375 48.472 
Q 300.60375 46.472 298.60375 46.472 
L 173.71625 46.472 
Q 171.71625 46.472 171.71625 48.472 
L 171.71625 91.506375 
Q 171.71625 93.506375 173.71625 93.506375 
z
" style="fill: #ffffff; opacity: 0.8; stroke: #cccccc; stroke-linejoin: miter"/>
    </g>
    <g id="line2d_19">
     <path d="M 175.71625 54.570438 
L 185.71625 54.570438 
L 195.71625 54.570438 
" style="fill: none; stroke: #0000ff; stroke-width: 1.5; stroke-linecap: square"/>
    </g>
    <g id="text_17">
     <!-- Ground Truth -->
     <g transform="translate(203.71625 58.070438) scale(0.1 -0.1)">
      <defs>
       <path id="DejaVuSans-47" d="M 3809 666 
L 3809 1919 
L 2778 1919 
L 2778 2438 
L 4434 2438 
L 4434 434 
Q 4069 175 3628 42 
Q 3188 -91 2688 -91 
Q 1594 -91 976 548 
Q 359 1188 359 2328 
Q 359 3472 976 4111 
Q 1594 4750 2688 4750 
Q 3144 4750 3555 4637 
Q 3966 4525 4313 4306 
L 4313 3634 
Q 3963 3931 3569 4081 
Q 3175 4231 2741 4231 
Q 1884 4231 1454 3753 
Q 1025 3275 1025 2328 
Q 1025 1384 1454 906 
Q 1884 428 2741 428 
Q 3075 428 3337 486 
Q 3600 544 3809 666 
z
" transform="scale(0.015625)"/>
       <path id="DejaVuSans-72" d="M 2631 2963 
Q 2534 3019 2420 3045 
Q 2306 3072 2169 3072 
Q 1681 3072 1420 2755 
Q 1159 2438 1159 1844 
L 1159 0 
L 581 0 
L 581 3500 
L 1159 3500 
L 1159 2956 
Q 1341 3275 1631 3429 
Q 1922 3584 2338 3584 
Q 2397 3584 2469 3576 
Q 2541 3569 2628 3553 
L 2631 2963 
z
" transform="scale(0.015625)"/>
       <path id="DejaVuSans-75" d="M 544 1381 
L 544 3500 
L 1119 3500 
L 1119 1403 
Q 1119 906 1312 657 
Q 1506 409 1894 409 
Q 2359 409 2629 706 
Q 2900 1003 2900 1516 
L 2900 3500 
L 3475 3500 
L 3475 0 
L 2900 0 
L 2900 538 
Q 2691 219 2414 64 
Q 2138 -91 1772 -91 
Q 1169 -91 856 284 
Q 544 659 544 1381 
z
M 1991 3584 
L 1991 3584 
z
" transform="scale(0.015625)"/>
       <path id="DejaVuSans-54" d="M -19 4666 
L 3928 4666 
L 3928 4134 
L 2272 4134 
L 2272 0 
L 1638 0 
L 1638 4134 
L -19 4134 
L -19 4666 
z
" transform="scale(0.015625)"/>
       <path id="DejaVuSans-68" d="M 3513 2113 
L 3513 0 
L 2938 0 
L 2938 2094 
Q 2938 2591 2744 2837 
Q 2550 3084 2163 3084 
Q 1697 3084 1428 2787 
Q 1159 2491 1159 1978 
L 1159 0 
L 581 0 
L 581 4863 
L 1159 4863 
L 1159 2956 
Q 1366 3272 1645 3428 
Q 1925 3584 2291 3584 
Q 2894 3584 3203 3211 
Q 3513 2838 3513 2113 
z
" transform="scale(0.015625)"/>
      </defs>
      <use xlink:href="#DejaVuSans-47"/>
      <use xlink:href="#DejaVuSans-72" x="77.490234"/>
      <use xlink:href="#DejaVuSans-6f" x="116.353516"/>
      <use xlink:href="#DejaVuSans-75" x="177.535156"/>
      <use xlink:href="#DejaVuSans-6e" x="240.914062"/>
      <use xlink:href="#DejaVuSans-64" x="304.292969"/>
      <use xlink:href="#DejaVuSans-20" x="367.769531"/>
      <use xlink:href="#DejaVuSans-54" x="399.556641"/>
      <use xlink:href="#DejaVuSans-72" x="445.890625"/>
      <use xlink:href="#DejaVuSans-75" x="487.003906"/>
      <use xlink:href="#DejaVuSans-74" x="550.382812"/>
      <use xlink:href="#DejaVuSans-68" x="589.591797"/>
     </g>
    </g>
    <g id="line2d_20">
     <path d="M 175.71625 69.248563 
L 185.71625 69.248563 
L 195.71625 69.248563 
" style="fill: none; stroke: #ff0000; stroke-width: 1.5; stroke-linecap: square"/>
    </g>
    <g id="text_18">
     <!-- Detected Anomaly -->
     <g transform="translate(203.71625 72.748563) scale(0.1 -0.1)">
      <defs>
       <path id="DejaVuSans-44" d="M 1259 4147 
L 1259 519 
L 2022 519 
Q 2988 519 3436 956 
Q 3884 1394 3884 2338 
Q 3884 3275 3436 3711 
Q 2988 4147 2022 4147 
L 1259 4147 
z
M 628 4666 
L 1925 4666 
Q 3281 4666 3915 4102 
Q 4550 3538 4550 2338 
Q 4550 1131 3912 565 
Q 3275 0 1925 0 
L 628 0 
L 628 4666 
z
" transform="scale(0.015625)"/>
       <path id="DejaVuSans-63" d="M 3122 3366 
L 3122 2828 
Q 2878 2963 2633 3030 
Q 2388 3097 2138 3097 
Q 1578 3097 1268 2742 
Q 959 2388 959 1747 
Q 959 1106 1268 751 
Q 1578 397 2138 397 
Q 2388 397 2633 464 
Q 2878 531 3122 666 
L 3122 134 
Q 2881 22 2623 -34 
Q 2366 -91 2075 -91 
Q 1284 -91 818 406 
Q 353 903 353 1747 
Q 353 2603 823 3093 
Q 1294 3584 2113 3584 
Q 2378 3584 2631 3529 
Q 2884 3475 3122 3366 
z
" transform="scale(0.015625)"/>
      </defs>
      <use xlink:href="#DejaVuSans-44"/>
      <use xlink:href="#DejaVuSans-65" x="77.001953"/>
      <use xlink:href="#DejaVuSans-74" x="138.525391"/>
      <use xlink:href="#DejaVuSans-65" x="177.734375"/>
      <use xlink:href="#DejaVuSans-63" x="239.257812"/>
      <use xlink:href="#DejaVuSans-74" x="294.238281"/>
      <use xlink:href="#DejaVuSans-65" x="333.447266"/>
      <use xlink:href="#DejaVuSans-64" x="394.970703"/>
      <use xlink:href="#DejaVuSans-20" x="458.447266"/>
      <use xlink:href="#DejaVuSans-41" x="490.234375"/>
      <use xlink:href="#DejaVuSans-6e" x="558.642578"/>
      <use xlink:href="#DejaVuSans-6f" x="622.021484"/>
      <use xlink:href="#DejaVuSans-6d" x="683.203125"/>
      <use xlink:href="#DejaVuSans-61" x="780.615234"/>
      <use xlink:href="#DejaVuSans-6c" x="841.894531"/>
      <use xlink:href="#DejaVuSans-79" x="869.677734"/>
     </g>
    </g>
    <g id="line2d_21">
     <path d="M 175.71625 83.926688 
L 185.71625 83.926688 
L 195.71625 83.926688 
" style="fill: none; stroke: #1f77b4; stroke-width: 1.5; stroke-linecap: square"/>
    </g>
    <g id="text_19">
     <!-- Reconstruction -->
     <g transform="translate(203.71625 87.426688) scale(0.1 -0.1)">
      <defs>
       <path id="DejaVuSans-52" d="M 2841 2188 
Q 3044 2119 3236 1894 
Q 3428 1669 3622 1275 
L 4263 0 
L 3584 0 
L 2988 1197 
Q 2756 1666 2539 1819 
Q 2322 1972 1947 1972 
L 1259 1972 
L 1259 0 
L 628 0 
L 628 4666 
L 2053 4666 
Q 2853 4666 3247 4331 
Q 3641 3997 3641 3322 
Q 3641 2881 3436 2590 
Q 3231 2300 2841 2188 
z
M 1259 4147 
L 1259 2491 
L 2053 2491 
Q 2509 2491 2742 2702 
Q 2975 2913 2975 3322 
Q 2975 3731 2742 3939 
Q 2509 4147 2053 4147 
L 1259 4147 
z
" transform="scale(0.015625)"/>
       <path id="DejaVuSans-73" d="M 2834 3397 
L 2834 2853 
Q 2591 2978 2328 3040 
Q 2066 3103 1784 3103 
Q 1356 3103 1142 2972 
Q 928 2841 928 2578 
Q 928 2378 1081 2264 
Q 1234 2150 1697 2047 
L 1894 2003 
Q 2506 1872 2764 1633 
Q 3022 1394 3022 966 
Q 3022 478 2636 193 
Q 2250 -91 1575 -91 
Q 1294 -91 989 -36 
Q 684 19 347 128 
L 347 722 
Q 666 556 975 473 
Q 1284 391 1588 391 
Q 1994 391 2212 530 
Q 2431 669 2431 922 
Q 2431 1156 2273 1281 
Q 2116 1406 1581 1522 
L 1381 1569 
Q 847 1681 609 1914 
Q 372 2147 372 2553 
Q 372 3047 722 3315 
Q 1072 3584 1716 3584 
Q 2034 3584 2315 3537 
Q 2597 3491 2834 3397 
z
" transform="scale(0.015625)"/>
       <path id="DejaVuSans-69" d="M 603 3500 
L 1178 3500 
L 1178 0 
L 603 0 
L 603 3500 
z
M 603 4863 
L 1178 4863 
L 1178 4134 
L 603 4134 
L 603 4863 
z
" transform="scale(0.015625)"/>
      </defs>
      <use xlink:href="#DejaVuSans-52"/>
      <use xlink:href="#DejaVuSans-65" x="64.982422"/>
      <use xlink:href="#DejaVuSans-63" x="126.505859"/>
      <use xlink:href="#DejaVuSans-6f" x="181.486328"/>
      <use xlink:href="#DejaVuSans-6e" x="242.667969"/>
      <use xlink:href="#DejaVuSans-73" x="306.046875"/>
      <use xlink:href="#DejaVuSans-74" x="358.146484"/>
      <use xlink:href="#DejaVuSans-72" x="397.355469"/>
      <use xlink:href="#DejaVuSans-75" x="438.46875"/>
      <use xlink:href="#DejaVuSans-63" x="501.847656"/>
      <use xlink:href="#DejaVuSans-74" x="556.828125"/>
      <use xlink:href="#DejaVuSans-69" x="596.037109"/>
      <use xlink:href="#DejaVuSans-6f" x="623.820312"/>
      <use xlink:href="#DejaVuSans-6e" x="685.001953"/>
     </g>
    </g>
   </g>
  </g>
 </g>
 <defs>
  <clipPath id="pd9c23bf865">
   <rect x="57.6" y="41.472" width="357.12" height="266.112"/>
  </clipPath>
 </defs>
</svg>
