<?xml version="1.0" encoding="utf-8" standalone="no"?>
<!DOCTYPE svg PUBLIC "-//W3C//DTD SVG 1.1//EN"
  "http://www.w3.org/Graphics/SVG/1.1/DTD/svg11.dtd">
<svg xmlns:xlink="http://www.w3.org/1999/xlink" width="460.8pt" height="345.6pt" viewBox="0 0 460.8 345.6" xmlns="http://www.w3.org/2000/svg" version="1.1">
 <metadata>
  <rdf:RDF xmlns:dc="http://purl.org/dc/elements/1.1/" xmlns:cc="http://creativecommons.org/ns#" xmlns:rdf="http://www.w3.org/1999/02/22-rdf-syntax-ns#">
   <cc:Work>
    <dc:type rdf:resource="http://purl.org/dc/dcmitype/StillImage"/>
    <dc:date>2023-02-15T18:57:44.911578</dc:date>
    <dc:format>image/svg+xml</dc:format>
    <dc:creator>
     <cc:Agent>
      <dc:title>Matplotlib v3.6.2, https://matplotlib.org/</dc:title>
     </cc:Agent>
    </dc:creator>
   </cc:Work>
  </rdf:RDF>
 </metadata>
 <defs>
  <style type="text/css">*{stroke-linejoin: round; stroke-linecap: butt}</style>
 </defs>
 <g id="figure_1">
  <g id="patch_1">
   <path d="M 0 345.6 
L 460.8 345.6 
L 460.8 0 
L 0 0 
z
" style="fill: #ffffff"/>
  </g>
  <g id="axes_1">
   <g id="patch_2">
    <path d="M 57.6 307.584 
L 414.72 307.584 
L 414.72 41.472 
L 57.6 41.472 
z
" style="fill: #ffffff"/>
   </g>
   <g id="matplotlib.axis_1">
    <g id="xtick_1">
     <g id="line2d_1">
      <defs>
       <path id="m5751bda784" d="M 0 0 
L 0 3.5 
" style="stroke: #000000; stroke-width: 0.8"/>
      </defs>
      <g>
       <use xlink:href="#m5751bda784" x="85.462144" y="307.584" style="stroke: #000000; stroke-width: 0.8"/>
      </g>
     </g>
     <g id="text_1">
      <!-- 9900 -->
      <g transform="translate(72.737144 322.182437) scale(0.1 -0.1)">
       <defs>
        <path id="DejaVuSans-39" d="M 703 97 
L 703 672 
Q 941 559 1184 500 
Q 1428 441 1663 441 
Q 2288 441 2617 861 
Q 2947 1281 2994 2138 
Q 2813 1869 2534 1725 
Q 2256 1581 1919 1581 
Q 1219 1581 811 2004 
Q 403 2428 403 3163 
Q 403 3881 828 4315 
Q 1253 4750 1959 4750 
Q 2769 4750 3195 4129 
Q 3622 3509 3622 2328 
Q 3622 1225 3098 567 
Q 2575 -91 1691 -91 
Q 1453 -91 1209 -44 
Q 966 3 703 97 
z
M 1959 2075 
Q 2384 2075 2632 2365 
Q 2881 2656 2881 3163 
Q 2881 3666 2632 3958 
Q 2384 4250 1959 4250 
Q 1534 4250 1286 3958 
Q 1038 3666 1038 3163 
Q 1038 2656 1286 2365 
Q 1534 2075 1959 2075 
z
" transform="scale(0.015625)"/>
        <path id="DejaVuSans-30" d="M 2034 4250 
Q 1547 4250 1301 3770 
Q 1056 3291 1056 2328 
Q 1056 1369 1301 889 
Q 1547 409 2034 409 
Q 2525 409 2770 889 
Q 3016 1369 3016 2328 
Q 3016 3291 2770 3770 
Q 2525 4250 2034 4250 
z
M 2034 4750 
Q 2819 4750 3233 4129 
Q 3647 3509 3647 2328 
Q 3647 1150 3233 529 
Q 2819 -91 2034 -91 
Q 1250 -91 836 529 
Q 422 1150 422 2328 
Q 422 3509 836 4129 
Q 1250 4750 2034 4750 
z
" transform="scale(0.015625)"/>
       </defs>
       <use xlink:href="#DejaVuSans-39"/>
       <use xlink:href="#DejaVuSans-39" x="63.623047"/>
       <use xlink:href="#DejaVuSans-30" x="127.246094"/>
       <use xlink:href="#DejaVuSans-30" x="190.869141"/>
      </g>
     </g>
    </g>
    <g id="xtick_2">
     <g id="line2d_2">
      <g>
       <use xlink:href="#m5751bda784" x="133.918046" y="307.584" style="stroke: #000000; stroke-width: 0.8"/>
      </g>
     </g>
     <g id="text_2">
      <!-- 9950 -->
      <g transform="translate(121.193046 322.182437) scale(0.1 -0.1)">
       <defs>
        <path id="DejaVuSans-35" d="M 691 4666 
L 3169 4666 
L 3169 4134 
L 1269 4134 
L 1269 2991 
Q 1406 3038 1543 3061 
Q 1681 3084 1819 3084 
Q 2600 3084 3056 2656 
Q 3513 2228 3513 1497 
Q 3513 744 3044 326 
Q 2575 -91 1722 -91 
Q 1428 -91 1123 -41 
Q 819 9 494 109 
L 494 744 
Q 775 591 1075 516 
Q 1375 441 1709 441 
Q 2250 441 2565 725 
Q 2881 1009 2881 1497 
Q 2881 1984 2565 2268 
Q 2250 2553 1709 2553 
Q 1456 2553 1204 2497 
Q 953 2441 691 2322 
L 691 4666 
z
" transform="scale(0.015625)"/>
       </defs>
       <use xlink:href="#DejaVuSans-39"/>
       <use xlink:href="#DejaVuSans-39" x="63.623047"/>
       <use xlink:href="#DejaVuSans-35" x="127.246094"/>
       <use xlink:href="#DejaVuSans-30" x="190.869141"/>
      </g>
     </g>
    </g>
    <g id="xtick_3">
     <g id="line2d_3">
      <g>
       <use xlink:href="#m5751bda784" x="182.373948" y="307.584" style="stroke: #000000; stroke-width: 0.8"/>
      </g>
     </g>
     <g id="text_3">
      <!-- 10000 -->
      <g transform="translate(166.467698 322.182437) scale(0.1 -0.1)">
       <defs>
        <path id="DejaVuSans-31" d="M 794 531 
L 1825 531 
L 1825 4091 
L 703 3866 
L 703 4441 
L 1819 4666 
L 2450 4666 
L 2450 531 
L 3481 531 
L 3481 0 
L 794 0 
L 794 531 
z
" transform="scale(0.015625)"/>
       </defs>
       <use xlink:href="#DejaVuSans-31"/>
       <use xlink:href="#DejaVuSans-30" x="63.623047"/>
       <use xlink:href="#DejaVuSans-30" x="127.246094"/>
       <use xlink:href="#DejaVuSans-30" x="190.869141"/>
       <use xlink:href="#DejaVuSans-30" x="254.492188"/>
      </g>
     </g>
    </g>
    <g id="xtick_4">
     <g id="line2d_4">
      <g>
       <use xlink:href="#m5751bda784" x="230.829851" y="307.584" style="stroke: #000000; stroke-width: 0.8"/>
      </g>
     </g>
     <g id="text_4">
      <!-- 10050 -->
      <g transform="translate(214.923601 322.182437) scale(0.1 -0.1)">
       <use xlink:href="#DejaVuSans-31"/>
       <use xlink:href="#DejaVuSans-30" x="63.623047"/>
       <use xlink:href="#DejaVuSans-30" x="127.246094"/>
       <use xlink:href="#DejaVuSans-35" x="190.869141"/>
       <use xlink:href="#DejaVuSans-30" x="254.492188"/>
      </g>
     </g>
    </g>
    <g id="xtick_5">
     <g id="line2d_5">
      <g>
       <use xlink:href="#m5751bda784" x="279.285753" y="307.584" style="stroke: #000000; stroke-width: 0.8"/>
      </g>
     </g>
     <g id="text_5">
      <!-- 10100 -->
      <g transform="translate(263.379503 322.182437) scale(0.1 -0.1)">
       <use xlink:href="#DejaVuSans-31"/>
       <use xlink:href="#DejaVuSans-30" x="63.623047"/>
       <use xlink:href="#DejaVuSans-31" x="127.246094"/>
       <use xlink:href="#DejaVuSans-30" x="190.869141"/>
       <use xlink:href="#DejaVuSans-30" x="254.492188"/>
      </g>
     </g>
    </g>
    <g id="xtick_6">
     <g id="line2d_6">
      <g>
       <use xlink:href="#m5751bda784" x="327.741655" y="307.584" style="stroke: #000000; stroke-width: 0.8"/>
      </g>
     </g>
     <g id="text_6">
      <!-- 10150 -->
      <g transform="translate(311.835405 322.182437) scale(0.1 -0.1)">
       <use xlink:href="#DejaVuSans-31"/>
       <use xlink:href="#DejaVuSans-30" x="63.623047"/>
       <use xlink:href="#DejaVuSans-31" x="127.246094"/>
       <use xlink:href="#DejaVuSans-35" x="190.869141"/>
       <use xlink:href="#DejaVuSans-30" x="254.492188"/>
      </g>
     </g>
    </g>
    <g id="xtick_7">
     <g id="line2d_7">
      <g>
       <use xlink:href="#m5751bda784" x="376.197558" y="307.584" style="stroke: #000000; stroke-width: 0.8"/>
      </g>
     </g>
     <g id="text_7">
      <!-- 10200 -->
      <g transform="translate(360.291308 322.182437) scale(0.1 -0.1)">
       <defs>
        <path id="DejaVuSans-32" d="M 1228 531 
L 3431 531 
L 3431 0 
L 469 0 
L 469 531 
Q 828 903 1448 1529 
Q 2069 2156 2228 2338 
Q 2531 2678 2651 2914 
Q 2772 3150 2772 3378 
Q 2772 3750 2511 3984 
Q 2250 4219 1831 4219 
Q 1534 4219 1204 4116 
Q 875 4013 500 3803 
L 500 4441 
Q 881 4594 1212 4672 
Q 1544 4750 1819 4750 
Q 2544 4750 2975 4387 
Q 3406 4025 3406 3419 
Q 3406 3131 3298 2873 
Q 3191 2616 2906 2266 
Q 2828 2175 2409 1742 
Q 1991 1309 1228 531 
z
" transform="scale(0.015625)"/>
       </defs>
       <use xlink:href="#DejaVuSans-31"/>
       <use xlink:href="#DejaVuSans-30" x="63.623047"/>
       <use xlink:href="#DejaVuSans-32" x="127.246094"/>
       <use xlink:href="#DejaVuSans-30" x="190.869141"/>
       <use xlink:href="#DejaVuSans-30" x="254.492188"/>
      </g>
     </g>
    </g>
    <g id="text_8">
     <!-- Anomaly on date: 2015-01-26 00:00:00 -->
     <g transform="translate(137.170937 335.860562) scale(0.1 -0.1)">
      <defs>
       <path id="DejaVuSans-41" d="M 2188 4044 
L 1331 1722 
L 3047 1722 
L 2188 4044 
z
M 1831 4666 
L 2547 4666 
L 4325 0 
L 3669 0 
L 3244 1197 
L 1141 1197 
L 716 0 
L 50 0 
L 1831 4666 
z
" transform="scale(0.015625)"/>
       <path id="DejaVuSans-6e" d="M 3513 2113 
L 3513 0 
L 2938 0 
L 2938 2094 
Q 2938 2591 2744 2837 
Q 2550 3084 2163 3084 
Q 1697 3084 1428 2787 
Q 1159 2491 1159 1978 
L 1159 0 
L 581 0 
L 581 3500 
L 1159 3500 
L 1159 2956 
Q 1366 3272 1645 3428 
Q 1925 3584 2291 3584 
Q 2894 3584 3203 3211 
Q 3513 2838 3513 2113 
z
" transform="scale(0.015625)"/>
       <path id="DejaVuSans-6f" d="M 1959 3097 
Q 1497 3097 1228 2736 
Q 959 2375 959 1747 
Q 959 1119 1226 758 
Q 1494 397 1959 397 
Q 2419 397 2687 759 
Q 2956 1122 2956 1747 
Q 2956 2369 2687 2733 
Q 2419 3097 1959 3097 
z
M 1959 3584 
Q 2709 3584 3137 3096 
Q 3566 2609 3566 1747 
Q 3566 888 3137 398 
Q 2709 -91 1959 -91 
Q 1206 -91 779 398 
Q 353 888 353 1747 
Q 353 2609 779 3096 
Q 1206 3584 1959 3584 
z
" transform="scale(0.015625)"/>
       <path id="DejaVuSans-6d" d="M 3328 2828 
Q 3544 3216 3844 3400 
Q 4144 3584 4550 3584 
Q 5097 3584 5394 3201 
Q 5691 2819 5691 2113 
L 5691 0 
L 5113 0 
L 5113 2094 
Q 5113 2597 4934 2840 
Q 4756 3084 4391 3084 
Q 3944 3084 3684 2787 
Q 3425 2491 3425 1978 
L 3425 0 
L 2847 0 
L 2847 2094 
Q 2847 2600 2669 2842 
Q 2491 3084 2119 3084 
Q 1678 3084 1418 2786 
Q 1159 2488 1159 1978 
L 1159 0 
L 581 0 
L 581 3500 
L 1159 3500 
L 1159 2956 
Q 1356 3278 1631 3431 
Q 1906 3584 2284 3584 
Q 2666 3584 2933 3390 
Q 3200 3197 3328 2828 
z
" transform="scale(0.015625)"/>
       <path id="DejaVuSans-61" d="M 2194 1759 
Q 1497 1759 1228 1600 
Q 959 1441 959 1056 
Q 959 750 1161 570 
Q 1363 391 1709 391 
Q 2188 391 2477 730 
Q 2766 1069 2766 1631 
L 2766 1759 
L 2194 1759 
z
M 3341 1997 
L 3341 0 
L 2766 0 
L 2766 531 
Q 2569 213 2275 61 
Q 1981 -91 1556 -91 
Q 1019 -91 701 211 
Q 384 513 384 1019 
Q 384 1609 779 1909 
Q 1175 2209 1959 2209 
L 2766 2209 
L 2766 2266 
Q 2766 2663 2505 2880 
Q 2244 3097 1772 3097 
Q 1472 3097 1187 3025 
Q 903 2953 641 2809 
L 641 3341 
Q 956 3463 1253 3523 
Q 1550 3584 1831 3584 
Q 2591 3584 2966 3190 
Q 3341 2797 3341 1997 
z
" transform="scale(0.015625)"/>
       <path id="DejaVuSans-6c" d="M 603 4863 
L 1178 4863 
L 1178 0 
L 603 0 
L 603 4863 
z
" transform="scale(0.015625)"/>
       <path id="DejaVuSans-79" d="M 2059 -325 
Q 1816 -950 1584 -1140 
Q 1353 -1331 966 -1331 
L 506 -1331 
L 506 -850 
L 844 -850 
Q 1081 -850 1212 -737 
Q 1344 -625 1503 -206 
L 1606 56 
L 191 3500 
L 800 3500 
L 1894 763 
L 2988 3500 
L 3597 3500 
L 2059 -325 
z
" transform="scale(0.015625)"/>
       <path id="DejaVuSans-20" transform="scale(0.015625)"/>
       <path id="DejaVuSans-64" d="M 2906 2969 
L 2906 4863 
L 3481 4863 
L 3481 0 
L 2906 0 
L 2906 525 
Q 2725 213 2448 61 
Q 2172 -91 1784 -91 
Q 1150 -91 751 415 
Q 353 922 353 1747 
Q 353 2572 751 3078 
Q 1150 3584 1784 3584 
Q 2172 3584 2448 3432 
Q 2725 3281 2906 2969 
z
M 947 1747 
Q 947 1113 1208 752 
Q 1469 391 1925 391 
Q 2381 391 2643 752 
Q 2906 1113 2906 1747 
Q 2906 2381 2643 2742 
Q 2381 3103 1925 3103 
Q 1469 3103 1208 2742 
Q 947 2381 947 1747 
z
" transform="scale(0.015625)"/>
       <path id="DejaVuSans-74" d="M 1172 4494 
L 1172 3500 
L 2356 3500 
L 2356 3053 
L 1172 3053 
L 1172 1153 
Q 1172 725 1289 603 
Q 1406 481 1766 481 
L 2356 481 
L 2356 0 
L 1766 0 
Q 1100 0 847 248 
Q 594 497 594 1153 
L 594 3053 
L 172 3053 
L 172 3500 
L 594 3500 
L 594 4494 
L 1172 4494 
z
" transform="scale(0.015625)"/>
       <path id="DejaVuSans-65" d="M 3597 1894 
L 3597 1613 
L 953 1613 
Q 991 1019 1311 708 
Q 1631 397 2203 397 
Q 2534 397 2845 478 
Q 3156 559 3463 722 
L 3463 178 
Q 3153 47 2828 -22 
Q 2503 -91 2169 -91 
Q 1331 -91 842 396 
Q 353 884 353 1716 
Q 353 2575 817 3079 
Q 1281 3584 2069 3584 
Q 2775 3584 3186 3129 
Q 3597 2675 3597 1894 
z
M 3022 2063 
Q 3016 2534 2758 2815 
Q 2500 3097 2075 3097 
Q 1594 3097 1305 2825 
Q 1016 2553 972 2059 
L 3022 2063 
z
" transform="scale(0.015625)"/>
       <path id="DejaVuSans-3a" d="M 750 794 
L 1409 794 
L 1409 0 
L 750 0 
L 750 794 
z
M 750 3309 
L 1409 3309 
L 1409 2516 
L 750 2516 
L 750 3309 
z
" transform="scale(0.015625)"/>
       <path id="DejaVuSans-2d" d="M 313 2009 
L 1997 2009 
L 1997 1497 
L 313 1497 
L 313 2009 
z
" transform="scale(0.015625)"/>
       <path id="DejaVuSans-36" d="M 2113 2584 
Q 1688 2584 1439 2293 
Q 1191 2003 1191 1497 
Q 1191 994 1439 701 
Q 1688 409 2113 409 
Q 2538 409 2786 701 
Q 3034 994 3034 1497 
Q 3034 2003 2786 2293 
Q 2538 2584 2113 2584 
z
M 3366 4563 
L 3366 3988 
Q 3128 4100 2886 4159 
Q 2644 4219 2406 4219 
Q 1781 4219 1451 3797 
Q 1122 3375 1075 2522 
Q 1259 2794 1537 2939 
Q 1816 3084 2150 3084 
Q 2853 3084 3261 2657 
Q 3669 2231 3669 1497 
Q 3669 778 3244 343 
Q 2819 -91 2113 -91 
Q 1303 -91 875 529 
Q 447 1150 447 2328 
Q 447 3434 972 4092 
Q 1497 4750 2381 4750 
Q 2619 4750 2861 4703 
Q 3103 4656 3366 4563 
z
" transform="scale(0.015625)"/>
      </defs>
      <use xlink:href="#DejaVuSans-41"/>
      <use xlink:href="#DejaVuSans-6e" x="68.408203"/>
      <use xlink:href="#DejaVuSans-6f" x="131.787109"/>
      <use xlink:href="#DejaVuSans-6d" x="192.96875"/>
      <use xlink:href="#DejaVuSans-61" x="290.380859"/>
      <use xlink:href="#DejaVuSans-6c" x="351.660156"/>
      <use xlink:href="#DejaVuSans-79" x="379.443359"/>
      <use xlink:href="#DejaVuSans-20" x="438.623047"/>
      <use xlink:href="#DejaVuSans-6f" x="470.410156"/>
      <use xlink:href="#DejaVuSans-6e" x="531.591797"/>
      <use xlink:href="#DejaVuSans-20" x="594.970703"/>
      <use xlink:href="#DejaVuSans-64" x="626.757812"/>
      <use xlink:href="#DejaVuSans-61" x="690.234375"/>
      <use xlink:href="#DejaVuSans-74" x="751.513672"/>
      <use xlink:href="#DejaVuSans-65" x="790.722656"/>
      <use xlink:href="#DejaVuSans-3a" x="852.246094"/>
      <use xlink:href="#DejaVuSans-20" x="885.9375"/>
      <use xlink:href="#DejaVuSans-32" x="917.724609"/>
      <use xlink:href="#DejaVuSans-30" x="981.347656"/>
      <use xlink:href="#DejaVuSans-31" x="1044.970703"/>
      <use xlink:href="#DejaVuSans-35" x="1108.59375"/>
      <use xlink:href="#DejaVuSans-2d" x="1172.216797"/>
      <use xlink:href="#DejaVuSans-30" x="1208.300781"/>
      <use xlink:href="#DejaVuSans-31" x="1271.923828"/>
      <use xlink:href="#DejaVuSans-2d" x="1335.546875"/>
      <use xlink:href="#DejaVuSans-32" x="1371.630859"/>
      <use xlink:href="#DejaVuSans-36" x="1435.253906"/>
      <use xlink:href="#DejaVuSans-20" x="1498.876953"/>
      <use xlink:href="#DejaVuSans-30" x="1530.664062"/>
      <use xlink:href="#DejaVuSans-30" x="1594.287109"/>
      <use xlink:href="#DejaVuSans-3a" x="1657.910156"/>
      <use xlink:href="#DejaVuSans-30" x="1691.601562"/>
      <use xlink:href="#DejaVuSans-30" x="1755.224609"/>
      <use xlink:href="#DejaVuSans-3a" x="1818.847656"/>
      <use xlink:href="#DejaVuSans-30" x="1852.539062"/>
      <use xlink:href="#DejaVuSans-30" x="1916.162109"/>
     </g>
    </g>
   </g>
   <g id="matplotlib.axis_2">
    <g id="ytick_1">
     <g id="line2d_8">
      <defs>
       <path id="m84d8b755f2" d="M 0 0 
L -3.5 0 
" style="stroke: #000000; stroke-width: 0.8"/>
      </defs>
      <g>
       <use xlink:href="#m84d8b755f2" x="57.6" y="295.488" style="stroke: #000000; stroke-width: 0.8"/>
      </g>
     </g>
     <g id="text_9">
      <!-- 0.0 -->
      <g transform="translate(34.696875 299.287219) scale(0.1 -0.1)">
       <defs>
        <path id="DejaVuSans-2e" d="M 684 794 
L 1344 794 
L 1344 0 
L 684 0 
L 684 794 
z
" transform="scale(0.015625)"/>
       </defs>
       <use xlink:href="#DejaVuSans-30"/>
       <use xlink:href="#DejaVuSans-2e" x="63.623047"/>
       <use xlink:href="#DejaVuSans-30" x="95.410156"/>
      </g>
     </g>
    </g>
    <g id="ytick_2">
     <g id="line2d_9">
      <g>
       <use xlink:href="#m84d8b755f2" x="57.6" y="260.173231" style="stroke: #000000; stroke-width: 0.8"/>
      </g>
     </g>
     <g id="text_10">
      <!-- 0.1 -->
      <g transform="translate(34.696875 263.97245) scale(0.1 -0.1)">
       <use xlink:href="#DejaVuSans-30"/>
       <use xlink:href="#DejaVuSans-2e" x="63.623047"/>
       <use xlink:href="#DejaVuSans-31" x="95.410156"/>
      </g>
     </g>
    </g>
    <g id="ytick_3">
     <g id="line2d_10">
      <g>
       <use xlink:href="#m84d8b755f2" x="57.6" y="224.858462" style="stroke: #000000; stroke-width: 0.8"/>
      </g>
     </g>
     <g id="text_11">
      <!-- 0.2 -->
      <g transform="translate(34.696875 228.657681) scale(0.1 -0.1)">
       <use xlink:href="#DejaVuSans-30"/>
       <use xlink:href="#DejaVuSans-2e" x="63.623047"/>
       <use xlink:href="#DejaVuSans-32" x="95.410156"/>
      </g>
     </g>
    </g>
    <g id="ytick_4">
     <g id="line2d_11">
      <g>
       <use xlink:href="#m84d8b755f2" x="57.6" y="189.543693" style="stroke: #000000; stroke-width: 0.8"/>
      </g>
     </g>
     <g id="text_12">
      <!-- 0.3 -->
      <g transform="translate(34.696875 193.342912) scale(0.1 -0.1)">
       <defs>
        <path id="DejaVuSans-33" d="M 2597 2516 
Q 3050 2419 3304 2112 
Q 3559 1806 3559 1356 
Q 3559 666 3084 287 
Q 2609 -91 1734 -91 
Q 1441 -91 1130 -33 
Q 819 25 488 141 
L 488 750 
Q 750 597 1062 519 
Q 1375 441 1716 441 
Q 2309 441 2620 675 
Q 2931 909 2931 1356 
Q 2931 1769 2642 2001 
Q 2353 2234 1838 2234 
L 1294 2234 
L 1294 2753 
L 1863 2753 
Q 2328 2753 2575 2939 
Q 2822 3125 2822 3475 
Q 2822 3834 2567 4026 
Q 2313 4219 1838 4219 
Q 1578 4219 1281 4162 
Q 984 4106 628 3988 
L 628 4550 
Q 988 4650 1302 4700 
Q 1616 4750 1894 4750 
Q 2613 4750 3031 4423 
Q 3450 4097 3450 3541 
Q 3450 3153 3228 2886 
Q 3006 2619 2597 2516 
z
" transform="scale(0.015625)"/>
       </defs>
       <use xlink:href="#DejaVuSans-30"/>
       <use xlink:href="#DejaVuSans-2e" x="63.623047"/>
       <use xlink:href="#DejaVuSans-33" x="95.410156"/>
      </g>
     </g>
    </g>
    <g id="ytick_5">
     <g id="line2d_12">
      <g>
       <use xlink:href="#m84d8b755f2" x="57.6" y="154.228924" style="stroke: #000000; stroke-width: 0.8"/>
      </g>
     </g>
     <g id="text_13">
      <!-- 0.4 -->
      <g transform="translate(34.696875 158.028143) scale(0.1 -0.1)">
       <defs>
        <path id="DejaVuSans-34" d="M 2419 4116 
L 825 1625 
L 2419 1625 
L 2419 4116 
z
M 2253 4666 
L 3047 4666 
L 3047 1625 
L 3713 1625 
L 3713 1100 
L 3047 1100 
L 3047 0 
L 2419 0 
L 2419 1100 
L 313 1100 
L 313 1709 
L 2253 4666 
z
" transform="scale(0.015625)"/>
       </defs>
       <use xlink:href="#DejaVuSans-30"/>
       <use xlink:href="#DejaVuSans-2e" x="63.623047"/>
       <use xlink:href="#DejaVuSans-34" x="95.410156"/>
      </g>
     </g>
    </g>
    <g id="ytick_6">
     <g id="line2d_13">
      <g>
       <use xlink:href="#m84d8b755f2" x="57.6" y="118.914155" style="stroke: #000000; stroke-width: 0.8"/>
      </g>
     </g>
     <g id="text_14">
      <!-- 0.5 -->
      <g transform="translate(34.696875 122.713374) scale(0.1 -0.1)">
       <use xlink:href="#DejaVuSans-30"/>
       <use xlink:href="#DejaVuSans-2e" x="63.623047"/>
       <use xlink:href="#DejaVuSans-35" x="95.410156"/>
      </g>
     </g>
    </g>
    <g id="ytick_7">
     <g id="line2d_14">
      <g>
       <use xlink:href="#m84d8b755f2" x="57.6" y="83.599386" style="stroke: #000000; stroke-width: 0.8"/>
      </g>
     </g>
     <g id="text_15">
      <!-- 0.6 -->
      <g transform="translate(34.696875 87.398605) scale(0.1 -0.1)">
       <use xlink:href="#DejaVuSans-30"/>
       <use xlink:href="#DejaVuSans-2e" x="63.623047"/>
       <use xlink:href="#DejaVuSans-36" x="95.410156"/>
      </g>
     </g>
    </g>
    <g id="ytick_8">
     <g id="line2d_15">
      <g>
       <use xlink:href="#m84d8b755f2" x="57.6" y="48.284617" style="stroke: #000000; stroke-width: 0.8"/>
      </g>
     </g>
     <g id="text_16">
      <!-- 0.7 -->
      <g transform="translate(34.696875 52.083836) scale(0.1 -0.1)">
       <defs>
        <path id="DejaVuSans-37" d="M 525 4666 
L 3525 4666 
L 3525 4397 
L 1831 0 
L 1172 0 
L 2766 4134 
L 525 4134 
L 525 4666 
z
" transform="scale(0.015625)"/>
       </defs>
       <use xlink:href="#DejaVuSans-30"/>
       <use xlink:href="#DejaVuSans-2e" x="63.623047"/>
       <use xlink:href="#DejaVuSans-37" x="95.410156"/>
      </g>
     </g>
    </g>
   </g>
   <g id="line2d_16">
    <path d="M 73.832727 162.894285 
L 74.801845 189.09042 
L 75.770963 211.988383 
L 76.740081 230.308556 
L 77.709199 239.833604 
L 78.678318 250.899601 
L 79.647436 258.090697 
L 80.616554 264.029208 
L 81.585672 264.623961 
L 82.55479 270.904905 
L 83.523908 272.725208 
L 84.493026 255.585528 
L 85.462144 236.454329 
L 86.431262 194.875737 
L 87.40038 165.102077 
L 88.369498 120.52269 
L 89.338616 114.800452 
L 90.307734 113.430719 
L 91.276852 122.361015 
L 92.24597 128.678005 
L 93.215088 147.178406 
L 94.184206 145.511297 
L 95.153324 155.306687 
L 96.122442 138.013814 
L 97.09156 132.841271 
L 98.060678 143.672972 
L 99.029796 143.925291 
L 99.998915 134.256061 
L 100.968033 126.623406 
L 101.937151 119.900903 
L 102.906269 124.163295 
L 103.875387 140.843393 
L 104.844505 154.261365 
L 105.813623 159.25368 
L 106.782741 136.382751 
L 107.751859 105.734985 
L 108.720977 83.134398 
L 109.690095 69.707414 
L 110.659213 53.568 
L 111.628331 60.930312 
L 113.566567 81.15189 
L 114.535685 83.251546 
L 115.504803 80.151625 
L 116.473921 67.878101 
L 117.443039 67.715895 
L 118.412157 68.860343 
L 119.381275 73.906726 
L 120.350393 77.276989 
L 121.319512 99.463052 
L 122.28863 112.124066 
L 123.257748 131.363402 
L 124.226866 167.021505 
L 125.195984 188.756998 
L 126.165102 203.238315 
L 128.103338 226.767076 
L 129.072456 252.107128 
L 130.041574 263.830958 
L 131.010692 268.787227 
L 131.97981 266.498332 
L 132.948928 256.594805 
L 133.918046 250.971692 
L 134.887164 237.87813 
L 135.856282 227.641182 
L 136.8254 204.680139 
L 137.794518 192.640911 
L 138.763636 159.821398 
L 139.732754 161.001891 
L 140.701872 146.763882 
L 141.670991 143.330539 
L 142.640109 115.827751 
L 143.609227 116.674823 
L 144.578345 111.862736 
L 145.547463 112.439465 
L 146.516581 119.270105 
L 147.485699 127.119033 
L 148.454817 124.19934 
L 149.423935 122.07265 
L 150.393053 121.414818 
L 151.362171 123.090938 
L 152.331289 123.514474 
L 153.300407 116.224253 
L 155.238643 88.324963 
L 156.207761 77.394137 
L 157.176879 59.686739 
L 158.145997 70.860873 
L 159.115115 104.130956 
L 160.084233 113.475776 
L 161.053351 113.637981 
L 162.022469 101.022024 
L 162.991588 76.069462 
L 164.929824 64.498826 
L 165.898942 61.912555 
L 166.86806 70.040836 
L 167.837178 81.332118 
L 168.806296 91.298725 
L 169.775414 107.546276 
L 170.744532 119.855846 
L 172.682768 158.02813 
L 173.651886 180.872024 
L 174.621004 199.300334 
L 175.590122 243.257935 
L 176.55924 261.929553 
L 177.528358 268.075326 
L 178.497476 270.391256 
L 179.466594 262.308031 
L 180.435712 259.433395 
L 181.40483 250.37694 
L 182.373948 247.313064 
L 183.343066 226.226392 
L 184.312185 211.772109 
L 185.281303 187.098901 
L 186.250421 174.293704 
L 187.219539 144.384873 
L 188.188657 143.826166 
L 189.157775 127.218159 
L 190.126893 120.901168 
L 191.096011 116.764937 
L 192.065129 118.143681 
L 193.034247 116.233264 
L 194.003365 117.43178 
L 194.972483 123.316223 
L 195.941601 132.05728 
L 196.910719 130.264011 
L 197.879837 134.4453 
L 198.848955 134.165947 
L 199.818073 134.544426 
L 200.787191 123.631622 
L 201.756309 118.152692 
L 202.725427 122.297935 
L 203.694545 134.76971 
L 204.663664 149.296085 
L 205.632782 161.245199 
L 206.6019 164.011698 
L 207.571018 173.446632 
L 208.540136 170.004278 
L 209.509254 184.053048 
L 210.478372 199.813984 
L 211.44749 205.770518 
L 212.416608 221.756739 
L 214.354844 249.142378 
L 215.323962 258.685449 
L 216.29308 266.660537 
L 218.231316 277.591363 
L 219.200434 277.654443 
L 220.169552 278.330298 
L 221.13867 276.131516 
L 222.107788 275.9603 
L 223.076906 270.715666 
L 225.015142 235.048551 
L 225.984261 191.235133 
L 226.953379 169.815039 
L 227.922497 135.905147 
L 228.891615 127.173102 
L 229.860733 125.0374 
L 230.829851 139.428603 
L 231.798969 152.044561 
L 232.768087 171.337965 
L 233.737205 170.256597 
L 234.706323 173.230359 
L 235.675441 168.553443 
L 236.644559 165.002952 
L 237.613677 165.543636 
L 238.582795 165.777932 
L 239.551913 162.669 
L 240.521031 170.166483 
L 241.490149 192.541785 
L 242.459267 208.518995 
L 243.428385 226.34354 
L 244.397503 239.175772 
L 245.366621 245.817172 
L 246.335739 249.070287 
L 247.304858 247.952874 
L 248.273976 243.104741 
L 249.243094 245.22242 
L 250.212212 252.945188 
L 251.18133 255.891916 
L 253.119566 265.065519 
L 254.088684 266.696582 
L 255.057802 272.03133 
L 256.996038 287.75622 
L 257.965156 292.883706 
L 258.934274 293.856937 
L 259.903392 294.577849 
L 261.841628 295.199635 
L 264.748982 295.271726 
L 265.7181 295.488 
L 269.594573 295.370852 
L 270.563691 295.226669 
L 272.501927 294.595872 
L 274.440163 292.568307 
L 275.409281 290.423594 
L 276.378399 286.107134 
L 277.347517 281.240979 
L 279.285753 269.021523 
L 280.254871 263.623695 
L 281.223989 260.631911 
L 282.193107 254.6934 
L 283.162225 251.196977 
L 284.131343 249.08831 
L 285.100461 248.042988 
L 286.069579 245.240443 
L 287.038697 243.537289 
L 288.007815 236.364215 
L 289.946052 228.875743 
L 290.91517 223.811338 
L 291.884288 216.620242 
L 293.822524 197.669271 
L 294.791642 181.23248 
L 295.76076 182.548145 
L 296.729878 187.720687 
L 297.698996 198.119841 
L 298.668114 201.670332 
L 299.637232 204.256603 
L 300.60635 200.345656 
L 301.575468 195.776877 
L 302.544586 200.408736 
L 303.513704 213.367127 
L 304.482822 217.160926 
L 305.45194 233.525625 
L 307.390176 259.505486 
L 308.359294 268.174452 
L 309.328412 273.653382 
L 310.297531 277.492238 
L 312.235767 283.845273 
L 313.204885 284.034513 
L 314.174003 282.881054 
L 315.143121 283.367669 
L 316.112239 278.555583 
L 317.081357 262.091758 
L 318.050475 241.320485 
L 319.019593 194.560339 
L 319.988711 168.832796 
L 320.957829 137.211799 
L 321.926947 126.632418 
L 322.896065 129.777396 
L 323.865183 138.491418 
L 324.834301 151.404752 
L 325.803419 170.301654 
L 326.772537 168.156941 
L 327.741655 175.158798 
L 328.710773 167.994736 
L 329.679891 168.724659 
L 330.649009 170.418802 
L 331.618128 173.068153 
L 332.587246 168.562454 
L 334.525482 157.036876 
L 335.4946 149.39521 
L 337.432836 168.886865 
L 338.401954 171.184771 
L 339.371072 151.729162 
L 340.34019 129.552111 
L 341.309308 103.887648 
L 342.278426 94.948341 
L 343.247544 90.226368 
L 344.216662 95.786401 
L 346.154898 114.250756 
L 347.124016 111.475246 
L 348.093134 112.547602 
L 349.062252 114.800452 
L 350.03137 123.847896 
L 351.000488 156.054633 
L 351.969607 182.602213 
L 353.907843 227.361829 
L 354.876961 244.925044 
L 355.846079 256.4326 
L 357.784315 270.129925 
L 358.753433 274.121975 
L 359.722551 276.446915 
L 360.691669 276.365813 
L 361.660787 277.825659 
L 362.629905 274.48243 
L 363.599023 256.75701 
L 364.568141 236.310147 
L 365.537259 188.360496 
L 366.506377 160.118774 
L 367.475495 127.16409 
L 368.444613 117.94543 
L 369.413731 119.071855 
L 372.321085 149.205971 
L 373.290204 152.2338 
L 374.259322 163.182649 
L 375.22844 149.548404 
L 376.197558 144.970613 
L 377.166676 151.260569 
L 378.135794 153.855852 
L 380.07403 140.654154 
L 381.043148 137.220811 
L 382.012266 131.696824 
L 383.950502 162.425692 
L 384.91962 171.202794 
L 385.888738 151.639048 
L 386.857856 120.883146 
L 387.826974 100.472328 
L 388.796092 87.378767 
L 389.76521 84.11664 
L 390.734328 85.20702 
L 391.703446 86.522684 
L 392.672564 87.216561 
L 393.641682 86.423558 
L 394.610801 86.603786 
L 395.579919 91.560055 
L 396.549037 101.806015 
L 397.518155 108.852929 
L 398.487273 134.463323 
L 398.487273 134.463323 
" clip-path="url(#p0b1fe02b22)" style="fill: none; stroke: #0000ff; stroke-width: 1.5; stroke-linecap: square"/>
   </g>
   <g id="line2d_17">
    <path d="M 213.385726 235.517144 
L 214.354844 249.142378 
L 215.323962 258.685449 
L 216.29308 266.660537 
L 217.262198 271.896159 
L 218.231316 277.591363 
L 219.200434 277.654443 
L 220.169552 278.330298 
L 221.13867 276.131516 
L 222.107788 275.9603 
L 223.076906 270.715666 
L 224.046024 253.305644 
L 225.015142 235.048551 
L 225.984261 191.235133 
L 226.953379 169.815039 
L 227.922497 135.905147 
L 228.891615 127.173102 
L 229.860733 125.0374 
L 230.829851 139.428603 
L 231.798969 152.044561 
L 232.768087 171.337965 
L 233.737205 170.256597 
L 234.706323 173.230359 
L 235.675441 168.553443 
L 236.644559 165.002952 
L 237.613677 165.543636 
L 238.582795 165.777932 
L 239.551913 162.669 
L 240.521031 170.166483 
L 241.490149 192.541785 
L 242.459267 208.518995 
L 243.428385 226.34354 
L 244.397503 239.175772 
L 245.366621 245.817172 
L 246.335739 249.070287 
L 247.304858 247.952874 
L 248.273976 243.104741 
L 249.243094 245.22242 
L 250.212212 252.945188 
L 251.18133 255.891916 
L 252.150448 260.6229 
L 253.119566 265.065519 
L 254.088684 266.696582 
L 255.057802 272.03133 
L 256.02692 279.492768 
L 256.996038 287.75622 
L 257.965156 292.883706 
L 258.934274 293.856937 
" clip-path="url(#p0b1fe02b22)" style="fill: none; stroke: #ff0000; stroke-width: 1.5; stroke-linecap: square"/>
   </g>
   <g id="line2d_18">
    <path d="M 213.385726 241.99807 
L 214.354844 275.191626 
L 215.323962 281.657236 
L 216.29308 282.381571 
L 217.262198 285.872703 
L 218.231316 288.709056 
L 219.200434 289.887592 
L 220.169552 290.115475 
L 221.13867 288.868568 
L 222.107788 283.956712 
L 223.076906 274.11884 
L 224.046024 255.43246 
L 225.015142 242.806045 
L 225.984261 233.933232 
L 226.953379 229.883773 
L 227.922497 215.700656 
L 228.891615 204.807673 
L 229.860733 203.686654 
L 230.829851 205.187844 
L 231.798969 208.645324 
L 232.768087 207.645395 
L 233.737205 202.591451 
L 234.706323 198.420533 
L 235.675441 190.131489 
L 236.644559 185.734165 
L 237.613677 184.570637 
L 238.582795 187.588593 
L 239.551913 182.744626 
L 240.521031 177.695007 
L 241.490149 170.834522 
L 242.459267 166.357254 
L 243.428385 167.440405 
L 244.397503 168.917452 
L 245.366621 168.586631 
L 246.335739 162.858122 
L 247.304858 159.221423 
L 248.273976 157.32635 
L 249.243094 163.84469 
L 250.212212 174.185435 
L 251.18133 179.029108 
L 252.150448 182.297487 
L 253.119566 184.844572 
L 254.088684 186.917554 
L 255.057802 186.905293 
L 256.02692 200.097327 
L 256.996038 219.612706 
L 257.965156 232.658468 
L 258.934274 221.994754 
" clip-path="url(#p0b1fe02b22)" style="fill: none; stroke: #1f77b4; stroke-width: 1.5; stroke-linecap: square"/>
   </g>
   <g id="patch_3">
    <path d="M 57.6 307.584 
L 57.6 41.472 
" style="fill: none; stroke: #000000; stroke-width: 0.8; stroke-linejoin: miter; stroke-linecap: square"/>
   </g>
   <g id="patch_4">
    <path d="M 414.72 307.584 
L 414.72 41.472 
" style="fill: none; stroke: #000000; stroke-width: 0.8; stroke-linejoin: miter; stroke-linecap: square"/>
   </g>
   <g id="patch_5">
    <path d="M 57.6 307.584 
L 414.72 307.584 
" style="fill: none; stroke: #000000; stroke-width: 0.8; stroke-linejoin: miter; stroke-linecap: square"/>
   </g>
   <g id="patch_6">
    <path d="M 57.6 41.472 
L 414.72 41.472 
" style="fill: none; stroke: #000000; stroke-width: 0.8; stroke-linejoin: miter; stroke-linecap: square"/>
   </g>
   <g id="legend_1">
    <g id="patch_7">
     <path d="M 173.71625 93.506375 
L 298.60375 93.506375 
Q 300.60375 93.506375 300.60375 91.506375 
L 300.60375 48.472 
Q 300.60375 46.472 298.60375 46.472 
L 173.71625 46.472 
Q 171.71625 46.472 171.71625 48.472 
L 171.71625 91.506375 
Q 171.71625 93.506375 173.71625 93.506375 
z
" style="fill: #ffffff; opacity: 0.8; stroke: #cccccc; stroke-linejoin: miter"/>
    </g>
    <g id="line2d_19">
     <path d="M 175.71625 54.570438 
L 185.71625 54.570438 
L 195.71625 54.570438 
" style="fill: none; stroke: #0000ff; stroke-width: 1.5; stroke-linecap: square"/>
    </g>
    <g id="text_17">
     <!-- Ground Truth -->
     <g transform="translate(203.71625 58.070438) scale(0.1 -0.1)">
      <defs>
       <path id="DejaVuSans-47" d="M 3809 666 
L 3809 1919 
L 2778 1919 
L 2778 2438 
L 4434 2438 
L 4434 434 
Q 4069 175 3628 42 
Q 3188 -91 2688 -91 
Q 1594 -91 976 548 
Q 359 1188 359 2328 
Q 359 3472 976 4111 
Q 1594 4750 2688 4750 
Q 3144 4750 3555 4637 
Q 3966 4525 4313 4306 
L 4313 3634 
Q 3963 3931 3569 4081 
Q 3175 4231 2741 4231 
Q 1884 4231 1454 3753 
Q 1025 3275 1025 2328 
Q 1025 1384 1454 906 
Q 1884 428 2741 428 
Q 3075 428 3337 486 
Q 3600 544 3809 666 
z
" transform="scale(0.015625)"/>
       <path id="DejaVuSans-72" d="M 2631 2963 
Q 2534 3019 2420 3045 
Q 2306 3072 2169 3072 
Q 1681 3072 1420 2755 
Q 1159 2438 1159 1844 
L 1159 0 
L 581 0 
L 581 3500 
L 1159 3500 
L 1159 2956 
Q 1341 3275 1631 3429 
Q 1922 3584 2338 3584 
Q 2397 3584 2469 3576 
Q 2541 3569 2628 3553 
L 2631 2963 
z
" transform="scale(0.015625)"/>
       <path id="DejaVuSans-75" d="M 544 1381 
L 544 3500 
L 1119 3500 
L 1119 1403 
Q 1119 906 1312 657 
Q 1506 409 1894 409 
Q 2359 409 2629 706 
Q 2900 1003 2900 1516 
L 2900 3500 
L 3475 3500 
L 3475 0 
L 2900 0 
L 2900 538 
Q 2691 219 2414 64 
Q 2138 -91 1772 -91 
Q 1169 -91 856 284 
Q 544 659 544 1381 
z
M 1991 3584 
L 1991 3584 
z
" transform="scale(0.015625)"/>
       <path id="DejaVuSans-54" d="M -19 4666 
L 3928 4666 
L 3928 4134 
L 2272 4134 
L 2272 0 
L 1638 0 
L 1638 4134 
L -19 4134 
L -19 4666 
z
" transform="scale(0.015625)"/>
       <path id="DejaVuSans-68" d="M 3513 2113 
L 3513 0 
L 2938 0 
L 2938 2094 
Q 2938 2591 2744 2837 
Q 2550 3084 2163 3084 
Q 1697 3084 1428 2787 
Q 1159 2491 1159 1978 
L 1159 0 
L 581 0 
L 581 4863 
L 1159 4863 
L 1159 2956 
Q 1366 3272 1645 3428 
Q 1925 3584 2291 3584 
Q 2894 3584 3203 3211 
Q 3513 2838 3513 2113 
z
" transform="scale(0.015625)"/>
      </defs>
      <use xlink:href="#DejaVuSans-47"/>
      <use xlink:href="#DejaVuSans-72" x="77.490234"/>
      <use xlink:href="#DejaVuSans-6f" x="116.353516"/>
      <use xlink:href="#DejaVuSans-75" x="177.535156"/>
      <use xlink:href="#DejaVuSans-6e" x="240.914062"/>
      <use xlink:href="#DejaVuSans-64" x="304.292969"/>
      <use xlink:href="#DejaVuSans-20" x="367.769531"/>
      <use xlink:href="#DejaVuSans-54" x="399.556641"/>
      <use xlink:href="#DejaVuSans-72" x="445.890625"/>
      <use xlink:href="#DejaVuSans-75" x="487.003906"/>
      <use xlink:href="#DejaVuSans-74" x="550.382812"/>
      <use xlink:href="#DejaVuSans-68" x="589.591797"/>
     </g>
    </g>
    <g id="line2d_20">
     <path d="M 175.71625 69.248563 
L 185.71625 69.248563 
L 195.71625 69.248563 
" style="fill: none; stroke: #ff0000; stroke-width: 1.5; stroke-linecap: square"/>
    </g>
    <g id="text_18">
     <!-- Detected Anomaly -->
     <g transform="translate(203.71625 72.748563) scale(0.1 -0.1)">
      <defs>
       <path id="DejaVuSans-44" d="M 1259 4147 
L 1259 519 
L 2022 519 
Q 2988 519 3436 956 
Q 3884 1394 3884 2338 
Q 3884 3275 3436 3711 
Q 2988 4147 2022 4147 
L 1259 4147 
z
M 628 4666 
L 1925 4666 
Q 3281 4666 3915 4102 
Q 4550 3538 4550 2338 
Q 4550 1131 3912 565 
Q 3275 0 1925 0 
L 628 0 
L 628 4666 
z
" transform="scale(0.015625)"/>
       <path id="DejaVuSans-63" d="M 3122 3366 
L 3122 2828 
Q 2878 2963 2633 3030 
Q 2388 3097 2138 3097 
Q 1578 3097 1268 2742 
Q 959 2388 959 1747 
Q 959 1106 1268 751 
Q 1578 397 2138 397 
Q 2388 397 2633 464 
Q 2878 531 3122 666 
L 3122 134 
Q 2881 22 2623 -34 
Q 2366 -91 2075 -91 
Q 1284 -91 818 406 
Q 353 903 353 1747 
Q 353 2603 823 3093 
Q 1294 3584 2113 3584 
Q 2378 3584 2631 3529 
Q 2884 3475 3122 3366 
z
" transform="scale(0.015625)"/>
      </defs>
      <use xlink:href="#DejaVuSans-44"/>
      <use xlink:href="#DejaVuSans-65" x="77.001953"/>
      <use xlink:href="#DejaVuSans-74" x="138.525391"/>
      <use xlink:href="#DejaVuSans-65" x="177.734375"/>
      <use xlink:href="#DejaVuSans-63" x="239.257812"/>
      <use xlink:href="#DejaVuSans-74" x="294.238281"/>
      <use xlink:href="#DejaVuSans-65" x="333.447266"/>
      <use xlink:href="#DejaVuSans-64" x="394.970703"/>
      <use xlink:href="#DejaVuSans-20" x="458.447266"/>
      <use xlink:href="#DejaVuSans-41" x="490.234375"/>
      <use xlink:href="#DejaVuSans-6e" x="558.642578"/>
      <use xlink:href="#DejaVuSans-6f" x="622.021484"/>
      <use xlink:href="#DejaVuSans-6d" x="683.203125"/>
      <use xlink:href="#DejaVuSans-61" x="780.615234"/>
      <use xlink:href="#DejaVuSans-6c" x="841.894531"/>
      <use xlink:href="#DejaVuSans-79" x="869.677734"/>
     </g>
    </g>
    <g id="line2d_21">
     <path d="M 175.71625 83.926688 
L 185.71625 83.926688 
L 195.71625 83.926688 
" style="fill: none; stroke: #1f77b4; stroke-width: 1.5; stroke-linecap: square"/>
    </g>
    <g id="text_19">
     <!-- Reconstruction -->
     <g transform="translate(203.71625 87.426688) scale(0.1 -0.1)">
      <defs>
       <path id="DejaVuSans-52" d="M 2841 2188 
Q 3044 2119 3236 1894 
Q 3428 1669 3622 1275 
L 4263 0 
L 3584 0 
L 2988 1197 
Q 2756 1666 2539 1819 
Q 2322 1972 1947 1972 
L 1259 1972 
L 1259 0 
L 628 0 
L 628 4666 
L 2053 4666 
Q 2853 4666 3247 4331 
Q 3641 3997 3641 3322 
Q 3641 2881 3436 2590 
Q 3231 2300 2841 2188 
z
M 1259 4147 
L 1259 2491 
L 2053 2491 
Q 2509 2491 2742 2702 
Q 2975 2913 2975 3322 
Q 2975 3731 2742 3939 
Q 2509 4147 2053 4147 
L 1259 4147 
z
" transform="scale(0.015625)"/>
       <path id="DejaVuSans-73" d="M 2834 3397 
L 2834 2853 
Q 2591 2978 2328 3040 
Q 2066 3103 1784 3103 
Q 1356 3103 1142 2972 
Q 928 2841 928 2578 
Q 928 2378 1081 2264 
Q 1234 2150 1697 2047 
L 1894 2003 
Q 2506 1872 2764 1633 
Q 3022 1394 3022 966 
Q 3022 478 2636 193 
Q 2250 -91 1575 -91 
Q 1294 -91 989 -36 
Q 684 19 347 128 
L 347 722 
Q 666 556 975 473 
Q 1284 391 1588 391 
Q 1994 391 2212 530 
Q 2431 669 2431 922 
Q 2431 1156 2273 1281 
Q 2116 1406 1581 1522 
L 1381 1569 
Q 847 1681 609 1914 
Q 372 2147 372 2553 
Q 372 3047 722 3315 
Q 1072 3584 1716 3584 
Q 2034 3584 2315 3537 
Q 2597 3491 2834 3397 
z
" transform="scale(0.015625)"/>
       <path id="DejaVuSans-69" d="M 603 3500 
L 1178 3500 
L 1178 0 
L 603 0 
L 603 3500 
z
M 603 4863 
L 1178 4863 
L 1178 4134 
L 603 4134 
L 603 4863 
z
" transform="scale(0.015625)"/>
      </defs>
      <use xlink:href="#DejaVuSans-52"/>
      <use xlink:href="#DejaVuSans-65" x="64.982422"/>
      <use xlink:href="#DejaVuSans-63" x="126.505859"/>
      <use xlink:href="#DejaVuSans-6f" x="181.486328"/>
      <use xlink:href="#DejaVuSans-6e" x="242.667969"/>
      <use xlink:href="#DejaVuSans-73" x="306.046875"/>
      <use xlink:href="#DejaVuSans-74" x="358.146484"/>
      <use xlink:href="#DejaVuSans-72" x="397.355469"/>
      <use xlink:href="#DejaVuSans-75" x="438.46875"/>
      <use xlink:href="#DejaVuSans-63" x="501.847656"/>
      <use xlink:href="#DejaVuSans-74" x="556.828125"/>
      <use xlink:href="#DejaVuSans-69" x="596.037109"/>
      <use xlink:href="#DejaVuSans-6f" x="623.820312"/>
      <use xlink:href="#DejaVuSans-6e" x="685.001953"/>
     </g>
    </g>
   </g>
  </g>
 </g>
 <defs>
  <clipPath id="p0b1fe02b22">
   <rect x="57.6" y="41.472" width="357.12" height="266.112"/>
  </clipPath>
 </defs>
</svg>
