<?xml version="1.0" encoding="utf-8" standalone="no"?>
<!DOCTYPE svg PUBLIC "-//W3C//DTD SVG 1.1//EN"
  "http://www.w3.org/Graphics/SVG/1.1/DTD/svg11.dtd">
<svg xmlns:xlink="http://www.w3.org/1999/xlink" width="460.8pt" height="345.6pt" viewBox="0 0 460.8 345.6" xmlns="http://www.w3.org/2000/svg" version="1.1">
 <metadata>
  <rdf:RDF xmlns:dc="http://purl.org/dc/elements/1.1/" xmlns:cc="http://creativecommons.org/ns#" xmlns:rdf="http://www.w3.org/1999/02/22-rdf-syntax-ns#">
   <cc:Work>
    <dc:type rdf:resource="http://purl.org/dc/dcmitype/StillImage"/>
    <dc:date>2023-02-15T18:24:12.848089</dc:date>
    <dc:format>image/svg+xml</dc:format>
    <dc:creator>
     <cc:Agent>
      <dc:title>Matplotlib v3.6.2, https://matplotlib.org/</dc:title>
     </cc:Agent>
    </dc:creator>
   </cc:Work>
  </rdf:RDF>
 </metadata>
 <defs>
  <style type="text/css">*{stroke-linejoin: round; stroke-linecap: butt}</style>
 </defs>
 <g id="figure_1">
  <g id="patch_1">
   <path d="M 0 345.6 
L 460.8 345.6 
L 460.8 0 
L 0 0 
z
" style="fill: #ffffff"/>
  </g>
  <g id="axes_1">
   <g id="patch_2">
    <path d="M 57.6 307.584 
L 414.72 307.584 
L 414.72 41.472 
L 57.6 41.472 
z
" style="fill: #ffffff"/>
   </g>
   <g id="matplotlib.axis_1">
    <g id="xtick_1">
     <g id="line2d_1">
      <defs>
       <path id="m0f30fa3c5f" d="M 0 0 
L 0 3.5 
" style="stroke: #000000; stroke-width: 0.8"/>
      </defs>
      <g>
       <use xlink:href="#m0f30fa3c5f" x="73.832727" y="307.584" style="stroke: #000000; stroke-width: 0.8"/>
      </g>
     </g>
     <g id="text_1">
      <!-- 0 -->
      <g transform="translate(70.651477 322.182437) scale(0.1 -0.1)">
       <defs>
        <path id="DejaVuSans-30" d="M 2034 4250 
Q 1547 4250 1301 3770 
Q 1056 3291 1056 2328 
Q 1056 1369 1301 889 
Q 1547 409 2034 409 
Q 2525 409 2770 889 
Q 3016 1369 3016 2328 
Q 3016 3291 2770 3770 
Q 2525 4250 2034 4250 
z
M 2034 4750 
Q 2819 4750 3233 4129 
Q 3647 3509 3647 2328 
Q 3647 1150 3233 529 
Q 2819 -91 2034 -91 
Q 1250 -91 836 529 
Q 422 1150 422 2328 
Q 422 3509 836 4129 
Q 1250 4750 2034 4750 
z
" transform="scale(0.015625)"/>
       </defs>
       <use xlink:href="#DejaVuSans-30"/>
      </g>
     </g>
    </g>
    <g id="xtick_2">
     <g id="line2d_2">
      <g>
       <use xlink:href="#m0f30fa3c5f" x="122.28863" y="307.584" style="stroke: #000000; stroke-width: 0.8"/>
      </g>
     </g>
     <g id="text_2">
      <!-- 50 -->
      <g transform="translate(115.92613 322.182437) scale(0.1 -0.1)">
       <defs>
        <path id="DejaVuSans-35" d="M 691 4666 
L 3169 4666 
L 3169 4134 
L 1269 4134 
L 1269 2991 
Q 1406 3038 1543 3061 
Q 1681 3084 1819 3084 
Q 2600 3084 3056 2656 
Q 3513 2228 3513 1497 
Q 3513 744 3044 326 
Q 2575 -91 1722 -91 
Q 1428 -91 1123 -41 
Q 819 9 494 109 
L 494 744 
Q 775 591 1075 516 
Q 1375 441 1709 441 
Q 2250 441 2565 725 
Q 2881 1009 2881 1497 
Q 2881 1984 2565 2268 
Q 2250 2553 1709 2553 
Q 1456 2553 1204 2497 
Q 953 2441 691 2322 
L 691 4666 
z
" transform="scale(0.015625)"/>
       </defs>
       <use xlink:href="#DejaVuSans-35"/>
       <use xlink:href="#DejaVuSans-30" x="63.623047"/>
      </g>
     </g>
    </g>
    <g id="xtick_3">
     <g id="line2d_3">
      <g>
       <use xlink:href="#m0f30fa3c5f" x="170.744532" y="307.584" style="stroke: #000000; stroke-width: 0.8"/>
      </g>
     </g>
     <g id="text_3">
      <!-- 100 -->
      <g transform="translate(161.200782 322.182437) scale(0.1 -0.1)">
       <defs>
        <path id="DejaVuSans-31" d="M 794 531 
L 1825 531 
L 1825 4091 
L 703 3866 
L 703 4441 
L 1819 4666 
L 2450 4666 
L 2450 531 
L 3481 531 
L 3481 0 
L 794 0 
L 794 531 
z
" transform="scale(0.015625)"/>
       </defs>
       <use xlink:href="#DejaVuSans-31"/>
       <use xlink:href="#DejaVuSans-30" x="63.623047"/>
       <use xlink:href="#DejaVuSans-30" x="127.246094"/>
      </g>
     </g>
    </g>
    <g id="xtick_4">
     <g id="line2d_4">
      <g>
       <use xlink:href="#m0f30fa3c5f" x="219.200434" y="307.584" style="stroke: #000000; stroke-width: 0.8"/>
      </g>
     </g>
     <g id="text_4">
      <!-- 150 -->
      <g transform="translate(209.656684 322.182437) scale(0.1 -0.1)">
       <use xlink:href="#DejaVuSans-31"/>
       <use xlink:href="#DejaVuSans-35" x="63.623047"/>
       <use xlink:href="#DejaVuSans-30" x="127.246094"/>
      </g>
     </g>
    </g>
    <g id="xtick_5">
     <g id="line2d_5">
      <g>
       <use xlink:href="#m0f30fa3c5f" x="267.656336" y="307.584" style="stroke: #000000; stroke-width: 0.8"/>
      </g>
     </g>
     <g id="text_5">
      <!-- 200 -->
      <g transform="translate(258.112586 322.182437) scale(0.1 -0.1)">
       <defs>
        <path id="DejaVuSans-32" d="M 1228 531 
L 3431 531 
L 3431 0 
L 469 0 
L 469 531 
Q 828 903 1448 1529 
Q 2069 2156 2228 2338 
Q 2531 2678 2651 2914 
Q 2772 3150 2772 3378 
Q 2772 3750 2511 3984 
Q 2250 4219 1831 4219 
Q 1534 4219 1204 4116 
Q 875 4013 500 3803 
L 500 4441 
Q 881 4594 1212 4672 
Q 1544 4750 1819 4750 
Q 2544 4750 2975 4387 
Q 3406 4025 3406 3419 
Q 3406 3131 3298 2873 
Q 3191 2616 2906 2266 
Q 2828 2175 2409 1742 
Q 1991 1309 1228 531 
z
" transform="scale(0.015625)"/>
       </defs>
       <use xlink:href="#DejaVuSans-32"/>
       <use xlink:href="#DejaVuSans-30" x="63.623047"/>
       <use xlink:href="#DejaVuSans-30" x="127.246094"/>
      </g>
     </g>
    </g>
    <g id="xtick_6">
     <g id="line2d_6">
      <g>
       <use xlink:href="#m0f30fa3c5f" x="316.112239" y="307.584" style="stroke: #000000; stroke-width: 0.8"/>
      </g>
     </g>
     <g id="text_6">
      <!-- 250 -->
      <g transform="translate(306.568489 322.182437) scale(0.1 -0.1)">
       <use xlink:href="#DejaVuSans-32"/>
       <use xlink:href="#DejaVuSans-35" x="63.623047"/>
       <use xlink:href="#DejaVuSans-30" x="127.246094"/>
      </g>
     </g>
    </g>
    <g id="xtick_7">
     <g id="line2d_7">
      <g>
       <use xlink:href="#m0f30fa3c5f" x="364.568141" y="307.584" style="stroke: #000000; stroke-width: 0.8"/>
      </g>
     </g>
     <g id="text_7">
      <!-- 300 -->
      <g transform="translate(355.024391 322.182437) scale(0.1 -0.1)">
       <defs>
        <path id="DejaVuSans-33" d="M 2597 2516 
Q 3050 2419 3304 2112 
Q 3559 1806 3559 1356 
Q 3559 666 3084 287 
Q 2609 -91 1734 -91 
Q 1441 -91 1130 -33 
Q 819 25 488 141 
L 488 750 
Q 750 597 1062 519 
Q 1375 441 1716 441 
Q 2309 441 2620 675 
Q 2931 909 2931 1356 
Q 2931 1769 2642 2001 
Q 2353 2234 1838 2234 
L 1294 2234 
L 1294 2753 
L 1863 2753 
Q 2328 2753 2575 2939 
Q 2822 3125 2822 3475 
Q 2822 3834 2567 4026 
Q 2313 4219 1838 4219 
Q 1578 4219 1281 4162 
Q 984 4106 628 3988 
L 628 4550 
Q 988 4650 1302 4700 
Q 1616 4750 1894 4750 
Q 2613 4750 3031 4423 
Q 3450 4097 3450 3541 
Q 3450 3153 3228 2886 
Q 3006 2619 2597 2516 
z
" transform="scale(0.015625)"/>
       </defs>
       <use xlink:href="#DejaVuSans-33"/>
       <use xlink:href="#DejaVuSans-30" x="63.623047"/>
       <use xlink:href="#DejaVuSans-30" x="127.246094"/>
      </g>
     </g>
    </g>
    <g id="xtick_8">
     <g id="line2d_8">
      <g>
       <use xlink:href="#m0f30fa3c5f" x="413.024043" y="307.584" style="stroke: #000000; stroke-width: 0.8"/>
      </g>
     </g>
     <g id="text_8">
      <!-- 350 -->
      <g transform="translate(403.480293 322.182437) scale(0.1 -0.1)">
       <use xlink:href="#DejaVuSans-33"/>
       <use xlink:href="#DejaVuSans-35" x="63.623047"/>
       <use xlink:href="#DejaVuSans-30" x="127.246094"/>
      </g>
     </g>
    </g>
    <g id="text_9">
     <!-- Sample number in given week -->
     <g transform="translate(160.077969 335.860562) scale(0.1 -0.1)">
      <defs>
       <path id="DejaVuSans-53" d="M 3425 4513 
L 3425 3897 
Q 3066 4069 2747 4153 
Q 2428 4238 2131 4238 
Q 1616 4238 1336 4038 
Q 1056 3838 1056 3469 
Q 1056 3159 1242 3001 
Q 1428 2844 1947 2747 
L 2328 2669 
Q 3034 2534 3370 2195 
Q 3706 1856 3706 1288 
Q 3706 609 3251 259 
Q 2797 -91 1919 -91 
Q 1588 -91 1214 -16 
Q 841 59 441 206 
L 441 856 
Q 825 641 1194 531 
Q 1563 422 1919 422 
Q 2459 422 2753 634 
Q 3047 847 3047 1241 
Q 3047 1584 2836 1778 
Q 2625 1972 2144 2069 
L 1759 2144 
Q 1053 2284 737 2584 
Q 422 2884 422 3419 
Q 422 4038 858 4394 
Q 1294 4750 2059 4750 
Q 2388 4750 2728 4690 
Q 3069 4631 3425 4513 
z
" transform="scale(0.015625)"/>
       <path id="DejaVuSans-61" d="M 2194 1759 
Q 1497 1759 1228 1600 
Q 959 1441 959 1056 
Q 959 750 1161 570 
Q 1363 391 1709 391 
Q 2188 391 2477 730 
Q 2766 1069 2766 1631 
L 2766 1759 
L 2194 1759 
z
M 3341 1997 
L 3341 0 
L 2766 0 
L 2766 531 
Q 2569 213 2275 61 
Q 1981 -91 1556 -91 
Q 1019 -91 701 211 
Q 384 513 384 1019 
Q 384 1609 779 1909 
Q 1175 2209 1959 2209 
L 2766 2209 
L 2766 2266 
Q 2766 2663 2505 2880 
Q 2244 3097 1772 3097 
Q 1472 3097 1187 3025 
Q 903 2953 641 2809 
L 641 3341 
Q 956 3463 1253 3523 
Q 1550 3584 1831 3584 
Q 2591 3584 2966 3190 
Q 3341 2797 3341 1997 
z
" transform="scale(0.015625)"/>
       <path id="DejaVuSans-6d" d="M 3328 2828 
Q 3544 3216 3844 3400 
Q 4144 3584 4550 3584 
Q 5097 3584 5394 3201 
Q 5691 2819 5691 2113 
L 5691 0 
L 5113 0 
L 5113 2094 
Q 5113 2597 4934 2840 
Q 4756 3084 4391 3084 
Q 3944 3084 3684 2787 
Q 3425 2491 3425 1978 
L 3425 0 
L 2847 0 
L 2847 2094 
Q 2847 2600 2669 2842 
Q 2491 3084 2119 3084 
Q 1678 3084 1418 2786 
Q 1159 2488 1159 1978 
L 1159 0 
L 581 0 
L 581 3500 
L 1159 3500 
L 1159 2956 
Q 1356 3278 1631 3431 
Q 1906 3584 2284 3584 
Q 2666 3584 2933 3390 
Q 3200 3197 3328 2828 
z
" transform="scale(0.015625)"/>
       <path id="DejaVuSans-70" d="M 1159 525 
L 1159 -1331 
L 581 -1331 
L 581 3500 
L 1159 3500 
L 1159 2969 
Q 1341 3281 1617 3432 
Q 1894 3584 2278 3584 
Q 2916 3584 3314 3078 
Q 3713 2572 3713 1747 
Q 3713 922 3314 415 
Q 2916 -91 2278 -91 
Q 1894 -91 1617 61 
Q 1341 213 1159 525 
z
M 3116 1747 
Q 3116 2381 2855 2742 
Q 2594 3103 2138 3103 
Q 1681 3103 1420 2742 
Q 1159 2381 1159 1747 
Q 1159 1113 1420 752 
Q 1681 391 2138 391 
Q 2594 391 2855 752 
Q 3116 1113 3116 1747 
z
" transform="scale(0.015625)"/>
       <path id="DejaVuSans-6c" d="M 603 4863 
L 1178 4863 
L 1178 0 
L 603 0 
L 603 4863 
z
" transform="scale(0.015625)"/>
       <path id="DejaVuSans-65" d="M 3597 1894 
L 3597 1613 
L 953 1613 
Q 991 1019 1311 708 
Q 1631 397 2203 397 
Q 2534 397 2845 478 
Q 3156 559 3463 722 
L 3463 178 
Q 3153 47 2828 -22 
Q 2503 -91 2169 -91 
Q 1331 -91 842 396 
Q 353 884 353 1716 
Q 353 2575 817 3079 
Q 1281 3584 2069 3584 
Q 2775 3584 3186 3129 
Q 3597 2675 3597 1894 
z
M 3022 2063 
Q 3016 2534 2758 2815 
Q 2500 3097 2075 3097 
Q 1594 3097 1305 2825 
Q 1016 2553 972 2059 
L 3022 2063 
z
" transform="scale(0.015625)"/>
       <path id="DejaVuSans-20" transform="scale(0.015625)"/>
       <path id="DejaVuSans-6e" d="M 3513 2113 
L 3513 0 
L 2938 0 
L 2938 2094 
Q 2938 2591 2744 2837 
Q 2550 3084 2163 3084 
Q 1697 3084 1428 2787 
Q 1159 2491 1159 1978 
L 1159 0 
L 581 0 
L 581 3500 
L 1159 3500 
L 1159 2956 
Q 1366 3272 1645 3428 
Q 1925 3584 2291 3584 
Q 2894 3584 3203 3211 
Q 3513 2838 3513 2113 
z
" transform="scale(0.015625)"/>
       <path id="DejaVuSans-75" d="M 544 1381 
L 544 3500 
L 1119 3500 
L 1119 1403 
Q 1119 906 1312 657 
Q 1506 409 1894 409 
Q 2359 409 2629 706 
Q 2900 1003 2900 1516 
L 2900 3500 
L 3475 3500 
L 3475 0 
L 2900 0 
L 2900 538 
Q 2691 219 2414 64 
Q 2138 -91 1772 -91 
Q 1169 -91 856 284 
Q 544 659 544 1381 
z
M 1991 3584 
L 1991 3584 
z
" transform="scale(0.015625)"/>
       <path id="DejaVuSans-62" d="M 3116 1747 
Q 3116 2381 2855 2742 
Q 2594 3103 2138 3103 
Q 1681 3103 1420 2742 
Q 1159 2381 1159 1747 
Q 1159 1113 1420 752 
Q 1681 391 2138 391 
Q 2594 391 2855 752 
Q 3116 1113 3116 1747 
z
M 1159 2969 
Q 1341 3281 1617 3432 
Q 1894 3584 2278 3584 
Q 2916 3584 3314 3078 
Q 3713 2572 3713 1747 
Q 3713 922 3314 415 
Q 2916 -91 2278 -91 
Q 1894 -91 1617 61 
Q 1341 213 1159 525 
L 1159 0 
L 581 0 
L 581 4863 
L 1159 4863 
L 1159 2969 
z
" transform="scale(0.015625)"/>
       <path id="DejaVuSans-72" d="M 2631 2963 
Q 2534 3019 2420 3045 
Q 2306 3072 2169 3072 
Q 1681 3072 1420 2755 
Q 1159 2438 1159 1844 
L 1159 0 
L 581 0 
L 581 3500 
L 1159 3500 
L 1159 2956 
Q 1341 3275 1631 3429 
Q 1922 3584 2338 3584 
Q 2397 3584 2469 3576 
Q 2541 3569 2628 3553 
L 2631 2963 
z
" transform="scale(0.015625)"/>
       <path id="DejaVuSans-69" d="M 603 3500 
L 1178 3500 
L 1178 0 
L 603 0 
L 603 3500 
z
M 603 4863 
L 1178 4863 
L 1178 4134 
L 603 4134 
L 603 4863 
z
" transform="scale(0.015625)"/>
       <path id="DejaVuSans-67" d="M 2906 1791 
Q 2906 2416 2648 2759 
Q 2391 3103 1925 3103 
Q 1463 3103 1205 2759 
Q 947 2416 947 1791 
Q 947 1169 1205 825 
Q 1463 481 1925 481 
Q 2391 481 2648 825 
Q 2906 1169 2906 1791 
z
M 3481 434 
Q 3481 -459 3084 -895 
Q 2688 -1331 1869 -1331 
Q 1566 -1331 1297 -1286 
Q 1028 -1241 775 -1147 
L 775 -588 
Q 1028 -725 1275 -790 
Q 1522 -856 1778 -856 
Q 2344 -856 2625 -561 
Q 2906 -266 2906 331 
L 2906 616 
Q 2728 306 2450 153 
Q 2172 0 1784 0 
Q 1141 0 747 490 
Q 353 981 353 1791 
Q 353 2603 747 3093 
Q 1141 3584 1784 3584 
Q 2172 3584 2450 3431 
Q 2728 3278 2906 2969 
L 2906 3500 
L 3481 3500 
L 3481 434 
z
" transform="scale(0.015625)"/>
       <path id="DejaVuSans-76" d="M 191 3500 
L 800 3500 
L 1894 563 
L 2988 3500 
L 3597 3500 
L 2284 0 
L 1503 0 
L 191 3500 
z
" transform="scale(0.015625)"/>
       <path id="DejaVuSans-77" d="M 269 3500 
L 844 3500 
L 1563 769 
L 2278 3500 
L 2956 3500 
L 3675 769 
L 4391 3500 
L 4966 3500 
L 4050 0 
L 3372 0 
L 2619 2869 
L 1863 0 
L 1184 0 
L 269 3500 
z
" transform="scale(0.015625)"/>
       <path id="DejaVuSans-6b" d="M 581 4863 
L 1159 4863 
L 1159 1991 
L 2875 3500 
L 3609 3500 
L 1753 1863 
L 3688 0 
L 2938 0 
L 1159 1709 
L 1159 0 
L 581 0 
L 581 4863 
z
" transform="scale(0.015625)"/>
      </defs>
      <use xlink:href="#DejaVuSans-53"/>
      <use xlink:href="#DejaVuSans-61" x="63.476562"/>
      <use xlink:href="#DejaVuSans-6d" x="124.755859"/>
      <use xlink:href="#DejaVuSans-70" x="222.167969"/>
      <use xlink:href="#DejaVuSans-6c" x="285.644531"/>
      <use xlink:href="#DejaVuSans-65" x="313.427734"/>
      <use xlink:href="#DejaVuSans-20" x="374.951172"/>
      <use xlink:href="#DejaVuSans-6e" x="406.738281"/>
      <use xlink:href="#DejaVuSans-75" x="470.117188"/>
      <use xlink:href="#DejaVuSans-6d" x="533.496094"/>
      <use xlink:href="#DejaVuSans-62" x="630.908203"/>
      <use xlink:href="#DejaVuSans-65" x="694.384766"/>
      <use xlink:href="#DejaVuSans-72" x="755.908203"/>
      <use xlink:href="#DejaVuSans-20" x="797.021484"/>
      <use xlink:href="#DejaVuSans-69" x="828.808594"/>
      <use xlink:href="#DejaVuSans-6e" x="856.591797"/>
      <use xlink:href="#DejaVuSans-20" x="919.970703"/>
      <use xlink:href="#DejaVuSans-67" x="951.757812"/>
      <use xlink:href="#DejaVuSans-69" x="1015.234375"/>
      <use xlink:href="#DejaVuSans-76" x="1043.017578"/>
      <use xlink:href="#DejaVuSans-65" x="1102.197266"/>
      <use xlink:href="#DejaVuSans-6e" x="1163.720703"/>
      <use xlink:href="#DejaVuSans-20" x="1227.099609"/>
      <use xlink:href="#DejaVuSans-77" x="1258.886719"/>
      <use xlink:href="#DejaVuSans-65" x="1340.673828"/>
      <use xlink:href="#DejaVuSans-65" x="1402.197266"/>
      <use xlink:href="#DejaVuSans-6b" x="1463.720703"/>
     </g>
    </g>
   </g>
   <g id="matplotlib.axis_2">
    <g id="ytick_1">
     <g id="line2d_9">
      <defs>
       <path id="m47756204fa" d="M 0 0 
L -3.5 0 
" style="stroke: #000000; stroke-width: 0.8"/>
      </defs>
      <g>
       <use xlink:href="#m47756204fa" x="57.6" y="304.676244" style="stroke: #000000; stroke-width: 0.8"/>
      </g>
     </g>
     <g id="text_10">
      <!-- 0.0 -->
      <g transform="translate(34.696875 308.475463) scale(0.1 -0.1)">
       <defs>
        <path id="DejaVuSans-2e" d="M 684 794 
L 1344 794 
L 1344 0 
L 684 0 
L 684 794 
z
" transform="scale(0.015625)"/>
       </defs>
       <use xlink:href="#DejaVuSans-30"/>
       <use xlink:href="#DejaVuSans-2e" x="63.623047"/>
       <use xlink:href="#DejaVuSans-30" x="95.410156"/>
      </g>
     </g>
    </g>
    <g id="ytick_2">
     <g id="line2d_10">
      <g>
       <use xlink:href="#m47756204fa" x="57.6" y="270.103869" style="stroke: #000000; stroke-width: 0.8"/>
      </g>
     </g>
     <g id="text_11">
      <!-- 0.1 -->
      <g transform="translate(34.696875 273.903087) scale(0.1 -0.1)">
       <use xlink:href="#DejaVuSans-30"/>
       <use xlink:href="#DejaVuSans-2e" x="63.623047"/>
       <use xlink:href="#DejaVuSans-31" x="95.410156"/>
      </g>
     </g>
    </g>
    <g id="ytick_3">
     <g id="line2d_11">
      <g>
       <use xlink:href="#m47756204fa" x="57.6" y="235.531493" style="stroke: #000000; stroke-width: 0.8"/>
      </g>
     </g>
     <g id="text_12">
      <!-- 0.2 -->
      <g transform="translate(34.696875 239.330712) scale(0.1 -0.1)">
       <use xlink:href="#DejaVuSans-30"/>
       <use xlink:href="#DejaVuSans-2e" x="63.623047"/>
       <use xlink:href="#DejaVuSans-32" x="95.410156"/>
      </g>
     </g>
    </g>
    <g id="ytick_4">
     <g id="line2d_12">
      <g>
       <use xlink:href="#m47756204fa" x="57.6" y="200.959117" style="stroke: #000000; stroke-width: 0.8"/>
      </g>
     </g>
     <g id="text_13">
      <!-- 0.3 -->
      <g transform="translate(34.696875 204.758336) scale(0.1 -0.1)">
       <use xlink:href="#DejaVuSans-30"/>
       <use xlink:href="#DejaVuSans-2e" x="63.623047"/>
       <use xlink:href="#DejaVuSans-33" x="95.410156"/>
      </g>
     </g>
    </g>
    <g id="ytick_5">
     <g id="line2d_13">
      <g>
       <use xlink:href="#m47756204fa" x="57.6" y="166.386742" style="stroke: #000000; stroke-width: 0.8"/>
      </g>
     </g>
     <g id="text_14">
      <!-- 0.4 -->
      <g transform="translate(34.696875 170.185961) scale(0.1 -0.1)">
       <defs>
        <path id="DejaVuSans-34" d="M 2419 4116 
L 825 1625 
L 2419 1625 
L 2419 4116 
z
M 2253 4666 
L 3047 4666 
L 3047 1625 
L 3713 1625 
L 3713 1100 
L 3047 1100 
L 3047 0 
L 2419 0 
L 2419 1100 
L 313 1100 
L 313 1709 
L 2253 4666 
z
" transform="scale(0.015625)"/>
       </defs>
       <use xlink:href="#DejaVuSans-30"/>
       <use xlink:href="#DejaVuSans-2e" x="63.623047"/>
       <use xlink:href="#DejaVuSans-34" x="95.410156"/>
      </g>
     </g>
    </g>
    <g id="ytick_6">
     <g id="line2d_14">
      <g>
       <use xlink:href="#m47756204fa" x="57.6" y="131.814366" style="stroke: #000000; stroke-width: 0.8"/>
      </g>
     </g>
     <g id="text_15">
      <!-- 0.5 -->
      <g transform="translate(34.696875 135.613585) scale(0.1 -0.1)">
       <use xlink:href="#DejaVuSans-30"/>
       <use xlink:href="#DejaVuSans-2e" x="63.623047"/>
       <use xlink:href="#DejaVuSans-35" x="95.410156"/>
      </g>
     </g>
    </g>
    <g id="ytick_7">
     <g id="line2d_15">
      <g>
       <use xlink:href="#m47756204fa" x="57.6" y="97.241991" style="stroke: #000000; stroke-width: 0.8"/>
      </g>
     </g>
     <g id="text_16">
      <!-- 0.6 -->
      <g transform="translate(34.696875 101.04121) scale(0.1 -0.1)">
       <defs>
        <path id="DejaVuSans-36" d="M 2113 2584 
Q 1688 2584 1439 2293 
Q 1191 2003 1191 1497 
Q 1191 994 1439 701 
Q 1688 409 2113 409 
Q 2538 409 2786 701 
Q 3034 994 3034 1497 
Q 3034 2003 2786 2293 
Q 2538 2584 2113 2584 
z
M 3366 4563 
L 3366 3988 
Q 3128 4100 2886 4159 
Q 2644 4219 2406 4219 
Q 1781 4219 1451 3797 
Q 1122 3375 1075 2522 
Q 1259 2794 1537 2939 
Q 1816 3084 2150 3084 
Q 2853 3084 3261 2657 
Q 3669 2231 3669 1497 
Q 3669 778 3244 343 
Q 2819 -91 2113 -91 
Q 1303 -91 875 529 
Q 447 1150 447 2328 
Q 447 3434 972 4092 
Q 1497 4750 2381 4750 
Q 2619 4750 2861 4703 
Q 3103 4656 3366 4563 
z
" transform="scale(0.015625)"/>
       </defs>
       <use xlink:href="#DejaVuSans-30"/>
       <use xlink:href="#DejaVuSans-2e" x="63.623047"/>
       <use xlink:href="#DejaVuSans-36" x="95.410156"/>
      </g>
     </g>
    </g>
    <g id="ytick_8">
     <g id="line2d_16">
      <g>
       <use xlink:href="#m47756204fa" x="57.6" y="62.669615" style="stroke: #000000; stroke-width: 0.8"/>
      </g>
     </g>
     <g id="text_17">
      <!-- 0.7 -->
      <g transform="translate(34.696875 66.468834) scale(0.1 -0.1)">
       <defs>
        <path id="DejaVuSans-37" d="M 525 4666 
L 3525 4666 
L 3525 4397 
L 1831 0 
L 1172 0 
L 2766 4134 
L 525 4134 
L 525 4666 
z
" transform="scale(0.015625)"/>
       </defs>
       <use xlink:href="#DejaVuSans-30"/>
       <use xlink:href="#DejaVuSans-2e" x="63.623047"/>
       <use xlink:href="#DejaVuSans-37" x="95.410156"/>
      </g>
     </g>
    </g>
    <g id="text_18">
     <!-- Normalised data point value -->
     <g transform="translate(28.617187 245.303) rotate(-90) scale(0.1 -0.1)">
      <defs>
       <path id="DejaVuSans-4e" d="M 628 4666 
L 1478 4666 
L 3547 763 
L 3547 4666 
L 4159 4666 
L 4159 0 
L 3309 0 
L 1241 3903 
L 1241 0 
L 628 0 
L 628 4666 
z
" transform="scale(0.015625)"/>
       <path id="DejaVuSans-6f" d="M 1959 3097 
Q 1497 3097 1228 2736 
Q 959 2375 959 1747 
Q 959 1119 1226 758 
Q 1494 397 1959 397 
Q 2419 397 2687 759 
Q 2956 1122 2956 1747 
Q 2956 2369 2687 2733 
Q 2419 3097 1959 3097 
z
M 1959 3584 
Q 2709 3584 3137 3096 
Q 3566 2609 3566 1747 
Q 3566 888 3137 398 
Q 2709 -91 1959 -91 
Q 1206 -91 779 398 
Q 353 888 353 1747 
Q 353 2609 779 3096 
Q 1206 3584 1959 3584 
z
" transform="scale(0.015625)"/>
       <path id="DejaVuSans-73" d="M 2834 3397 
L 2834 2853 
Q 2591 2978 2328 3040 
Q 2066 3103 1784 3103 
Q 1356 3103 1142 2972 
Q 928 2841 928 2578 
Q 928 2378 1081 2264 
Q 1234 2150 1697 2047 
L 1894 2003 
Q 2506 1872 2764 1633 
Q 3022 1394 3022 966 
Q 3022 478 2636 193 
Q 2250 -91 1575 -91 
Q 1294 -91 989 -36 
Q 684 19 347 128 
L 347 722 
Q 666 556 975 473 
Q 1284 391 1588 391 
Q 1994 391 2212 530 
Q 2431 669 2431 922 
Q 2431 1156 2273 1281 
Q 2116 1406 1581 1522 
L 1381 1569 
Q 847 1681 609 1914 
Q 372 2147 372 2553 
Q 372 3047 722 3315 
Q 1072 3584 1716 3584 
Q 2034 3584 2315 3537 
Q 2597 3491 2834 3397 
z
" transform="scale(0.015625)"/>
       <path id="DejaVuSans-64" d="M 2906 2969 
L 2906 4863 
L 3481 4863 
L 3481 0 
L 2906 0 
L 2906 525 
Q 2725 213 2448 61 
Q 2172 -91 1784 -91 
Q 1150 -91 751 415 
Q 353 922 353 1747 
Q 353 2572 751 3078 
Q 1150 3584 1784 3584 
Q 2172 3584 2448 3432 
Q 2725 3281 2906 2969 
z
M 947 1747 
Q 947 1113 1208 752 
Q 1469 391 1925 391 
Q 2381 391 2643 752 
Q 2906 1113 2906 1747 
Q 2906 2381 2643 2742 
Q 2381 3103 1925 3103 
Q 1469 3103 1208 2742 
Q 947 2381 947 1747 
z
" transform="scale(0.015625)"/>
       <path id="DejaVuSans-74" d="M 1172 4494 
L 1172 3500 
L 2356 3500 
L 2356 3053 
L 1172 3053 
L 1172 1153 
Q 1172 725 1289 603 
Q 1406 481 1766 481 
L 2356 481 
L 2356 0 
L 1766 0 
Q 1100 0 847 248 
Q 594 497 594 1153 
L 594 3053 
L 172 3053 
L 172 3500 
L 594 3500 
L 594 4494 
L 1172 4494 
z
" transform="scale(0.015625)"/>
      </defs>
      <use xlink:href="#DejaVuSans-4e"/>
      <use xlink:href="#DejaVuSans-6f" x="74.804688"/>
      <use xlink:href="#DejaVuSans-72" x="135.986328"/>
      <use xlink:href="#DejaVuSans-6d" x="175.349609"/>
      <use xlink:href="#DejaVuSans-61" x="272.761719"/>
      <use xlink:href="#DejaVuSans-6c" x="334.041016"/>
      <use xlink:href="#DejaVuSans-69" x="361.824219"/>
      <use xlink:href="#DejaVuSans-73" x="389.607422"/>
      <use xlink:href="#DejaVuSans-65" x="441.707031"/>
      <use xlink:href="#DejaVuSans-64" x="503.230469"/>
      <use xlink:href="#DejaVuSans-20" x="566.707031"/>
      <use xlink:href="#DejaVuSans-64" x="598.494141"/>
      <use xlink:href="#DejaVuSans-61" x="661.970703"/>
      <use xlink:href="#DejaVuSans-74" x="723.25"/>
      <use xlink:href="#DejaVuSans-61" x="762.458984"/>
      <use xlink:href="#DejaVuSans-20" x="823.738281"/>
      <use xlink:href="#DejaVuSans-70" x="855.525391"/>
      <use xlink:href="#DejaVuSans-6f" x="919.001953"/>
      <use xlink:href="#DejaVuSans-69" x="980.183594"/>
      <use xlink:href="#DejaVuSans-6e" x="1007.966797"/>
      <use xlink:href="#DejaVuSans-74" x="1071.345703"/>
      <use xlink:href="#DejaVuSans-20" x="1110.554688"/>
      <use xlink:href="#DejaVuSans-76" x="1142.341797"/>
      <use xlink:href="#DejaVuSans-61" x="1201.521484"/>
      <use xlink:href="#DejaVuSans-6c" x="1262.800781"/>
      <use xlink:href="#DejaVuSans-75" x="1290.583984"/>
      <use xlink:href="#DejaVuSans-65" x="1353.962891"/>
     </g>
    </g>
   </g>
   <g id="line2d_17">
    <path d="M 120.350393 307.584 
L 120.350393 41.472 
" clip-path="url(#p27d7855c4d)" style="fill: none; stroke: #ff0000; stroke-width: 1.5; stroke-linecap: square"/>
   </g>
   <g id="line2d_18">
    <path d="M 166.86806 307.584 
L 166.86806 41.472 
" clip-path="url(#p27d7855c4d)" style="fill: none; stroke: #ff0000; stroke-width: 1.5; stroke-linecap: square"/>
   </g>
   <g id="line2d_19">
    <path d="M 213.385726 307.584 
L 213.385726 41.472 
" clip-path="url(#p27d7855c4d)" style="fill: none; stroke: #ff0000; stroke-width: 1.5; stroke-linecap: square"/>
   </g>
   <g id="line2d_20">
    <path d="M 259.903392 307.584 
L 259.903392 41.472 
" clip-path="url(#p27d7855c4d)" style="fill: none; stroke: #ff0000; stroke-width: 1.5; stroke-linecap: square"/>
   </g>
   <g id="line2d_21">
    <path d="M 306.421058 307.584 
L 306.421058 41.472 
" clip-path="url(#p27d7855c4d)" style="fill: none; stroke: #ff0000; stroke-width: 1.5; stroke-linecap: square"/>
   </g>
   <g id="line2d_22">
    <path d="M 352.938725 307.584 
L 352.938725 41.472 
" clip-path="url(#p27d7855c4d)" style="fill: none; stroke: #ff0000; stroke-width: 1.5; stroke-linecap: square"/>
   </g>
   <g id="line2d_23">
    <path d="M 73.832727 73.435052 
L 74.801845 90.470255 
L 75.770963 103.173876 
L 76.740081 121.858785 
L 77.709199 136.415018 
L 79.647436 179.580864 
L 81.585672 215.248045 
L 82.55479 252.679617 
L 83.523908 269.608957 
L 84.493026 273.375933 
L 85.462144 272.537847 
L 86.431262 259.287264 
L 87.40038 257.293502 
L 89.338616 224.731651 
L 90.307734 197.877607 
L 91.276852 184.194749 
L 92.24597 150.688948 
L 93.215088 152.929725 
L 94.184206 125.669872 
L 95.153324 126.058038 
L 96.122442 102.009377 
L 97.09156 98.595279 
L 98.060678 97.92481 
L 99.029796 105.282324 
L 99.998915 108.387654 
L 100.968033 118.074165 
L 101.937151 102.194639 
L 102.906269 101.780007 
L 103.875387 118.206494 
L 105.813623 163.348459 
L 107.751859 107.478992 
L 108.720977 90.76138 
L 109.690095 71.75888 
L 110.659213 63.228045 
L 111.628331 73.126283 
L 112.597449 93.222706 
L 113.566567 96.857353 
L 114.535685 104.461882 
L 115.504803 101.153647 
L 116.473921 77.537263 
L 117.443039 66.306909 
L 118.412157 56.620398 
L 119.381275 53.568 
L 120.350393 62.813413 
L 121.319512 79.848616 
L 122.28863 85.291765 
L 123.257748 105.026487 
L 124.226866 119.370993 
L 125.195984 136.247401 
L 128.103338 198.680405 
L 129.072456 242.384391 
L 130.041574 265.462636 
L 131.010692 274.019936 
L 131.97981 274.055224 
L 132.948928 269.741286 
L 133.918046 268.647363 
L 134.887164 252.900166 
L 135.856282 244.36051 
L 136.8254 231.674532 
L 137.794518 214.489356 
L 138.763636 188.394001 
L 139.732754 177.198935 
L 140.701872 152.268079 
L 141.670991 147.715948 
L 142.640109 132.639219 
L 143.609227 123.482026 
L 144.578345 126.446204 
L 145.547463 127.945937 
L 146.516581 131.668804 
L 147.485699 128.775201 
L 148.454817 129.683863 
L 149.423935 136.353264 
L 150.393053 135.038792 
L 151.362171 143.163817 
L 152.331289 154.808803 
L 153.300407 144.769413 
L 154.269525 131.545297 
L 155.238643 126.507958 
L 156.207761 129.98381 
L 157.176879 146.613203 
L 158.145997 155.320476 
L 159.115115 171.570525 
L 160.084233 167.662397 
L 161.053351 174.128893 
L 162.022469 172.108665 
L 162.991588 187.547093 
L 163.960706 198.089334 
L 165.898942 224.149401 
L 167.837178 242.816667 
L 168.806296 255.679083 
L 169.775414 270.191206 
L 170.744532 273.058343 
L 171.71365 281.483314 
L 172.682768 286.829421 
L 173.651886 287.985097 
L 174.621004 285.585525 
L 175.590122 287.032326 
L 176.55924 282.286112 
L 177.528358 265.850802 
L 178.497476 240.619999 
L 179.466594 200.091919 
L 180.435712 179.086834 
L 181.40483 152.673889 
L 182.373948 142.581567 
L 184.312185 150.830099 
L 185.281303 156.7761 
L 186.250421 169.603228 
L 187.219539 164.768795 
L 188.188657 165.792142 
L 189.157775 150.69777 
L 190.126893 161.019462 
L 191.096011 160.798913 
L 192.065129 162.67799 
L 193.034247 155.06464 
L 194.003365 154.464746 
L 194.972483 146.163283 
L 195.941601 143.922505 
L 197.879837 173.414314 
L 198.848955 183.824226 
L 199.818073 158.337586 
L 200.787191 139.926158 
L 201.756309 125.758091 
L 202.725427 116.1598 
L 203.694545 110.998954 
L 204.663664 118.374112 
L 205.632782 123.623177 
L 206.6019 135.215232 
L 207.571018 134.015445 
L 208.540136 136.168003 
L 209.509254 138.770481 
L 210.478372 154.455924 
L 211.44749 179.942564 
L 212.416608 202.456204 
L 213.385726 215.72443 
L 214.354844 237.92048 
L 215.323962 252.01797 
L 216.29308 263.239502 
L 218.231316 279.21607 
L 219.200434 282.947759 
L 220.169552 286.088376 
L 221.13867 282.921293 
L 222.107788 284.588643 
L 223.076906 282.356688 
L 224.046024 266.106639 
L 225.015142 247.077673 
L 225.984261 205.605643 
L 227.922497 144.301849 
L 228.891615 138.144122 
L 229.860733 135.471068 
L 230.829851 142.440416 
L 231.798969 145.448704 
L 232.768087 155.664533 
L 233.737205 153.564907 
L 234.706323 161.804616 
L 235.675441 148.227621 
L 236.644559 147.336603 
L 237.613677 147.133698 
L 238.582795 149.939081 
L 239.551913 143.252036 
L 240.521031 140.861285 
L 241.490149 141.487644 
L 242.459267 139.855582 
L 243.428385 165.986225 
L 244.397503 186.567856 
L 245.366621 199.562601 
L 247.304858 154.544144 
L 248.273976 136.441484 
L 249.243094 124.434798 
L 250.212212 121.461797 
L 251.18133 120.006174 
L 252.150448 126.463848 
L 253.119566 128.422323 
L 254.088684 128.731092 
L 256.02692 141.937564 
L 256.996038 145.095826 
L 257.965156 150.706592 
L 258.934274 163.57783 
L 260.87251 207.899353 
L 262.810746 247.880471 
L 263.779864 258.828523 
L 264.748982 268.417992 
L 265.7181 273.781743 
L 266.687218 276.084275 
L 267.656336 272.123215 
L 268.625455 273.128918 
L 269.594573 272.793684 
L 270.563691 260.75171 
L 271.532809 241.114029 
L 273.471045 179.995496 
L 274.440163 155.082283 
L 275.409281 133.680211 
L 276.378399 132.215765 
L 277.347517 136.538525 
L 278.316635 138.832235 
L 279.285753 143.904861 
L 280.254871 137.138419 
L 281.223989 138.04708 
L 282.193107 130.38962 
L 283.162225 126.305053 
L 284.131343 131.818777 
L 285.100461 124.284824 
L 286.069579 132.01286 
L 287.038697 135.753371 
L 288.007815 132.083436 
L 288.976934 137.791244 
L 289.946052 149.965547 
L 290.91517 168.315222 
L 291.884288 180.321908 
L 293.822524 127.310756 
L 294.791642 119.353349 
L 295.76076 114.368942 
L 296.729878 106.243918 
L 297.698996 118.082987 
L 298.668114 137.208994 
L 299.637232 145.545746 
L 301.575468 141.205342 
L 302.544586 153.273782 
L 303.513704 154.058936 
L 304.482822 167.009572 
L 305.45194 183.727185 
L 306.421058 185.456289 
L 307.390176 204.855777 
L 308.359294 213.748312 
L 309.328412 226.496042 
L 310.297531 232.847853 
L 311.266649 241.149317 
L 312.235767 251.65627 
L 313.204885 253.41184 
L 314.174003 258.069834 
L 315.143121 268.338595 
L 316.112239 273.517085 
L 317.081357 271.973242 
L 319.019593 256.226045 
L 319.988711 252.212053 
L 321.926947 242.322637 
L 322.896065 235.820853 
L 323.865183 230.951132 
L 325.803419 219.217926 
L 326.772537 204.273527 
L 327.741655 192.699117 
L 328.710773 186.532568 
L 329.679891 187.573559 
L 330.649009 185.279849 
L 331.618128 185.315137 
L 332.587246 184.212392 
L 333.556364 181.415831 
L 334.525482 175.302214 
L 335.4946 175.822709 
L 336.463718 170.167834 
L 337.432836 185.121054 
L 338.401954 189.002716 
L 339.371072 187.652956 
L 340.34019 187.114817 
L 341.309308 190.678888 
L 342.278426 184.035953 
L 343.247544 184.044775 
L 344.216662 180.304265 
L 345.18578 180.46306 
L 346.154898 177.560635 
L 347.124016 170.767727 
L 348.093134 169.947285 
L 349.062252 166.647872 
L 350.03137 181.336434 
L 351.000488 193.660711 
L 351.969607 200.550661 
L 352.938725 219.588448 
L 353.907843 236.014936 
L 354.876961 244.210536 
L 355.846079 254.955683 
L 357.784315 272.343764 
L 358.753433 278.76615 
L 359.722551 279.383687 
L 360.691669 279.313112 
L 361.660787 285.647278 
L 362.629905 287.967454 
L 363.599023 285.109139 
L 364.568141 279.427797 
L 365.537259 266.69771 
L 366.506377 261.20163 
L 367.475495 249.697795 
L 368.444613 239.676049 
L 369.413731 226.672482 
L 373.290204 190.334832 
L 374.259322 180.842404 
L 375.22844 169.938463 
L 377.166676 154.552966 
L 378.135794 149.515627 
L 379.104912 142.09636 
L 380.07403 147.918853 
L 381.043148 139.123359 
L 382.012266 138.294095 
L 382.981384 136.723787 
L 383.950502 148.545212 
L 384.91962 158.381696 
L 385.888738 137.561873 
L 386.857856 123.729041 
L 387.826974 122.785091 
L 388.796092 117.483094 
L 389.76521 104.347197 
L 390.734328 119.097512 
L 391.703446 138.347027 
L 392.672564 138.708727 
L 393.641682 141.672906 
L 394.610801 142.281621 
L 395.579919 130.019098 
L 396.549037 131.210062 
L 397.518155 135.065258 
L 398.487273 148.377595 
L 398.487273 148.377595 
" clip-path="url(#p27d7855c4d)" style="fill: none; stroke: #1f77b4; stroke-width: 1.5; stroke-linecap: square"/>
   </g>
   <g id="line2d_24">
    <path d="M 73.832727 99.920983 
L 74.801845 102.39715 
L 75.770963 115.413337 
L 76.740081 138.357883 
L 77.709199 148.526763 
L 78.678318 162.225651 
L 81.585672 222.958747 
L 82.55479 254.330919 
L 83.523908 274.522819 
L 84.493026 279.939329 
L 85.462144 276.135322 
L 86.431262 266.036388 
L 87.40038 253.769561 
L 89.338616 220.879393 
L 90.307734 197.058154 
L 91.276852 181.86572 
L 92.24597 163.837954 
L 93.215088 155.218896 
L 94.184206 142.620562 
L 95.153324 137.262294 
L 96.122442 126.590022 
L 97.09156 124.567882 
L 98.060678 121.337219 
L 99.029796 124.090527 
L 99.998915 126.336023 
L 100.968033 126.121836 
L 101.937151 122.032016 
L 102.906269 121.680115 
L 103.875387 128.471417 
L 104.844505 141.326212 
L 105.813623 150.920185 
L 106.782741 140.044998 
L 107.751859 121.169377 
L 108.720977 104.868847 
L 109.690095 92.186902 
L 110.659213 83.537654 
L 111.628331 86.422083 
L 113.566567 103.396207 
L 114.535685 105.305442 
L 115.504803 100.12466 
L 116.473921 89.873568 
L 117.443039 74.462878 
L 118.412157 66.96256 
L 119.381275 83.608356 
L 120.350393 95.318426 
L 121.319512 92.986278 
L 122.28863 98.203637 
L 123.257748 120.327365 
L 125.195984 148.415508 
L 126.165102 165.879773 
L 127.13422 181.301807 
L 128.103338 202.667526 
L 129.072456 239.561702 
L 130.041574 268.568926 
L 131.010692 282.195541 
L 131.97981 286.242714 
L 132.948928 286.188481 
L 133.918046 283.11503 
L 134.887164 276.180134 
L 135.856282 264.829923 
L 137.794518 226.799653 
L 138.763636 205.675698 
L 140.701872 167.997198 
L 141.670991 157.890869 
L 142.640109 150.765315 
L 143.609227 146.520841 
L 144.578345 141.626864 
L 145.547463 140.996143 
L 146.516581 141.515134 
L 147.485699 142.802169 
L 148.454817 143.166497 
L 149.423935 144.927302 
L 150.393053 149.22222 
L 152.331289 159.339924 
L 153.300407 156.509475 
L 154.269525 147.654707 
L 155.238643 141.813139 
L 156.207761 140.111382 
L 157.176879 144.004501 
L 158.145997 150.14836 
L 159.115115 157.722172 
L 160.084233 160.505462 
L 161.053351 161.762948 
L 162.022469 164.641792 
L 162.991588 173.293738 
L 164.929824 198.374935 
L 165.898942 190.177491 
L 166.86806 214.602487 
L 167.837178 249.900645 
L 168.806296 264.107837 
L 169.775414 272.15191 
L 170.744532 281.215773 
L 171.71365 288.101358 
L 172.682768 292.729102 
L 173.651886 294.983635 
L 174.621004 295.488 
L 175.590122 294.086463 
L 176.55924 289.186447 
L 177.528358 274.657767 
L 178.497476 250.082979 
L 179.466594 216.122244 
L 181.40483 163.979131 
L 182.373948 152.302382 
L 183.343066 148.927441 
L 184.312185 151.592181 
L 185.281303 156.675442 
L 186.250421 165.32711 
L 187.219539 167.858092 
L 188.188657 169.100194 
L 189.157775 161.274805 
L 190.126893 158.039175 
L 191.096011 156.479194 
L 192.065129 158.492967 
L 194.003365 150.974185 
L 194.972483 147.772196 
L 195.941601 149.78056 
L 197.879837 169.386556 
L 198.848955 170.313035 
L 199.818073 156.702849 
L 200.787191 138.448954 
L 201.756309 123.137341 
L 202.725427 114.54703 
L 203.694545 111.947221 
L 204.663664 118.44871 
L 205.632782 127.012748 
L 206.6019 133.828871 
L 207.571018 135.053962 
L 208.540136 137.431445 
L 209.509254 142.489421 
L 210.478372 152.91024 
L 211.44749 172.261392 
L 212.416608 181.368727 
L 213.385726 207.609537 
L 214.354844 242.246039 
L 215.323962 257.679721 
L 218.231316 284.865124 
L 219.200434 290.210355 
L 220.169552 292.90081 
L 221.13867 293.584622 
L 222.107788 292.325726 
L 223.076906 287.466606 
L 224.046024 272.871644 
L 225.015142 248.213777 
L 225.984261 214.144904 
L 227.922497 162.29523 
L 228.891615 150.897878 
L 229.860733 147.382894 
L 230.829851 150.152316 
L 231.798969 155.005791 
L 232.768087 163.334387 
L 233.737205 165.571475 
L 234.706323 166.774445 
L 235.675441 159.030772 
L 236.644559 155.798986 
L 237.613677 154.705643 
L 238.582795 156.718582 
L 240.521031 149.52788 
L 241.490149 146.536997 
L 242.459267 148.488693 
L 244.397503 168.252402 
L 245.366621 169.889402 
L 246.335739 155.853995 
L 247.304858 137.293122 
L 248.273976 121.714961 
L 249.243094 112.516709 
L 250.212212 108.972288 
L 251.18133 114.575941 
L 252.150448 122.773838 
L 253.119566 128.868179 
L 254.088684 128.339925 
L 255.057802 131.194433 
L 256.02692 136.674013 
L 256.996038 146.829984 
L 257.965156 164.813158 
L 258.934274 174.166238 
L 259.903392 188.463278 
L 260.87251 218.871359 
L 261.841628 236.488438 
L 263.779864 262.23447 
L 264.748982 272.566283 
L 265.7181 280.211861 
L 266.687218 284.47244 
L 267.656336 286.117433 
L 268.625455 286.076706 
L 269.594573 282.474966 
L 270.563691 269.768746 
L 271.532809 248.172218 
L 272.501927 218.713496 
L 274.440163 171.331915 
L 275.409281 157.990647 
L 276.378399 151.635929 
L 277.347517 153.013109 
L 278.316635 156.583216 
L 279.285753 163.106466 
L 280.254871 164.259331 
L 281.223989 164.532854 
L 282.193107 157.186252 
L 283.162225 153.577187 
L 284.131343 152.83926 
L 285.100461 154.341224 
L 288.007815 145.920938 
L 288.976934 148.002384 
L 289.946052 156.921394 
L 290.91517 167.501132 
L 291.884288 170.330767 
L 292.853406 156.652898 
L 293.822524 137.516726 
L 294.791642 121.666597 
L 295.76076 111.586459 
L 296.729878 106.736065 
L 297.698996 110.960467 
L 298.668114 118.060809 
L 299.637232 123.575132 
L 300.60635 122.329949 
L 301.575468 123.268132 
L 302.544586 126.886903 
L 303.513704 135.077506 
L 304.482822 149.609091 
L 305.45194 158.690544 
L 306.421058 180.969832 
L 307.390176 207.387263 
L 308.359294 220.646789 
L 309.328412 230.072745 
L 310.297531 242.643935 
L 311.266649 253.440863 
L 312.235767 262.410447 
L 314.174003 273.506353 
L 315.143121 278.080774 
L 316.112239 280.206403 
L 317.081357 277.912378 
L 318.050475 272.853086 
L 319.988711 260.152406 
L 321.926947 243.237805 
L 323.865183 223.884979 
L 325.803419 207.382296 
L 326.772537 199.852459 
L 327.741655 193.671457 
L 329.679891 176.954268 
L 330.649009 170.460754 
L 331.618128 169.018231 
L 334.525482 161.936281 
L 335.4946 164.327302 
L 336.463718 170.069917 
L 337.432836 173.702236 
L 338.401954 175.729888 
L 339.371072 171.9475 
L 340.34019 162.756697 
L 341.309308 154.669736 
L 342.278426 152.312366 
L 343.247544 153.068438 
L 344.216662 157.437356 
L 345.18578 163.80557 
L 346.154898 167.085442 
L 347.124016 167.464555 
L 348.093134 165.977418 
L 349.062252 167.393719 
L 350.03137 173.278242 
L 351.000488 187.971622 
L 351.969607 189.007698 
L 352.938725 188.156464 
L 353.907843 217.830491 
L 354.876961 232.459861 
L 355.846079 242.594427 
L 356.815197 254.96946 
L 357.784315 265.218056 
L 358.753433 273.212114 
L 359.722551 277.946789 
L 360.691669 280.843834 
L 361.660787 282.320567 
L 362.629905 281.129222 
L 363.599023 274.140427 
L 364.568141 263.172829 
L 365.537259 249.322178 
L 366.506377 237.942986 
L 367.475495 224.778348 
L 369.413731 204.158011 
L 370.382849 197.354603 
L 371.351967 192.663344 
L 372.321085 189.569324 
L 373.290204 184.995359 
L 374.259322 181.115027 
L 375.22844 173.311367 
L 376.197558 166.789128 
L 377.166676 161.863642 
L 378.135794 161.3351 
L 379.104912 158.310103 
L 380.07403 155.901102 
L 381.043148 153.982233 
L 382.012266 156.076538 
L 383.950502 168.425818 
L 384.91962 169.964915 
L 385.888738 162.161781 
L 386.857856 149.558213 
L 387.826974 138.703746 
L 388.796092 133.615602 
L 389.76521 133.237653 
L 390.734328 139.371085 
L 391.703446 146.313847 
L 392.672564 151.045608 
L 393.641682 152.500269 
L 394.610801 152.39979 
L 395.579919 153.662664 
L 396.549037 158.46455 
L 397.518155 172.761374 
L 398.487273 177.335679 
L 398.487273 177.335679 
" clip-path="url(#p27d7855c4d)" style="fill: none; stroke: #ff7f0e; stroke-width: 1.5; stroke-linecap: square"/>
   </g>
   <g id="patch_3">
    <path d="M 57.6 307.584 
L 57.6 41.472 
" style="fill: none; stroke: #000000; stroke-width: 0.8; stroke-linejoin: miter; stroke-linecap: square"/>
   </g>
   <g id="patch_4">
    <path d="M 414.72 307.584 
L 414.72 41.472 
" style="fill: none; stroke: #000000; stroke-width: 0.8; stroke-linejoin: miter; stroke-linecap: square"/>
   </g>
   <g id="patch_5">
    <path d="M 57.6 307.584 
L 414.72 307.584 
" style="fill: none; stroke: #000000; stroke-width: 0.8; stroke-linejoin: miter; stroke-linecap: square"/>
   </g>
   <g id="patch_6">
    <path d="M 57.6 41.472 
L 414.72 41.472 
" style="fill: none; stroke: #000000; stroke-width: 0.8; stroke-linejoin: miter; stroke-linecap: square"/>
   </g>
   <g id="legend_1">
    <g id="patch_7">
     <path d="M 310.42625 78.82825 
L 407.72 78.82825 
Q 409.72 78.82825 409.72 76.82825 
L 409.72 48.472 
Q 409.72 46.472 407.72 46.472 
L 310.42625 46.472 
Q 308.42625 46.472 308.42625 48.472 
L 308.42625 76.82825 
Q 308.42625 78.82825 310.42625 78.82825 
z
" style="fill: #ffffff; opacity: 0.8; stroke: #cccccc; stroke-linejoin: miter"/>
    </g>
    <g id="line2d_25">
     <path d="M 312.42625 54.570437 
L 322.42625 54.570437 
L 332.42625 54.570437 
" style="fill: none; stroke: #1f77b4; stroke-width: 1.5; stroke-linecap: square"/>
    </g>
    <g id="text_19">
     <!-- Ground Truth -->
     <g transform="translate(340.42625 58.070437) scale(0.1 -0.1)">
      <defs>
       <path id="DejaVuSans-47" d="M 3809 666 
L 3809 1919 
L 2778 1919 
L 2778 2438 
L 4434 2438 
L 4434 434 
Q 4069 175 3628 42 
Q 3188 -91 2688 -91 
Q 1594 -91 976 548 
Q 359 1188 359 2328 
Q 359 3472 976 4111 
Q 1594 4750 2688 4750 
Q 3144 4750 3555 4637 
Q 3966 4525 4313 4306 
L 4313 3634 
Q 3963 3931 3569 4081 
Q 3175 4231 2741 4231 
Q 1884 4231 1454 3753 
Q 1025 3275 1025 2328 
Q 1025 1384 1454 906 
Q 1884 428 2741 428 
Q 3075 428 3337 486 
Q 3600 544 3809 666 
z
" transform="scale(0.015625)"/>
       <path id="DejaVuSans-54" d="M -19 4666 
L 3928 4666 
L 3928 4134 
L 2272 4134 
L 2272 0 
L 1638 0 
L 1638 4134 
L -19 4134 
L -19 4666 
z
" transform="scale(0.015625)"/>
       <path id="DejaVuSans-68" d="M 3513 2113 
L 3513 0 
L 2938 0 
L 2938 2094 
Q 2938 2591 2744 2837 
Q 2550 3084 2163 3084 
Q 1697 3084 1428 2787 
Q 1159 2491 1159 1978 
L 1159 0 
L 581 0 
L 581 4863 
L 1159 4863 
L 1159 2956 
Q 1366 3272 1645 3428 
Q 1925 3584 2291 3584 
Q 2894 3584 3203 3211 
Q 3513 2838 3513 2113 
z
" transform="scale(0.015625)"/>
      </defs>
      <use xlink:href="#DejaVuSans-47"/>
      <use xlink:href="#DejaVuSans-72" x="77.490234"/>
      <use xlink:href="#DejaVuSans-6f" x="116.353516"/>
      <use xlink:href="#DejaVuSans-75" x="177.535156"/>
      <use xlink:href="#DejaVuSans-6e" x="240.914062"/>
      <use xlink:href="#DejaVuSans-64" x="304.292969"/>
      <use xlink:href="#DejaVuSans-20" x="367.769531"/>
      <use xlink:href="#DejaVuSans-54" x="399.556641"/>
      <use xlink:href="#DejaVuSans-72" x="445.890625"/>
      <use xlink:href="#DejaVuSans-75" x="487.003906"/>
      <use xlink:href="#DejaVuSans-74" x="550.382812"/>
      <use xlink:href="#DejaVuSans-68" x="589.591797"/>
     </g>
    </g>
    <g id="line2d_26">
     <path d="M 312.42625 69.248562 
L 322.42625 69.248562 
L 332.42625 69.248562 
" style="fill: none; stroke: #ff7f0e; stroke-width: 1.5; stroke-linecap: square"/>
    </g>
    <g id="text_20">
     <!-- Prediction -->
     <g transform="translate(340.42625 72.748562) scale(0.1 -0.1)">
      <defs>
       <path id="DejaVuSans-50" d="M 1259 4147 
L 1259 2394 
L 2053 2394 
Q 2494 2394 2734 2622 
Q 2975 2850 2975 3272 
Q 2975 3691 2734 3919 
Q 2494 4147 2053 4147 
L 1259 4147 
z
M 628 4666 
L 2053 4666 
Q 2838 4666 3239 4311 
Q 3641 3956 3641 3272 
Q 3641 2581 3239 2228 
Q 2838 1875 2053 1875 
L 1259 1875 
L 1259 0 
L 628 0 
L 628 4666 
z
" transform="scale(0.015625)"/>
       <path id="DejaVuSans-63" d="M 3122 3366 
L 3122 2828 
Q 2878 2963 2633 3030 
Q 2388 3097 2138 3097 
Q 1578 3097 1268 2742 
Q 959 2388 959 1747 
Q 959 1106 1268 751 
Q 1578 397 2138 397 
Q 2388 397 2633 464 
Q 2878 531 3122 666 
L 3122 134 
Q 2881 22 2623 -34 
Q 2366 -91 2075 -91 
Q 1284 -91 818 406 
Q 353 903 353 1747 
Q 353 2603 823 3093 
Q 1294 3584 2113 3584 
Q 2378 3584 2631 3529 
Q 2884 3475 3122 3366 
z
" transform="scale(0.015625)"/>
      </defs>
      <use xlink:href="#DejaVuSans-50"/>
      <use xlink:href="#DejaVuSans-72" x="58.552734"/>
      <use xlink:href="#DejaVuSans-65" x="97.416016"/>
      <use xlink:href="#DejaVuSans-64" x="158.939453"/>
      <use xlink:href="#DejaVuSans-69" x="222.416016"/>
      <use xlink:href="#DejaVuSans-63" x="250.199219"/>
      <use xlink:href="#DejaVuSans-74" x="305.179688"/>
      <use xlink:href="#DejaVuSans-69" x="344.388672"/>
      <use xlink:href="#DejaVuSans-6f" x="372.171875"/>
      <use xlink:href="#DejaVuSans-6e" x="433.353516"/>
     </g>
    </g>
   </g>
  </g>
 </g>
 <defs>
  <clipPath id="p27d7855c4d">
   <rect x="57.6" y="41.472" width="357.12" height="266.112"/>
  </clipPath>
 </defs>
</svg>
