<?xml version="1.0" encoding="utf-8" standalone="no"?>
<!DOCTYPE svg PUBLIC "-//W3C//DTD SVG 1.1//EN"
  "http://www.w3.org/Graphics/SVG/1.1/DTD/svg11.dtd">
<svg xmlns:xlink="http://www.w3.org/1999/xlink" width="460.8pt" height="345.6pt" viewBox="0 0 460.8 345.6" xmlns="http://www.w3.org/2000/svg" version="1.1">
 <metadata>
  <rdf:RDF xmlns:dc="http://purl.org/dc/elements/1.1/" xmlns:cc="http://creativecommons.org/ns#" xmlns:rdf="http://www.w3.org/1999/02/22-rdf-syntax-ns#">
   <cc:Work>
    <dc:type rdf:resource="http://purl.org/dc/dcmitype/StillImage"/>
    <dc:date>2023-02-15T18:57:31.024577</dc:date>
    <dc:format>image/svg+xml</dc:format>
    <dc:creator>
     <cc:Agent>
      <dc:title>Matplotlib v3.6.2, https://matplotlib.org/</dc:title>
     </cc:Agent>
    </dc:creator>
   </cc:Work>
  </rdf:RDF>
 </metadata>
 <defs>
  <style type="text/css">*{stroke-linejoin: round; stroke-linecap: butt}</style>
 </defs>
 <g id="figure_1">
  <g id="patch_1">
   <path d="M 0 345.6 
L 460.8 345.6 
L 460.8 0 
L 0 0 
z
" style="fill: #ffffff"/>
  </g>
  <g id="axes_1">
   <g id="patch_2">
    <path d="M 57.6 307.584 
L 414.72 307.584 
L 414.72 41.472 
L 57.6 41.472 
z
" style="fill: #ffffff"/>
   </g>
   <g id="matplotlib.axis_1">
    <g id="xtick_1">
     <g id="line2d_1">
      <defs>
       <path id="m15717af3b4" d="M 0 0 
L 0 3.5 
" style="stroke: #000000; stroke-width: 0.8"/>
      </defs>
      <g>
       <use xlink:href="#m15717af3b4" x="66.079783" y="307.584" style="stroke: #000000; stroke-width: 0.8"/>
      </g>
     </g>
     <g id="text_1">
      <!-- 5800 -->
      <g transform="translate(53.354783 322.182437) scale(0.1 -0.1)">
       <defs>
        <path id="DejaVuSans-35" d="M 691 4666 
L 3169 4666 
L 3169 4134 
L 1269 4134 
L 1269 2991 
Q 1406 3038 1543 3061 
Q 1681 3084 1819 3084 
Q 2600 3084 3056 2656 
Q 3513 2228 3513 1497 
Q 3513 744 3044 326 
Q 2575 -91 1722 -91 
Q 1428 -91 1123 -41 
Q 819 9 494 109 
L 494 744 
Q 775 591 1075 516 
Q 1375 441 1709 441 
Q 2250 441 2565 725 
Q 2881 1009 2881 1497 
Q 2881 1984 2565 2268 
Q 2250 2553 1709 2553 
Q 1456 2553 1204 2497 
Q 953 2441 691 2322 
L 691 4666 
z
" transform="scale(0.015625)"/>
        <path id="DejaVuSans-38" d="M 2034 2216 
Q 1584 2216 1326 1975 
Q 1069 1734 1069 1313 
Q 1069 891 1326 650 
Q 1584 409 2034 409 
Q 2484 409 2743 651 
Q 3003 894 3003 1313 
Q 3003 1734 2745 1975 
Q 2488 2216 2034 2216 
z
M 1403 2484 
Q 997 2584 770 2862 
Q 544 3141 544 3541 
Q 544 4100 942 4425 
Q 1341 4750 2034 4750 
Q 2731 4750 3128 4425 
Q 3525 4100 3525 3541 
Q 3525 3141 3298 2862 
Q 3072 2584 2669 2484 
Q 3125 2378 3379 2068 
Q 3634 1759 3634 1313 
Q 3634 634 3220 271 
Q 2806 -91 2034 -91 
Q 1263 -91 848 271 
Q 434 634 434 1313 
Q 434 1759 690 2068 
Q 947 2378 1403 2484 
z
M 1172 3481 
Q 1172 3119 1398 2916 
Q 1625 2713 2034 2713 
Q 2441 2713 2670 2916 
Q 2900 3119 2900 3481 
Q 2900 3844 2670 4047 
Q 2441 4250 2034 4250 
Q 1625 4250 1398 4047 
Q 1172 3844 1172 3481 
z
" transform="scale(0.015625)"/>
        <path id="DejaVuSans-30" d="M 2034 4250 
Q 1547 4250 1301 3770 
Q 1056 3291 1056 2328 
Q 1056 1369 1301 889 
Q 1547 409 2034 409 
Q 2525 409 2770 889 
Q 3016 1369 3016 2328 
Q 3016 3291 2770 3770 
Q 2525 4250 2034 4250 
z
M 2034 4750 
Q 2819 4750 3233 4129 
Q 3647 3509 3647 2328 
Q 3647 1150 3233 529 
Q 2819 -91 2034 -91 
Q 1250 -91 836 529 
Q 422 1150 422 2328 
Q 422 3509 836 4129 
Q 1250 4750 2034 4750 
z
" transform="scale(0.015625)"/>
       </defs>
       <use xlink:href="#DejaVuSans-35"/>
       <use xlink:href="#DejaVuSans-38" x="63.623047"/>
       <use xlink:href="#DejaVuSans-30" x="127.246094"/>
       <use xlink:href="#DejaVuSans-30" x="190.869141"/>
      </g>
     </g>
    </g>
    <g id="xtick_2">
     <g id="line2d_2">
      <g>
       <use xlink:href="#m15717af3b4" x="114.535685" y="307.584" style="stroke: #000000; stroke-width: 0.8"/>
      </g>
     </g>
     <g id="text_2">
      <!-- 5850 -->
      <g transform="translate(101.810685 322.182437) scale(0.1 -0.1)">
       <use xlink:href="#DejaVuSans-35"/>
       <use xlink:href="#DejaVuSans-38" x="63.623047"/>
       <use xlink:href="#DejaVuSans-35" x="127.246094"/>
       <use xlink:href="#DejaVuSans-30" x="190.869141"/>
      </g>
     </g>
    </g>
    <g id="xtick_3">
     <g id="line2d_3">
      <g>
       <use xlink:href="#m15717af3b4" x="162.991588" y="307.584" style="stroke: #000000; stroke-width: 0.8"/>
      </g>
     </g>
     <g id="text_3">
      <!-- 5900 -->
      <g transform="translate(150.266588 322.182437) scale(0.1 -0.1)">
       <defs>
        <path id="DejaVuSans-39" d="M 703 97 
L 703 672 
Q 941 559 1184 500 
Q 1428 441 1663 441 
Q 2288 441 2617 861 
Q 2947 1281 2994 2138 
Q 2813 1869 2534 1725 
Q 2256 1581 1919 1581 
Q 1219 1581 811 2004 
Q 403 2428 403 3163 
Q 403 3881 828 4315 
Q 1253 4750 1959 4750 
Q 2769 4750 3195 4129 
Q 3622 3509 3622 2328 
Q 3622 1225 3098 567 
Q 2575 -91 1691 -91 
Q 1453 -91 1209 -44 
Q 966 3 703 97 
z
M 1959 2075 
Q 2384 2075 2632 2365 
Q 2881 2656 2881 3163 
Q 2881 3666 2632 3958 
Q 2384 4250 1959 4250 
Q 1534 4250 1286 3958 
Q 1038 3666 1038 3163 
Q 1038 2656 1286 2365 
Q 1534 2075 1959 2075 
z
" transform="scale(0.015625)"/>
       </defs>
       <use xlink:href="#DejaVuSans-35"/>
       <use xlink:href="#DejaVuSans-39" x="63.623047"/>
       <use xlink:href="#DejaVuSans-30" x="127.246094"/>
       <use xlink:href="#DejaVuSans-30" x="190.869141"/>
      </g>
     </g>
    </g>
    <g id="xtick_4">
     <g id="line2d_4">
      <g>
       <use xlink:href="#m15717af3b4" x="211.44749" y="307.584" style="stroke: #000000; stroke-width: 0.8"/>
      </g>
     </g>
     <g id="text_4">
      <!-- 5950 -->
      <g transform="translate(198.72249 322.182437) scale(0.1 -0.1)">
       <use xlink:href="#DejaVuSans-35"/>
       <use xlink:href="#DejaVuSans-39" x="63.623047"/>
       <use xlink:href="#DejaVuSans-35" x="127.246094"/>
       <use xlink:href="#DejaVuSans-30" x="190.869141"/>
      </g>
     </g>
    </g>
    <g id="xtick_5">
     <g id="line2d_5">
      <g>
       <use xlink:href="#m15717af3b4" x="259.903392" y="307.584" style="stroke: #000000; stroke-width: 0.8"/>
      </g>
     </g>
     <g id="text_5">
      <!-- 6000 -->
      <g transform="translate(247.178392 322.182437) scale(0.1 -0.1)">
       <defs>
        <path id="DejaVuSans-36" d="M 2113 2584 
Q 1688 2584 1439 2293 
Q 1191 2003 1191 1497 
Q 1191 994 1439 701 
Q 1688 409 2113 409 
Q 2538 409 2786 701 
Q 3034 994 3034 1497 
Q 3034 2003 2786 2293 
Q 2538 2584 2113 2584 
z
M 3366 4563 
L 3366 3988 
Q 3128 4100 2886 4159 
Q 2644 4219 2406 4219 
Q 1781 4219 1451 3797 
Q 1122 3375 1075 2522 
Q 1259 2794 1537 2939 
Q 1816 3084 2150 3084 
Q 2853 3084 3261 2657 
Q 3669 2231 3669 1497 
Q 3669 778 3244 343 
Q 2819 -91 2113 -91 
Q 1303 -91 875 529 
Q 447 1150 447 2328 
Q 447 3434 972 4092 
Q 1497 4750 2381 4750 
Q 2619 4750 2861 4703 
Q 3103 4656 3366 4563 
z
" transform="scale(0.015625)"/>
       </defs>
       <use xlink:href="#DejaVuSans-36"/>
       <use xlink:href="#DejaVuSans-30" x="63.623047"/>
       <use xlink:href="#DejaVuSans-30" x="127.246094"/>
       <use xlink:href="#DejaVuSans-30" x="190.869141"/>
      </g>
     </g>
    </g>
    <g id="xtick_6">
     <g id="line2d_6">
      <g>
       <use xlink:href="#m15717af3b4" x="308.359294" y="307.584" style="stroke: #000000; stroke-width: 0.8"/>
      </g>
     </g>
     <g id="text_6">
      <!-- 6050 -->
      <g transform="translate(295.634294 322.182437) scale(0.1 -0.1)">
       <use xlink:href="#DejaVuSans-36"/>
       <use xlink:href="#DejaVuSans-30" x="63.623047"/>
       <use xlink:href="#DejaVuSans-35" x="127.246094"/>
       <use xlink:href="#DejaVuSans-30" x="190.869141"/>
      </g>
     </g>
    </g>
    <g id="xtick_7">
     <g id="line2d_7">
      <g>
       <use xlink:href="#m15717af3b4" x="356.815197" y="307.584" style="stroke: #000000; stroke-width: 0.8"/>
      </g>
     </g>
     <g id="text_7">
      <!-- 6100 -->
      <g transform="translate(344.090197 322.182437) scale(0.1 -0.1)">
       <defs>
        <path id="DejaVuSans-31" d="M 794 531 
L 1825 531 
L 1825 4091 
L 703 3866 
L 703 4441 
L 1819 4666 
L 2450 4666 
L 2450 531 
L 3481 531 
L 3481 0 
L 794 0 
L 794 531 
z
" transform="scale(0.015625)"/>
       </defs>
       <use xlink:href="#DejaVuSans-36"/>
       <use xlink:href="#DejaVuSans-31" x="63.623047"/>
       <use xlink:href="#DejaVuSans-30" x="127.246094"/>
       <use xlink:href="#DejaVuSans-30" x="190.869141"/>
      </g>
     </g>
    </g>
    <g id="xtick_8">
     <g id="line2d_8">
      <g>
       <use xlink:href="#m15717af3b4" x="405.271099" y="307.584" style="stroke: #000000; stroke-width: 0.8"/>
      </g>
     </g>
     <g id="text_8">
      <!-- 6150 -->
      <g transform="translate(392.546099 322.182437) scale(0.1 -0.1)">
       <use xlink:href="#DejaVuSans-36"/>
       <use xlink:href="#DejaVuSans-31" x="63.623047"/>
       <use xlink:href="#DejaVuSans-35" x="127.246094"/>
       <use xlink:href="#DejaVuSans-30" x="190.869141"/>
      </g>
     </g>
    </g>
    <g id="text_9">
     <!-- Anomaly on date: 2014-11-02 00:00:00 -->
     <g transform="translate(137.170937 335.860562) scale(0.1 -0.1)">
      <defs>
       <path id="DejaVuSans-41" d="M 2188 4044 
L 1331 1722 
L 3047 1722 
L 2188 4044 
z
M 1831 4666 
L 2547 4666 
L 4325 0 
L 3669 0 
L 3244 1197 
L 1141 1197 
L 716 0 
L 50 0 
L 1831 4666 
z
" transform="scale(0.015625)"/>
       <path id="DejaVuSans-6e" d="M 3513 2113 
L 3513 0 
L 2938 0 
L 2938 2094 
Q 2938 2591 2744 2837 
Q 2550 3084 2163 3084 
Q 1697 3084 1428 2787 
Q 1159 2491 1159 1978 
L 1159 0 
L 581 0 
L 581 3500 
L 1159 3500 
L 1159 2956 
Q 1366 3272 1645 3428 
Q 1925 3584 2291 3584 
Q 2894 3584 3203 3211 
Q 3513 2838 3513 2113 
z
" transform="scale(0.015625)"/>
       <path id="DejaVuSans-6f" d="M 1959 3097 
Q 1497 3097 1228 2736 
Q 959 2375 959 1747 
Q 959 1119 1226 758 
Q 1494 397 1959 397 
Q 2419 397 2687 759 
Q 2956 1122 2956 1747 
Q 2956 2369 2687 2733 
Q 2419 3097 1959 3097 
z
M 1959 3584 
Q 2709 3584 3137 3096 
Q 3566 2609 3566 1747 
Q 3566 888 3137 398 
Q 2709 -91 1959 -91 
Q 1206 -91 779 398 
Q 353 888 353 1747 
Q 353 2609 779 3096 
Q 1206 3584 1959 3584 
z
" transform="scale(0.015625)"/>
       <path id="DejaVuSans-6d" d="M 3328 2828 
Q 3544 3216 3844 3400 
Q 4144 3584 4550 3584 
Q 5097 3584 5394 3201 
Q 5691 2819 5691 2113 
L 5691 0 
L 5113 0 
L 5113 2094 
Q 5113 2597 4934 2840 
Q 4756 3084 4391 3084 
Q 3944 3084 3684 2787 
Q 3425 2491 3425 1978 
L 3425 0 
L 2847 0 
L 2847 2094 
Q 2847 2600 2669 2842 
Q 2491 3084 2119 3084 
Q 1678 3084 1418 2786 
Q 1159 2488 1159 1978 
L 1159 0 
L 581 0 
L 581 3500 
L 1159 3500 
L 1159 2956 
Q 1356 3278 1631 3431 
Q 1906 3584 2284 3584 
Q 2666 3584 2933 3390 
Q 3200 3197 3328 2828 
z
" transform="scale(0.015625)"/>
       <path id="DejaVuSans-61" d="M 2194 1759 
Q 1497 1759 1228 1600 
Q 959 1441 959 1056 
Q 959 750 1161 570 
Q 1363 391 1709 391 
Q 2188 391 2477 730 
Q 2766 1069 2766 1631 
L 2766 1759 
L 2194 1759 
z
M 3341 1997 
L 3341 0 
L 2766 0 
L 2766 531 
Q 2569 213 2275 61 
Q 1981 -91 1556 -91 
Q 1019 -91 701 211 
Q 384 513 384 1019 
Q 384 1609 779 1909 
Q 1175 2209 1959 2209 
L 2766 2209 
L 2766 2266 
Q 2766 2663 2505 2880 
Q 2244 3097 1772 3097 
Q 1472 3097 1187 3025 
Q 903 2953 641 2809 
L 641 3341 
Q 956 3463 1253 3523 
Q 1550 3584 1831 3584 
Q 2591 3584 2966 3190 
Q 3341 2797 3341 1997 
z
" transform="scale(0.015625)"/>
       <path id="DejaVuSans-6c" d="M 603 4863 
L 1178 4863 
L 1178 0 
L 603 0 
L 603 4863 
z
" transform="scale(0.015625)"/>
       <path id="DejaVuSans-79" d="M 2059 -325 
Q 1816 -950 1584 -1140 
Q 1353 -1331 966 -1331 
L 506 -1331 
L 506 -850 
L 844 -850 
Q 1081 -850 1212 -737 
Q 1344 -625 1503 -206 
L 1606 56 
L 191 3500 
L 800 3500 
L 1894 763 
L 2988 3500 
L 3597 3500 
L 2059 -325 
z
" transform="scale(0.015625)"/>
       <path id="DejaVuSans-20" transform="scale(0.015625)"/>
       <path id="DejaVuSans-64" d="M 2906 2969 
L 2906 4863 
L 3481 4863 
L 3481 0 
L 2906 0 
L 2906 525 
Q 2725 213 2448 61 
Q 2172 -91 1784 -91 
Q 1150 -91 751 415 
Q 353 922 353 1747 
Q 353 2572 751 3078 
Q 1150 3584 1784 3584 
Q 2172 3584 2448 3432 
Q 2725 3281 2906 2969 
z
M 947 1747 
Q 947 1113 1208 752 
Q 1469 391 1925 391 
Q 2381 391 2643 752 
Q 2906 1113 2906 1747 
Q 2906 2381 2643 2742 
Q 2381 3103 1925 3103 
Q 1469 3103 1208 2742 
Q 947 2381 947 1747 
z
" transform="scale(0.015625)"/>
       <path id="DejaVuSans-74" d="M 1172 4494 
L 1172 3500 
L 2356 3500 
L 2356 3053 
L 1172 3053 
L 1172 1153 
Q 1172 725 1289 603 
Q 1406 481 1766 481 
L 2356 481 
L 2356 0 
L 1766 0 
Q 1100 0 847 248 
Q 594 497 594 1153 
L 594 3053 
L 172 3053 
L 172 3500 
L 594 3500 
L 594 4494 
L 1172 4494 
z
" transform="scale(0.015625)"/>
       <path id="DejaVuSans-65" d="M 3597 1894 
L 3597 1613 
L 953 1613 
Q 991 1019 1311 708 
Q 1631 397 2203 397 
Q 2534 397 2845 478 
Q 3156 559 3463 722 
L 3463 178 
Q 3153 47 2828 -22 
Q 2503 -91 2169 -91 
Q 1331 -91 842 396 
Q 353 884 353 1716 
Q 353 2575 817 3079 
Q 1281 3584 2069 3584 
Q 2775 3584 3186 3129 
Q 3597 2675 3597 1894 
z
M 3022 2063 
Q 3016 2534 2758 2815 
Q 2500 3097 2075 3097 
Q 1594 3097 1305 2825 
Q 1016 2553 972 2059 
L 3022 2063 
z
" transform="scale(0.015625)"/>
       <path id="DejaVuSans-3a" d="M 750 794 
L 1409 794 
L 1409 0 
L 750 0 
L 750 794 
z
M 750 3309 
L 1409 3309 
L 1409 2516 
L 750 2516 
L 750 3309 
z
" transform="scale(0.015625)"/>
       <path id="DejaVuSans-32" d="M 1228 531 
L 3431 531 
L 3431 0 
L 469 0 
L 469 531 
Q 828 903 1448 1529 
Q 2069 2156 2228 2338 
Q 2531 2678 2651 2914 
Q 2772 3150 2772 3378 
Q 2772 3750 2511 3984 
Q 2250 4219 1831 4219 
Q 1534 4219 1204 4116 
Q 875 4013 500 3803 
L 500 4441 
Q 881 4594 1212 4672 
Q 1544 4750 1819 4750 
Q 2544 4750 2975 4387 
Q 3406 4025 3406 3419 
Q 3406 3131 3298 2873 
Q 3191 2616 2906 2266 
Q 2828 2175 2409 1742 
Q 1991 1309 1228 531 
z
" transform="scale(0.015625)"/>
       <path id="DejaVuSans-34" d="M 2419 4116 
L 825 1625 
L 2419 1625 
L 2419 4116 
z
M 2253 4666 
L 3047 4666 
L 3047 1625 
L 3713 1625 
L 3713 1100 
L 3047 1100 
L 3047 0 
L 2419 0 
L 2419 1100 
L 313 1100 
L 313 1709 
L 2253 4666 
z
" transform="scale(0.015625)"/>
       <path id="DejaVuSans-2d" d="M 313 2009 
L 1997 2009 
L 1997 1497 
L 313 1497 
L 313 2009 
z
" transform="scale(0.015625)"/>
      </defs>
      <use xlink:href="#DejaVuSans-41"/>
      <use xlink:href="#DejaVuSans-6e" x="68.408203"/>
      <use xlink:href="#DejaVuSans-6f" x="131.787109"/>
      <use xlink:href="#DejaVuSans-6d" x="192.96875"/>
      <use xlink:href="#DejaVuSans-61" x="290.380859"/>
      <use xlink:href="#DejaVuSans-6c" x="351.660156"/>
      <use xlink:href="#DejaVuSans-79" x="379.443359"/>
      <use xlink:href="#DejaVuSans-20" x="438.623047"/>
      <use xlink:href="#DejaVuSans-6f" x="470.410156"/>
      <use xlink:href="#DejaVuSans-6e" x="531.591797"/>
      <use xlink:href="#DejaVuSans-20" x="594.970703"/>
      <use xlink:href="#DejaVuSans-64" x="626.757812"/>
      <use xlink:href="#DejaVuSans-61" x="690.234375"/>
      <use xlink:href="#DejaVuSans-74" x="751.513672"/>
      <use xlink:href="#DejaVuSans-65" x="790.722656"/>
      <use xlink:href="#DejaVuSans-3a" x="852.246094"/>
      <use xlink:href="#DejaVuSans-20" x="885.9375"/>
      <use xlink:href="#DejaVuSans-32" x="917.724609"/>
      <use xlink:href="#DejaVuSans-30" x="981.347656"/>
      <use xlink:href="#DejaVuSans-31" x="1044.970703"/>
      <use xlink:href="#DejaVuSans-34" x="1108.59375"/>
      <use xlink:href="#DejaVuSans-2d" x="1172.216797"/>
      <use xlink:href="#DejaVuSans-31" x="1208.300781"/>
      <use xlink:href="#DejaVuSans-31" x="1271.923828"/>
      <use xlink:href="#DejaVuSans-2d" x="1335.546875"/>
      <use xlink:href="#DejaVuSans-30" x="1371.630859"/>
      <use xlink:href="#DejaVuSans-32" x="1435.253906"/>
      <use xlink:href="#DejaVuSans-20" x="1498.876953"/>
      <use xlink:href="#DejaVuSans-30" x="1530.664062"/>
      <use xlink:href="#DejaVuSans-30" x="1594.287109"/>
      <use xlink:href="#DejaVuSans-3a" x="1657.910156"/>
      <use xlink:href="#DejaVuSans-30" x="1691.601562"/>
      <use xlink:href="#DejaVuSans-30" x="1755.224609"/>
      <use xlink:href="#DejaVuSans-3a" x="1818.847656"/>
      <use xlink:href="#DejaVuSans-30" x="1852.539062"/>
      <use xlink:href="#DejaVuSans-30" x="1916.162109"/>
     </g>
    </g>
   </g>
   <g id="matplotlib.axis_2">
    <g id="ytick_1">
     <g id="line2d_9">
      <defs>
       <path id="ma3f8df9800" d="M 0 0 
L -3.5 0 
" style="stroke: #000000; stroke-width: 0.8"/>
      </defs>
      <g>
       <use xlink:href="#ma3f8df9800" x="57.6" y="306.289727" style="stroke: #000000; stroke-width: 0.8"/>
      </g>
     </g>
     <g id="text_10">
      <!-- 0.0 -->
      <g transform="translate(34.696875 310.088946) scale(0.1 -0.1)">
       <defs>
        <path id="DejaVuSans-2e" d="M 684 794 
L 1344 794 
L 1344 0 
L 684 0 
L 684 794 
z
" transform="scale(0.015625)"/>
       </defs>
       <use xlink:href="#DejaVuSans-30"/>
       <use xlink:href="#DejaVuSans-2e" x="63.623047"/>
       <use xlink:href="#DejaVuSans-30" x="95.410156"/>
      </g>
     </g>
    </g>
    <g id="ytick_2">
     <g id="line2d_10">
      <g>
       <use xlink:href="#ma3f8df9800" x="57.6" y="255.745382" style="stroke: #000000; stroke-width: 0.8"/>
      </g>
     </g>
     <g id="text_11">
      <!-- 0.2 -->
      <g transform="translate(34.696875 259.544601) scale(0.1 -0.1)">
       <use xlink:href="#DejaVuSans-30"/>
       <use xlink:href="#DejaVuSans-2e" x="63.623047"/>
       <use xlink:href="#DejaVuSans-32" x="95.410156"/>
      </g>
     </g>
    </g>
    <g id="ytick_3">
     <g id="line2d_11">
      <g>
       <use xlink:href="#ma3f8df9800" x="57.6" y="205.201036" style="stroke: #000000; stroke-width: 0.8"/>
      </g>
     </g>
     <g id="text_12">
      <!-- 0.4 -->
      <g transform="translate(34.696875 209.000255) scale(0.1 -0.1)">
       <use xlink:href="#DejaVuSans-30"/>
       <use xlink:href="#DejaVuSans-2e" x="63.623047"/>
       <use xlink:href="#DejaVuSans-34" x="95.410156"/>
      </g>
     </g>
    </g>
    <g id="ytick_4">
     <g id="line2d_12">
      <g>
       <use xlink:href="#ma3f8df9800" x="57.6" y="154.656691" style="stroke: #000000; stroke-width: 0.8"/>
      </g>
     </g>
     <g id="text_13">
      <!-- 0.6 -->
      <g transform="translate(34.696875 158.45591) scale(0.1 -0.1)">
       <use xlink:href="#DejaVuSans-30"/>
       <use xlink:href="#DejaVuSans-2e" x="63.623047"/>
       <use xlink:href="#DejaVuSans-36" x="95.410156"/>
      </g>
     </g>
    </g>
    <g id="ytick_5">
     <g id="line2d_13">
      <g>
       <use xlink:href="#ma3f8df9800" x="57.6" y="104.112345" style="stroke: #000000; stroke-width: 0.8"/>
      </g>
     </g>
     <g id="text_14">
      <!-- 0.8 -->
      <g transform="translate(34.696875 107.911564) scale(0.1 -0.1)">
       <use xlink:href="#DejaVuSans-30"/>
       <use xlink:href="#DejaVuSans-2e" x="63.623047"/>
       <use xlink:href="#DejaVuSans-38" x="95.410156"/>
      </g>
     </g>
    </g>
    <g id="ytick_6">
     <g id="line2d_14">
      <g>
       <use xlink:href="#ma3f8df9800" x="57.6" y="53.568" style="stroke: #000000; stroke-width: 0.8"/>
      </g>
     </g>
     <g id="text_15">
      <!-- 1.0 -->
      <g transform="translate(34.696875 57.367219) scale(0.1 -0.1)">
       <use xlink:href="#DejaVuSans-31"/>
       <use xlink:href="#DejaVuSans-2e" x="63.623047"/>
       <use xlink:href="#DejaVuSans-30" x="95.410156"/>
      </g>
     </g>
    </g>
   </g>
   <g id="line2d_15">
    <path d="M 73.832727 215.748681 
L 74.801845 237.397278 
L 75.770963 252.410066 
L 76.740081 265.036802 
L 77.709199 272.478709 
L 78.678318 282.390503 
L 79.647436 285.49882 
L 80.616554 286.627359 
L 81.585672 286.962696 
L 82.55479 290.180644 
L 83.523908 288.149274 
L 84.493026 272.246552 
L 85.462144 258.446136 
L 86.431262 227.356508 
L 87.40038 205.624077 
L 88.369498 180.409299 
L 89.338616 178.571393 
L 90.307734 179.429082 
L 91.276852 181.550735 
L 92.24597 184.027071 
L 93.215088 190.914382 
L 94.184206 190.301746 
L 95.153324 195.634898 
L 96.122442 189.656867 
L 97.09156 186.554998 
L 98.060678 190.12118 
L 99.029796 194.39673 
L 101.937151 181.170256 
L 102.906269 183.8723 
L 104.844505 212.163153 
L 105.813623 220.140309 
L 106.782741 200.6972 
L 107.751859 178.145773 
L 109.690095 152.84716 
L 110.659213 146.204904 
L 111.628331 145.353663 
L 112.597449 140.020512 
L 115.504803 139.646482 
L 116.473921 145.914708 
L 117.443039 144.657193 
L 118.412157 146.64987 
L 120.350393 177.642767 
L 123.257748 235.67545 
L 124.226866 247.534779 
L 126.165102 266.22338 
L 127.13422 274.510078 
L 128.103338 275.412909 
L 129.072456 283.415861 
L 130.041574 284.821697 
L 131.010692 276.257701 
L 131.97981 260.658072 
L 132.948928 231.012973 
L 133.918046 210.757316 
L 134.887164 183.788466 
L 135.856282 175.392138 
L 136.8254 172.935148 
L 137.794518 180.041718 
L 138.763636 185.736001 
L 139.732754 189.624623 
L 140.701872 188.102708 
L 141.670991 192.500785 
L 142.640109 184.530077 
L 143.609227 182.872737 
L 144.578345 184.891209 
L 145.547463 188.231684 
L 146.516581 184.349511 
L 147.485699 174.592488 
L 148.454817 173.444603 
L 149.423935 177.913616 
L 150.393053 196.834373 
L 151.362171 209.319235 
L 152.331289 216.200097 
L 154.269525 177.204249 
L 155.238643 168.092105 
L 156.207761 152.776223 
L 157.176879 141.787481 
L 159.115115 142.05833 
L 160.084233 132.249717 
L 161.053351 132.12719 
L 162.022469 130.52144 
L 162.991588 132.372244 
L 163.960706 136.460778 
L 164.929824 136.525266 
L 165.898942 135.293547 
L 166.86806 142.38077 
L 167.837178 145.52778 
L 168.806296 145.469741 
L 169.775414 153.27278 
L 170.744532 156.439137 
L 172.682768 178.339236 
L 173.651886 192.333116 
L 174.621004 209.493353 
L 175.590122 237.984118 
L 176.55924 256.311586 
L 177.528358 268.248301 
L 178.497476 269.305903 
L 179.466594 266.210482 
L 180.435712 265.159329 
L 181.40483 247.670204 
L 182.373948 242.730429 
L 183.343066 223.132549 
L 184.312185 214.865197 
L 185.281303 186.496959 
L 186.250421 183.388641 
L 187.219539 160.063359 
L 188.188657 156.136044 
L 189.157775 150.577185 
L 190.126893 143.122381 
L 191.096011 134.642219 
L 192.065129 141.355412 
L 193.034247 144.379895 
L 194.003365 151.98947 
L 194.972483 155.820053 
L 195.941601 155.845848 
L 196.910719 163.184574 
L 197.879837 177.313878 
L 198.848955 187.406239 
L 199.818073 171.787263 
L 200.787191 153.38241 
L 201.756309 143.567347 
L 202.725427 129.754034 
L 203.694545 123.20851 
L 205.632782 135.209712 
L 206.6019 138.80169 
L 207.571018 147.694575 
L 208.540136 146.166211 
L 209.509254 136.273763 
L 210.478372 135.016249 
L 211.44749 139.453018 
L 212.416608 137.866615 
L 213.385726 144.412139 
L 214.354844 157.316173 
L 215.323962 53.568 
L 216.29308 79.266438 
L 217.262198 220.836779 
L 218.231316 227.34361 
L 220.169552 255.408755 
L 221.13867 265.230266 
L 222.107788 277.11539 
L 223.076906 273.349296 
L 224.046024 272.601236 
L 225.015142 277.050902 
L 225.984261 272.175615 
L 226.953379 273.097793 
L 227.922497 267.461548 
L 228.891615 265.842901 
L 229.860733 249.778959 
L 230.829851 240.879626 
L 231.798969 225.724963 
L 232.768087 216.122711 
L 233.737205 199.716983 
L 234.706323 195.854157 
L 235.675441 185.265239 
L 236.644559 183.910993 
L 237.613677 177.939411 
L 238.582795 183.02106 
L 239.551913 180.435094 
L 240.521031 179.687034 
L 241.490149 187.915693 
L 242.459267 190.649981 
L 243.428385 190.591942 
L 244.397503 194.854594 
L 245.366621 201.058332 
L 246.335739 193.345576 
L 247.304858 182.247205 
L 248.273976 175.48887 
L 249.243094 166.73141 
L 250.212212 159.057347 
L 251.18133 165.938208 
L 252.150448 170.955369 
L 253.119566 178.822896 
L 254.088684 187.696434 
L 255.057802 191.784969 
L 256.02692 194.557949 
L 256.996038 206.830001 
L 258.934274 240.408864 
L 259.903392 249.778959 
L 260.87251 267.358367 
L 261.841628 277.882797 
L 262.810746 285.479474 
L 263.779864 289.006964 
L 264.748982 293.553362 
L 265.7181 295.017238 
L 266.687218 295.488 
L 267.656336 292.540902 
L 268.625455 291.586481 
L 269.594573 287.330278 
L 270.563691 275.30328 
L 271.532809 254.467231 
L 272.501927 223.248627 
L 273.471045 212.014831 
L 274.440163 189.547238 
L 275.409281 188.547675 
L 276.378399 187.786717 
L 277.347517 189.592379 
L 278.316635 194.409627 
L 279.285753 203.109048 
L 280.254871 200.716546 
L 281.223989 207.345905 
L 282.193107 198.195068 
L 283.162225 198.575547 
L 284.131343 196.640909 
L 285.100461 200.755239 
L 286.069579 196.086313 
L 287.038697 194.364486 
L 288.007815 188.115606 
L 288.976934 187.50297 
L 289.946052 196.879515 
L 290.91517 202.264256 
L 291.884288 208.287428 
L 292.853406 194.183919 
L 294.791642 160.721135 
L 295.76076 157.38711 
L 296.729878 157.025977 
L 297.698996 160.031115 
L 298.668114 164.164791 
L 299.637232 169.091668 
L 300.60635 170.465261 
L 301.575468 177.94586 
L 302.544586 173.876672 
L 303.513704 189.58593 
L 304.482822 212.485592 
L 306.421058 237.552049 
L 307.390176 251.662007 
L 308.359294 267.616319 
L 309.328412 281.197476 
L 310.297531 286.279124 
L 311.266649 290.051668 
L 312.235767 292.721468 
L 313.204885 294.185344 
L 314.174003 293.953187 
L 315.143121 291.721905 
L 316.112239 290.780382 
L 317.081357 277.882797 
L 318.050475 260.116373 
L 319.019593 227.924001 
L 319.988711 210.608994 
L 320.957829 187.66419 
L 321.926947 187.393341 
L 322.896065 183.698183 
L 323.865183 189.58593 
L 324.834301 193.75185 
L 325.803419 200.703649 
L 326.772537 199.143041 
L 327.741655 202.232012 
L 328.710773 194.66113 
L 329.679891 192.468541 
L 330.649009 196.015376 
L 331.618128 202.012753 
L 332.587246 190.437171 
L 333.556364 189.282837 
L 334.525482 187.393341 
L 335.4946 186.677525 
L 336.463718 197.582433 
L 337.432836 212.801583 
L 338.401954 219.469635 
L 340.34019 187.883449 
L 341.309308 171.123038 
L 342.278426 162.926622 
L 343.247544 160.43094 
L 344.216662 158.5092 
L 345.18578 158.967064 
L 346.154898 161.933508 
L 347.124016 157.451598 
L 348.093134 161.688454 
L 349.062252 162.926622 
L 351.000488 192.358911 
L 352.938725 228.794588 
L 353.907843 249.804754 
L 354.876961 263.327872 
L 355.846079 272.826943 
L 356.815197 278.682447 
L 357.784315 285.795465 
L 359.722551 291.786393 
L 360.691669 290.883562 
L 361.660787 292.12173 
L 362.629905 289.413238 
L 363.599023 277.940836 
L 364.568141 261.154629 
L 365.537259 228.536637 
L 367.475495 178.37148 
L 368.444613 177.771743 
L 369.413731 175.43728 
L 370.382849 180.048166 
L 371.351967 181.795789 
L 372.321085 197.44056 
L 373.290204 195.950889 
L 374.259322 197.698511 
L 375.22844 187.967283 
L 376.197558 189.463403 
L 377.166676 191.662442 
L 378.135794 195.273765 
L 379.104912 191.217475 
L 380.07403 187.851205 
L 382.012266 184.375306 
L 383.950502 216.593473 
L 384.91962 221.533248 
L 387.826974 166.002696 
L 388.796092 159.121835 
L 389.76521 153.472693 
L 391.703446 152.930994 
L 392.672564 155.510511 
L 393.641682 150.783546 
L 394.610801 150.564287 
L 395.579919 153.640361 
L 396.549037 159.289503 
L 397.518155 172.116152 
L 398.487273 194.2871 
L 398.487273 194.2871 
" clip-path="url(#p5b53efec35)" style="fill: none; stroke: #0000ff; stroke-width: 1.5; stroke-linecap: square"/>
   </g>
   <g id="line2d_16">
    <path d="M 213.385726 144.412139 
L 214.354844 157.316173 
L 215.323962 53.568 
L 216.29308 79.266438 
L 217.262198 220.836779 
L 218.231316 227.34361 
L 219.200434 241.769559 
L 220.169552 255.408755 
L 221.13867 265.230266 
L 222.107788 277.11539 
L 223.076906 273.349296 
L 224.046024 272.601236 
L 225.015142 277.050902 
L 225.984261 272.175615 
L 226.953379 273.097793 
L 227.922497 267.461548 
L 228.891615 265.842901 
L 229.860733 249.778959 
L 230.829851 240.879626 
L 231.798969 225.724963 
L 232.768087 216.122711 
L 233.737205 199.716983 
L 234.706323 195.854157 
L 235.675441 185.265239 
L 236.644559 183.910993 
L 237.613677 177.939411 
L 238.582795 183.02106 
L 239.551913 180.435094 
L 240.521031 179.687034 
L 241.490149 187.915693 
L 242.459267 190.649981 
L 243.428385 190.591942 
L 244.397503 194.854594 
L 245.366621 201.058332 
L 246.335739 193.345576 
L 247.304858 182.247205 
L 248.273976 175.48887 
L 249.243094 166.73141 
L 250.212212 159.057347 
L 251.18133 165.938208 
L 252.150448 170.955369 
L 253.119566 178.822896 
L 254.088684 187.696434 
L 255.057802 191.784969 
L 256.02692 194.557949 
L 256.996038 206.830001 
L 257.965156 222.777865 
L 258.934274 240.408864 
" clip-path="url(#p5b53efec35)" style="fill: none; stroke: #ff0000; stroke-width: 1.5; stroke-linecap: square"/>
   </g>
   <g id="line2d_17">
    <path d="M 213.385726 165.356361 
L 214.354844 157.978644 
L 215.323962 162.063956 
L 216.29308 171.503112 
L 217.262198 183.653264 
L 218.231316 194.159827 
L 219.200434 204.665946 
L 220.169552 216.142003 
L 221.13867 229.276902 
L 222.107788 253.406436 
L 223.076906 272.668959 
L 224.046024 284.297762 
L 225.015142 288.731408 
L 225.984261 287.498794 
L 226.953379 285.386368 
L 227.922497 281.869498 
L 228.891615 276.341056 
L 229.860733 266.386456 
L 230.829851 256.513881 
L 231.798969 239.168773 
L 232.768087 226.284951 
L 233.737205 209.152305 
L 234.706323 202.407093 
L 235.675441 193.516583 
L 236.644559 189.946552 
L 237.613677 188.044505 
L 238.582795 186.741786 
L 239.551913 187.315656 
L 240.521031 188.911577 
L 241.490149 189.289479 
L 242.459267 191.140883 
L 243.428385 191.909899 
L 244.397503 194.959655 
L 245.366621 198.150533 
L 246.335739 195.001072 
L 247.304858 189.444964 
L 248.273976 186.720238 
L 249.243094 187.344886 
L 250.212212 190.075065 
L 251.18133 196.978074 
L 252.150448 202.834012 
L 253.119566 206.036729 
L 254.088684 205.866046 
L 255.057802 207.343132 
L 256.02692 215.912144 
L 256.996038 228.327434 
L 257.965156 235.357683 
L 258.934274 226.576759 
" clip-path="url(#p5b53efec35)" style="fill: none; stroke: #1f77b4; stroke-width: 1.5; stroke-linecap: square"/>
   </g>
   <g id="patch_3">
    <path d="M 57.6 307.584 
L 57.6 41.472 
" style="fill: none; stroke: #000000; stroke-width: 0.8; stroke-linejoin: miter; stroke-linecap: square"/>
   </g>
   <g id="patch_4">
    <path d="M 414.72 307.584 
L 414.72 41.472 
" style="fill: none; stroke: #000000; stroke-width: 0.8; stroke-linejoin: miter; stroke-linecap: square"/>
   </g>
   <g id="patch_5">
    <path d="M 57.6 307.584 
L 414.72 307.584 
" style="fill: none; stroke: #000000; stroke-width: 0.8; stroke-linejoin: miter; stroke-linecap: square"/>
   </g>
   <g id="patch_6">
    <path d="M 57.6 41.472 
L 414.72 41.472 
" style="fill: none; stroke: #000000; stroke-width: 0.8; stroke-linejoin: miter; stroke-linecap: square"/>
   </g>
   <g id="legend_1">
    <g id="patch_7">
     <path d="M 282.8325 93.506375 
L 407.72 93.506375 
Q 409.72 93.506375 409.72 91.506375 
L 409.72 48.472 
Q 409.72 46.472 407.72 46.472 
L 282.8325 46.472 
Q 280.8325 46.472 280.8325 48.472 
L 280.8325 91.506375 
Q 280.8325 93.506375 282.8325 93.506375 
z
" style="fill: #ffffff; opacity: 0.8; stroke: #cccccc; stroke-linejoin: miter"/>
    </g>
    <g id="line2d_18">
     <path d="M 284.8325 54.570438 
L 294.8325 54.570438 
L 304.8325 54.570438 
" style="fill: none; stroke: #0000ff; stroke-width: 1.5; stroke-linecap: square"/>
    </g>
    <g id="text_16">
     <!-- Ground Truth -->
     <g transform="translate(312.8325 58.070438) scale(0.1 -0.1)">
      <defs>
       <path id="DejaVuSans-47" d="M 3809 666 
L 3809 1919 
L 2778 1919 
L 2778 2438 
L 4434 2438 
L 4434 434 
Q 4069 175 3628 42 
Q 3188 -91 2688 -91 
Q 1594 -91 976 548 
Q 359 1188 359 2328 
Q 359 3472 976 4111 
Q 1594 4750 2688 4750 
Q 3144 4750 3555 4637 
Q 3966 4525 4313 4306 
L 4313 3634 
Q 3963 3931 3569 4081 
Q 3175 4231 2741 4231 
Q 1884 4231 1454 3753 
Q 1025 3275 1025 2328 
Q 1025 1384 1454 906 
Q 1884 428 2741 428 
Q 3075 428 3337 486 
Q 3600 544 3809 666 
z
" transform="scale(0.015625)"/>
       <path id="DejaVuSans-72" d="M 2631 2963 
Q 2534 3019 2420 3045 
Q 2306 3072 2169 3072 
Q 1681 3072 1420 2755 
Q 1159 2438 1159 1844 
L 1159 0 
L 581 0 
L 581 3500 
L 1159 3500 
L 1159 2956 
Q 1341 3275 1631 3429 
Q 1922 3584 2338 3584 
Q 2397 3584 2469 3576 
Q 2541 3569 2628 3553 
L 2631 2963 
z
" transform="scale(0.015625)"/>
       <path id="DejaVuSans-75" d="M 544 1381 
L 544 3500 
L 1119 3500 
L 1119 1403 
Q 1119 906 1312 657 
Q 1506 409 1894 409 
Q 2359 409 2629 706 
Q 2900 1003 2900 1516 
L 2900 3500 
L 3475 3500 
L 3475 0 
L 2900 0 
L 2900 538 
Q 2691 219 2414 64 
Q 2138 -91 1772 -91 
Q 1169 -91 856 284 
Q 544 659 544 1381 
z
M 1991 3584 
L 1991 3584 
z
" transform="scale(0.015625)"/>
       <path id="DejaVuSans-54" d="M -19 4666 
L 3928 4666 
L 3928 4134 
L 2272 4134 
L 2272 0 
L 1638 0 
L 1638 4134 
L -19 4134 
L -19 4666 
z
" transform="scale(0.015625)"/>
       <path id="DejaVuSans-68" d="M 3513 2113 
L 3513 0 
L 2938 0 
L 2938 2094 
Q 2938 2591 2744 2837 
Q 2550 3084 2163 3084 
Q 1697 3084 1428 2787 
Q 1159 2491 1159 1978 
L 1159 0 
L 581 0 
L 581 4863 
L 1159 4863 
L 1159 2956 
Q 1366 3272 1645 3428 
Q 1925 3584 2291 3584 
Q 2894 3584 3203 3211 
Q 3513 2838 3513 2113 
z
" transform="scale(0.015625)"/>
      </defs>
      <use xlink:href="#DejaVuSans-47"/>
      <use xlink:href="#DejaVuSans-72" x="77.490234"/>
      <use xlink:href="#DejaVuSans-6f" x="116.353516"/>
      <use xlink:href="#DejaVuSans-75" x="177.535156"/>
      <use xlink:href="#DejaVuSans-6e" x="240.914062"/>
      <use xlink:href="#DejaVuSans-64" x="304.292969"/>
      <use xlink:href="#DejaVuSans-20" x="367.769531"/>
      <use xlink:href="#DejaVuSans-54" x="399.556641"/>
      <use xlink:href="#DejaVuSans-72" x="445.890625"/>
      <use xlink:href="#DejaVuSans-75" x="487.003906"/>
      <use xlink:href="#DejaVuSans-74" x="550.382812"/>
      <use xlink:href="#DejaVuSans-68" x="589.591797"/>
     </g>
    </g>
    <g id="line2d_19">
     <path d="M 284.8325 69.248563 
L 294.8325 69.248563 
L 304.8325 69.248563 
" style="fill: none; stroke: #ff0000; stroke-width: 1.5; stroke-linecap: square"/>
    </g>
    <g id="text_17">
     <!-- Detected Anomaly -->
     <g transform="translate(312.8325 72.748563) scale(0.1 -0.1)">
      <defs>
       <path id="DejaVuSans-44" d="M 1259 4147 
L 1259 519 
L 2022 519 
Q 2988 519 3436 956 
Q 3884 1394 3884 2338 
Q 3884 3275 3436 3711 
Q 2988 4147 2022 4147 
L 1259 4147 
z
M 628 4666 
L 1925 4666 
Q 3281 4666 3915 4102 
Q 4550 3538 4550 2338 
Q 4550 1131 3912 565 
Q 3275 0 1925 0 
L 628 0 
L 628 4666 
z
" transform="scale(0.015625)"/>
       <path id="DejaVuSans-63" d="M 3122 3366 
L 3122 2828 
Q 2878 2963 2633 3030 
Q 2388 3097 2138 3097 
Q 1578 3097 1268 2742 
Q 959 2388 959 1747 
Q 959 1106 1268 751 
Q 1578 397 2138 397 
Q 2388 397 2633 464 
Q 2878 531 3122 666 
L 3122 134 
Q 2881 22 2623 -34 
Q 2366 -91 2075 -91 
Q 1284 -91 818 406 
Q 353 903 353 1747 
Q 353 2603 823 3093 
Q 1294 3584 2113 3584 
Q 2378 3584 2631 3529 
Q 2884 3475 3122 3366 
z
" transform="scale(0.015625)"/>
      </defs>
      <use xlink:href="#DejaVuSans-44"/>
      <use xlink:href="#DejaVuSans-65" x="77.001953"/>
      <use xlink:href="#DejaVuSans-74" x="138.525391"/>
      <use xlink:href="#DejaVuSans-65" x="177.734375"/>
      <use xlink:href="#DejaVuSans-63" x="239.257812"/>
      <use xlink:href="#DejaVuSans-74" x="294.238281"/>
      <use xlink:href="#DejaVuSans-65" x="333.447266"/>
      <use xlink:href="#DejaVuSans-64" x="394.970703"/>
      <use xlink:href="#DejaVuSans-20" x="458.447266"/>
      <use xlink:href="#DejaVuSans-41" x="490.234375"/>
      <use xlink:href="#DejaVuSans-6e" x="558.642578"/>
      <use xlink:href="#DejaVuSans-6f" x="622.021484"/>
      <use xlink:href="#DejaVuSans-6d" x="683.203125"/>
      <use xlink:href="#DejaVuSans-61" x="780.615234"/>
      <use xlink:href="#DejaVuSans-6c" x="841.894531"/>
      <use xlink:href="#DejaVuSans-79" x="869.677734"/>
     </g>
    </g>
    <g id="line2d_20">
     <path d="M 284.8325 83.926688 
L 294.8325 83.926688 
L 304.8325 83.926688 
" style="fill: none; stroke: #1f77b4; stroke-width: 1.5; stroke-linecap: square"/>
    </g>
    <g id="text_18">
     <!-- Reconstruction -->
     <g transform="translate(312.8325 87.426688) scale(0.1 -0.1)">
      <defs>
       <path id="DejaVuSans-52" d="M 2841 2188 
Q 3044 2119 3236 1894 
Q 3428 1669 3622 1275 
L 4263 0 
L 3584 0 
L 2988 1197 
Q 2756 1666 2539 1819 
Q 2322 1972 1947 1972 
L 1259 1972 
L 1259 0 
L 628 0 
L 628 4666 
L 2053 4666 
Q 2853 4666 3247 4331 
Q 3641 3997 3641 3322 
Q 3641 2881 3436 2590 
Q 3231 2300 2841 2188 
z
M 1259 4147 
L 1259 2491 
L 2053 2491 
Q 2509 2491 2742 2702 
Q 2975 2913 2975 3322 
Q 2975 3731 2742 3939 
Q 2509 4147 2053 4147 
L 1259 4147 
z
" transform="scale(0.015625)"/>
       <path id="DejaVuSans-73" d="M 2834 3397 
L 2834 2853 
Q 2591 2978 2328 3040 
Q 2066 3103 1784 3103 
Q 1356 3103 1142 2972 
Q 928 2841 928 2578 
Q 928 2378 1081 2264 
Q 1234 2150 1697 2047 
L 1894 2003 
Q 2506 1872 2764 1633 
Q 3022 1394 3022 966 
Q 3022 478 2636 193 
Q 2250 -91 1575 -91 
Q 1294 -91 989 -36 
Q 684 19 347 128 
L 347 722 
Q 666 556 975 473 
Q 1284 391 1588 391 
Q 1994 391 2212 530 
Q 2431 669 2431 922 
Q 2431 1156 2273 1281 
Q 2116 1406 1581 1522 
L 1381 1569 
Q 847 1681 609 1914 
Q 372 2147 372 2553 
Q 372 3047 722 3315 
Q 1072 3584 1716 3584 
Q 2034 3584 2315 3537 
Q 2597 3491 2834 3397 
z
" transform="scale(0.015625)"/>
       <path id="DejaVuSans-69" d="M 603 3500 
L 1178 3500 
L 1178 0 
L 603 0 
L 603 3500 
z
M 603 4863 
L 1178 4863 
L 1178 4134 
L 603 4134 
L 603 4863 
z
" transform="scale(0.015625)"/>
      </defs>
      <use xlink:href="#DejaVuSans-52"/>
      <use xlink:href="#DejaVuSans-65" x="64.982422"/>
      <use xlink:href="#DejaVuSans-63" x="126.505859"/>
      <use xlink:href="#DejaVuSans-6f" x="181.486328"/>
      <use xlink:href="#DejaVuSans-6e" x="242.667969"/>
      <use xlink:href="#DejaVuSans-73" x="306.046875"/>
      <use xlink:href="#DejaVuSans-74" x="358.146484"/>
      <use xlink:href="#DejaVuSans-72" x="397.355469"/>
      <use xlink:href="#DejaVuSans-75" x="438.46875"/>
      <use xlink:href="#DejaVuSans-63" x="501.847656"/>
      <use xlink:href="#DejaVuSans-74" x="556.828125"/>
      <use xlink:href="#DejaVuSans-69" x="596.037109"/>
      <use xlink:href="#DejaVuSans-6f" x="623.820312"/>
      <use xlink:href="#DejaVuSans-6e" x="685.001953"/>
     </g>
    </g>
   </g>
  </g>
 </g>
 <defs>
  <clipPath id="p5b53efec35">
   <rect x="57.6" y="41.472" width="357.12" height="266.112"/>
  </clipPath>
 </defs>
</svg>
